<?xml version="1.0" encoding="UTF-8" standalone="no"?>
<svg
   xmlns:dc="http://purl.org/dc/elements/1.1/"
   xmlns:cc="http://creativecommons.org/ns#"
   xmlns:rdf="http://www.w3.org/1999/02/22-rdf-syntax-ns#"
   xmlns:svg="http://www.w3.org/2000/svg"
   xmlns="http://www.w3.org/2000/svg"
   version="1.1"
   id="svg2"
   xml:space="preserve"
   width="793.33331"
   height="1122.6667"
   viewBox="0 0 793.33331 1122.6667"><metadata
     id="metadata8"><rdf:RDF><cc:Work
         rdf:about=""><dc:format>image/svg+xml</dc:format><dc:type
           rdf:resource="http://purl.org/dc/dcmitype/StillImage" /></cc:Work></rdf:RDF></metadata><defs
     id="defs6" /><g
     id="g10"
     transform="matrix(1.3333333,0,0,-1.3333333,0,1122.6667)"><g
       id="g12"><g
         id="g14"><path
           d="M 0,0 H 595 V 842 H 0 Z"
           style="fill:#ffffff;fill-opacity:1;fill-rule:nonzero;stroke:none"
           id="path16" /></g></g><g
       id="g18" /><g
       id="g20"
       transform="matrix(0.46622,0,0,0.46622,353.67964,402.81666)"><path
         d="M -107.83,434.91 -193.19,152.84"
         style="fill:none;stroke:#006d2c;stroke-width:2;stroke-linecap:butt;stroke-linejoin:miter;stroke-miterlimit:10;stroke-dasharray:none;stroke-opacity:1"
         id="path22" /><path
         d="M -193.19,152.84 -20.57,-356.09"
         style="fill:none;stroke:#39b869;stroke-width:6;stroke-linecap:butt;stroke-linejoin:miter;stroke-miterlimit:10;stroke-dasharray:none;stroke-opacity:1"
         id="path24" /><path
         d="M -193.19,152.84 -384.04,-355.34"
         style="fill:none;stroke:#006d2c;stroke-width:2;stroke-linecap:butt;stroke-linejoin:miter;stroke-miterlimit:10;stroke-dasharray:none;stroke-opacity:1"
         id="path26" /><path
         d="M -193.19,152.84 371.9,-355.53"
         style="fill:none;stroke:#006d2c;stroke-width:2;stroke-linecap:butt;stroke-linejoin:miter;stroke-miterlimit:10;stroke-dasharray:none;stroke-opacity:1"
         id="path28" /><path
         d="M -107.83,434.91 413.9,158.52"
         style="fill:none;stroke:#006d2c;stroke-width:2;stroke-linecap:butt;stroke-linejoin:miter;stroke-miterlimit:10;stroke-dasharray:none;stroke-opacity:1"
         id="path30" /><path
         d="M 413.9,158.52 -20.57,-356.09"
         style="fill:none;stroke:#1c924a;stroke-width:4;stroke-linecap:butt;stroke-linejoin:miter;stroke-miterlimit:10;stroke-dasharray:none;stroke-opacity:1"
         id="path32" /><path
         d="m 413.9,158.52 -42,-514.05"
         style="fill:none;stroke:#006d2c;stroke-width:2;stroke-linecap:butt;stroke-linejoin:miter;stroke-miterlimit:10;stroke-dasharray:none;stroke-opacity:1"
         id="path34" /><path
         d="M -107.83,434.91 -499.78,149.65"
         style="fill:none;stroke:#006d2c;stroke-width:2;stroke-linecap:butt;stroke-linejoin:miter;stroke-miterlimit:10;stroke-dasharray:none;stroke-opacity:1"
         id="path36" /><path
         d="M -499.78,149.65 -20.57,-356.09"
         style="fill:none;stroke:#1c924a;stroke-width:4;stroke-linecap:butt;stroke-linejoin:miter;stroke-miterlimit:10;stroke-dasharray:none;stroke-opacity:1"
         id="path38" /><path
         d="m -499.78,149.65 -116.7,-505.09"
         style="fill:none;stroke:#006d2c;stroke-width:2;stroke-linecap:butt;stroke-linejoin:miter;stroke-miterlimit:10;stroke-dasharray:none;stroke-opacity:1"
         id="path40" /><path
         d="m -499.78,149.65 115.74,-504.99"
         style="fill:none;stroke:#006d2c;stroke-width:2;stroke-linecap:butt;stroke-linejoin:miter;stroke-miterlimit:10;stroke-dasharray:none;stroke-opacity:1"
         id="path42" /><path
         d="M -107.83,434.91 260.51,155.26"
         style="fill:none;stroke:#006d2c;stroke-width:2;stroke-linecap:butt;stroke-linejoin:miter;stroke-miterlimit:10;stroke-dasharray:none;stroke-opacity:1"
         id="path44" /><path
         d="M 260.51,155.26 -20.57,-356.09"
         style="fill:none;stroke:#1c924a;stroke-width:4;stroke-linecap:butt;stroke-linejoin:miter;stroke-miterlimit:10;stroke-dasharray:none;stroke-opacity:1"
         id="path46" /><path
         d="m 260.51,155.26 -644.55,-510.6"
         style="fill:none;stroke:#006d2c;stroke-width:2;stroke-linecap:butt;stroke-linejoin:miter;stroke-miterlimit:10;stroke-dasharray:none;stroke-opacity:1"
         id="path48" /><path
         d="M 260.51,155.26 183.5,-355.62"
         style="fill:none;stroke:#1c924a;stroke-width:4;stroke-linecap:butt;stroke-linejoin:miter;stroke-miterlimit:10;stroke-dasharray:none;stroke-opacity:1"
         id="path50" /><path
         d="m -107.83,434.91 68.81,-282.1"
         style="fill:none;stroke:#006d2c;stroke-width:2;stroke-linecap:butt;stroke-linejoin:miter;stroke-miterlimit:10;stroke-dasharray:none;stroke-opacity:1"
         id="path52" /><path
         d="m -39.02,152.81 18.45,-508.9"
         style="fill:none;stroke:#6bfb9f;stroke-width:12;stroke-linecap:butt;stroke-linejoin:miter;stroke-miterlimit:10;stroke-dasharray:none;stroke-opacity:1"
         id="path54" /><path
         d="M -39.02,152.81 371.9,-355.53"
         style="fill:none;stroke:#1c924a;stroke-width:4;stroke-linecap:butt;stroke-linejoin:miter;stroke-miterlimit:10;stroke-dasharray:none;stroke-opacity:1"
         id="path56" /><path
         d="M -39.02,152.81 -182.98,-355.87"
         style="fill:none;stroke:#006d2c;stroke-width:2;stroke-linecap:butt;stroke-linejoin:miter;stroke-miterlimit:10;stroke-dasharray:none;stroke-opacity:1"
         id="path58" /><path
         d="M -39.02,152.81 -384.04,-355.34"
         style="fill:none;stroke:#006d2c;stroke-width:2;stroke-linecap:butt;stroke-linejoin:miter;stroke-miterlimit:10;stroke-dasharray:none;stroke-opacity:1"
         id="path60" /><path
         d="M -39.02,152.81 183.5,-355.62"
         style="fill:none;stroke:#006d2c;stroke-width:2;stroke-linecap:butt;stroke-linejoin:miter;stroke-miterlimit:10;stroke-dasharray:none;stroke-opacity:1"
         id="path62" /><path
         d="M -107.83,434.91 -331.4,154.49"
         style="fill:none;stroke:#006d2c;stroke-width:2;stroke-linecap:butt;stroke-linejoin:miter;stroke-miterlimit:10;stroke-dasharray:none;stroke-opacity:1"
         id="path64" /><path
         d="M -331.4,154.49 -20.57,-356.09"
         style="fill:none;stroke:#6bfb9f;stroke-width:12;stroke-linecap:butt;stroke-linejoin:miter;stroke-miterlimit:10;stroke-dasharray:none;stroke-opacity:1"
         id="path66" /><path
         d="M -331.4,154.49 371.9,-355.53"
         style="fill:none;stroke:#006d2c;stroke-width:2;stroke-linecap:butt;stroke-linejoin:miter;stroke-miterlimit:10;stroke-dasharray:none;stroke-opacity:1"
         id="path68" /><path
         d="m -331.4,154.49 148.42,-510.36"
         style="fill:none;stroke:#1c924a;stroke-width:4;stroke-linecap:butt;stroke-linejoin:miter;stroke-miterlimit:10;stroke-dasharray:none;stroke-opacity:1"
         id="path70" /><path
         d="M -107.83,434.91 106.72,155.98"
         style="fill:none;stroke:#006d2c;stroke-width:2;stroke-linecap:butt;stroke-linejoin:miter;stroke-miterlimit:10;stroke-dasharray:none;stroke-opacity:1"
         id="path72" /><path
         d="m 106.72,155.98 76.78,-511.6"
         style="fill:none;stroke:#1c924a;stroke-width:4;stroke-linecap:butt;stroke-linejoin:miter;stroke-miterlimit:10;stroke-dasharray:none;stroke-opacity:1"
         id="path74" /><path
         d="M 106.72,155.98 -20.57,-356.09"
         style="fill:none;stroke:#1c924a;stroke-width:4;stroke-linecap:butt;stroke-linejoin:miter;stroke-miterlimit:10;stroke-dasharray:none;stroke-opacity:1"
         id="path76" /><path
         d="M -107.83,434.91 -654.8,157.29"
         style="fill:none;stroke:#006d2c;stroke-width:2;stroke-linecap:butt;stroke-linejoin:miter;stroke-miterlimit:10;stroke-dasharray:none;stroke-opacity:1"
         id="path78" /><path
         d="m -654.8,157.29 270.76,-512.63"
         style="fill:none;stroke:#006d2c;stroke-width:2;stroke-linecap:butt;stroke-linejoin:miter;stroke-miterlimit:10;stroke-dasharray:none;stroke-opacity:1"
         id="path80" /><path
         d="m -42.83,434.91 c 0,35.9 -29.1,65 -65,65 -35.9,0 -65,-29.1 -65,-65 0,-35.9 29.1,-65 65,-65 35.9,0 65,29.1 65,65"
         style="fill:#549ada;fill-opacity:1;fill-rule:nonzero;stroke:#000000;stroke-width:1;stroke-linecap:butt;stroke-linejoin:miter;stroke-miterlimit:10;stroke-dasharray:none;stroke-opacity:1"
         id="path82" /><path
         d="m -128.19,152.84 c 0,35.9 -29.1,65 -65,65 -35.89,0 -65,-29.1 -65,-65 0,-35.9 29.11,-65 65,-65 35.9,0 65,29.1 65,65"
         style="fill:#3ec084;fill-opacity:1;fill-rule:nonzero;stroke:#000000;stroke-width:1;stroke-linecap:butt;stroke-linejoin:miter;stroke-miterlimit:10;stroke-dasharray:none;stroke-opacity:1"
         id="path84" /><path
         d="m 44.43,-356.09 c 0,35.9 -29.1,65 -65,65 -35.9,0 -65,-29.1 -65,-65 0,-35.9 29.1,-65 65,-65 35.9,0 65,29.1 65,65"
         style="fill:#63a437;fill-opacity:1;fill-rule:nonzero;stroke:#000000;stroke-width:1;stroke-linecap:butt;stroke-linejoin:miter;stroke-miterlimit:10;stroke-dasharray:none;stroke-opacity:1"
         id="path86" /><path
         d="m -319.04,-355.34 c 0,35.9 -29.1,65 -65,65 -35.9,0 -65,-29.1 -65,-65 0,-35.9 29.1,-65 65,-65 35.9,0 65,29.1 65,65"
         style="fill:#63a437;fill-opacity:1;fill-rule:nonzero;stroke:#000000;stroke-width:1;stroke-linecap:butt;stroke-linejoin:miter;stroke-miterlimit:10;stroke-dasharray:none;stroke-opacity:1"
         id="path88" /><path
         d="m 436.9,-355.53 c 0,35.9 -29.1,65 -65,65 -35.9,0 -65,-29.1 -65,-65 0,-35.9 29.1,-65 65,-65 35.9,0 65,29.1 65,65"
         style="fill:#63a437;fill-opacity:1;fill-rule:nonzero;stroke:#000000;stroke-width:1;stroke-linecap:butt;stroke-linejoin:miter;stroke-miterlimit:10;stroke-dasharray:none;stroke-opacity:1"
         id="path90" /><path
         d="m 478.9,158.52 c 0,35.9 -29.1,65 -65,65 -35.9,0 -65,-29.1 -65,-65 0,-35.9 29.1,-65 65,-65 35.9,0 65,29.1 65,65"
         style="fill:#3ec084;fill-opacity:1;fill-rule:nonzero;stroke:#000000;stroke-width:1;stroke-linecap:butt;stroke-linejoin:miter;stroke-miterlimit:10;stroke-dasharray:none;stroke-opacity:1"
         id="path92" /><path
         d="m -434.78,149.65 c 0,35.9 -29.1,65 -65,65 -35.9,0 -65,-29.1 -65,-65 0,-35.89 29.1,-65 65,-65 35.9,0 65,29.11 65,65"
         style="fill:#3ec084;fill-opacity:1;fill-rule:nonzero;stroke:#000000;stroke-width:1;stroke-linecap:butt;stroke-linejoin:miter;stroke-miterlimit:10;stroke-dasharray:none;stroke-opacity:1"
         id="path94" /><path
         d="m -551.48,-355.44 c 0,35.9 -29.1,65 -65,65 -35.9,0 -65,-29.1 -65,-65 0,-35.9 29.1,-65 65,-65 35.9,0 65,29.1 65,65"
         style="fill:#63a437;fill-opacity:1;fill-rule:nonzero;stroke:#000000;stroke-width:1;stroke-linecap:butt;stroke-linejoin:miter;stroke-miterlimit:10;stroke-dasharray:none;stroke-opacity:1"
         id="path96" /><path
         d="m 325.51,155.26 c 0,35.9 -29.1,65 -65,65 -35.9,0 -65,-29.1 -65,-65 0,-35.9 29.1,-65 65,-65 35.9,0 65,29.1 65,65"
         style="fill:#3ec084;fill-opacity:1;fill-rule:nonzero;stroke:#000000;stroke-width:1;stroke-linecap:butt;stroke-linejoin:miter;stroke-miterlimit:10;stroke-dasharray:none;stroke-opacity:1"
         id="path98" /><path
         d="m 248.5,-355.62 c 0,35.9 -29.1,65 -65,65 -35.9,0 -65,-29.1 -65,-65 0,-35.9 29.1,-65 65,-65 35.9,0 65,29.1 65,65"
         style="fill:#63a437;fill-opacity:1;fill-rule:nonzero;stroke:#000000;stroke-width:1;stroke-linecap:butt;stroke-linejoin:miter;stroke-miterlimit:10;stroke-dasharray:none;stroke-opacity:1"
         id="path100" /><path
         d="m 25.98,152.81 c 0,35.9 -29.1,65 -65,65 -35.9,0 -65,-29.1 -65,-65 0,-35.9 29.1,-65 65,-65 35.9,0 65,29.1 65,65"
         style="fill:#3ec084;fill-opacity:1;fill-rule:nonzero;stroke:#000000;stroke-width:1;stroke-linecap:butt;stroke-linejoin:miter;stroke-miterlimit:10;stroke-dasharray:none;stroke-opacity:1"
         id="path102" /><path
         d="m -117.98,-355.87 c 0,35.9 -29.1,65 -65,65 -35.9,0 -65,-29.1 -65,-65 0,-35.9 29.1,-65 65,-65 35.9,0 65,29.1 65,65"
         style="fill:#63a437;fill-opacity:1;fill-rule:nonzero;stroke:#000000;stroke-width:1;stroke-linecap:butt;stroke-linejoin:miter;stroke-miterlimit:10;stroke-dasharray:none;stroke-opacity:1"
         id="path104" /><path
         d="m -266.4,154.49 c 0,35.9 -29.1,65 -65,65 -35.89,0 -65,-29.1 -65,-65 0,-35.9 29.11,-65 65,-65 35.9,0 65,29.1 65,65"
         style="fill:#3ec084;fill-opacity:1;fill-rule:nonzero;stroke:#000000;stroke-width:1;stroke-linecap:butt;stroke-linejoin:miter;stroke-miterlimit:10;stroke-dasharray:none;stroke-opacity:1"
         id="path106" /><path
         d="m 171.72,155.98 c 0,35.9 -29.1,65 -65,65 -35.9,0 -65,-29.1 -65,-65 0,-35.9 29.1,-65 65,-65 35.9,0 65,29.1 65,65"
         style="fill:#3ec084;fill-opacity:1;fill-rule:nonzero;stroke:#000000;stroke-width:1;stroke-linecap:butt;stroke-linejoin:miter;stroke-miterlimit:10;stroke-dasharray:none;stroke-opacity:1"
         id="path108" /><path
         d="m -589.8,157.29 c 0,35.89 -29.1,65 -65,65 -35.9,0 -65,-29.11 -65,-65 0,-35.9 29.1,-65 65,-65 35.9,0 65,29.1 65,65"
         style="fill:#3ec084;fill-opacity:1;fill-rule:nonzero;stroke:#000000;stroke-width:1;stroke-linecap:butt;stroke-linejoin:miter;stroke-miterlimit:10;stroke-dasharray:none;stroke-opacity:1"
         id="path110" /><text
         transform="matrix(1,0,0,-1,-126.5,430.69)"
         style="font-variant:normal;font-weight:normal;font-size:12px;font-family:Arial;-inkscape-font-specification:ArialMT;writing-mode:lr-tb;fill:#000000;fill-opacity:1;fill-rule:nonzero;stroke:none"
         id="text114"><tspan
           x="0 7.3200002 13.992 20.664 30.66"
           y="0"
           id="tspan112">Thema</tspan></text><text
         transform="matrix(1,0,0,-1,-219.51,148.54)"
         style="font-variant:normal;font-weight:normal;font-size:12px;font-family:Arial;-inkscape-font-specification:ArialMT;writing-mode:lr-tb;fill:#000000;fill-opacity:1;fill-rule:nonzero;stroke:none"
         id="text118"><tspan
           x="0 7.9920001 11.316 17.988001 24.66 27.983999 36.647999 43.32 45.984001"
           y="0"
           id="tspan116">Stadtwald</tspan></text><text
         transform="matrix(1,0,0,-1,-42.23,-360.32)"
         style="font-variant:normal;font-weight:normal;font-size:12px;font-family:Arial;-inkscape-font-specification:ArialMT;writing-mode:lr-tb;fill:#000000;fill-opacity:1;fill-rule:nonzero;stroke:none"
         id="text122"><tspan
           x="0 11.316 17.988001 24.66 30.66 33.324001 36.647999"
           y="0"
           id="tspan120">Website</tspan></text><text
         transform="matrix(1,0,0,-1,-411.37,-359.6)"
         style="font-variant:normal;font-weight:normal;font-size:12px;font-family:Arial;-inkscape-font-specification:ArialMT;writing-mode:lr-tb;fill:#000000;fill-opacity:1;fill-rule:nonzero;stroke:none"
         id="text126"><tspan
           x="0 7.9920001 11.988 18.66 24.66 30.66 37.332001 44.004002 48"
           y="0"
           id="tspan124">Broschüre</tspan></text><text
         transform="matrix(1,0,0,-1,358.57,-358.56)"
         style="font-variant:normal;font-weight:normal;font-size:12px;font-family:Arial;-inkscape-font-specification:ArialMT;writing-mode:lr-tb;fill:#000000;fill-opacity:1;fill-rule:nonzero;stroke:none"
         id="text130"><tspan
           x="0 7.3200002 9.9840002 15.984 22.656"
           y="0"
           id="tspan128">Flyer</tspan></text><text
         transform="matrix(1,0,0,-1,357.58,155.41)"
         style="font-variant:normal;font-weight:normal;font-size:12px;font-family:Arial;-inkscape-font-specification:ArialMT;writing-mode:lr-tb;fill:#000000;fill-opacity:1;fill-rule:nonzero;stroke:none"
         id="text134"><tspan
           x="0 9.3240004 13.32 15.984 22.656 29.327999 32.652 35.316002 41.987999 45.984001 52.655998 59.327999 66 69.323997 71.987999 81.984001 85.307999 96.624001 103.296 105.96"
           y="0"
           id="tspan132">Orientierung im Wald</tspan></text><text
         transform="matrix(1,0,0,-1,-520.11,145.43)"
         style="font-variant:normal;font-weight:normal;font-size:12px;font-family:Arial;-inkscape-font-specification:ArialMT;writing-mode:lr-tb;fill:#000000;fill-opacity:1;fill-rule:nonzero;stroke:none"
         id="text138"><tspan
           x="0 8.6639996 11.328 17.327999 20.652 27.323999 31.32 33.984001"
           y="0"
           id="tspan136">Historie</tspan></text><text
         transform="matrix(1,0,0,-1,-629.81,-359.74)"
         style="font-variant:normal;font-weight:normal;font-size:12px;font-family:Arial;-inkscape-font-specification:ArialMT;writing-mode:lr-tb;fill:#000000;fill-opacity:1;fill-rule:nonzero;stroke:none"
         id="text142"><tspan
           x="0 7.3200002 13.992 17.316 23.988001"
           y="0"
           id="tspan140">Tafel</tspan></text><text
         transform="matrix(1,0,0,-1,218.84,151.04)"
         style="font-variant:normal;font-weight:normal;font-size:12px;font-family:Arial;-inkscape-font-specification:ArialMT;writing-mode:lr-tb;fill:#000000;fill-opacity:1;fill-rule:nonzero;stroke:none"
         id="text146"><tspan
           x="0 7.9920001 10.656 13.32 19.992001 26.664 30.66 33.324001 39.995998 46.667999 53.34 60.012001 66.683998 69.348 73.344002 80.015999"
           y="0"
           id="tspan144">Eilenriedebeirat</tspan></text><text
         transform="matrix(1,0,0,-1,140.17,-358.73)"
         style="font-variant:normal;font-weight:normal;font-size:12px;font-family:Arial;-inkscape-font-specification:ArialMT;writing-mode:lr-tb;fill:#000000;fill-opacity:1;fill-rule:nonzero;stroke:none"
         id="text150"><tspan
           x="0 7.9920001 14.664 18.66 25.332001 28.656 31.98 38.652 45.324001 48.647999 51.312 53.976002 59.976002 66.648003 73.32 79.991997"
           y="0"
           id="tspan148">Veröffentlichung</tspan></text><text
         transform="matrix(1,0,0,-1,-70.35,148.59)"
         style="font-variant:normal;font-weight:normal;font-size:12px;font-family:Arial;-inkscape-font-specification:ArialMT;writing-mode:lr-tb;fill:#000000;fill-opacity:1;fill-rule:nonzero;stroke:none"
         id="text154"><tspan
           x="0 11.316 17.988001 20.652 27.323999 33.324001 36.647999 43.32 46.644001 49.307999 55.98"
           y="0"
           id="tspan152">Waldstation</tspan></text><text
         transform="matrix(1,0,0,-1,-197.3,-360.1)"
         style="font-variant:normal;font-weight:normal;font-size:12px;font-family:Arial;-inkscape-font-specification:ArialMT;writing-mode:lr-tb;fill:#000000;fill-opacity:1;fill-rule:nonzero;stroke:none"
         id="text158"><tspan
           x="0 7.9920001 14.664 18.66 21.983999"
           y="0"
           id="tspan156">Karte</tspan></text><text
         transform="matrix(1,0,0,-1,-387.4,151.38)"
         style="font-variant:normal;font-weight:normal;font-size:12px;font-family:Arial;-inkscape-font-specification:ArialMT;writing-mode:lr-tb;fill:#000000;fill-opacity:1;fill-rule:nonzero;stroke:none"
         id="text162"><tspan
           x="0 7.9920001 14.664 21.336 25.332001 28.656 31.98 38.652 45.324001 51.995998 55.32 63.312 69.984001 78.648003 85.32 91.991997 98.664001 105.336"
           y="0"
           id="tspan160">Sport und Bewegung</tspan></text><text
         transform="matrix(1,0,0,-1,67.74,151.68)"
         style="font-variant:normal;font-weight:normal;font-size:12px;font-family:Arial;-inkscape-font-specification:ArialMT;writing-mode:lr-tb;fill:#000000;fill-opacity:1;fill-rule:nonzero;stroke:none"
         id="text166"><tspan
           x="0 7.3200002 13.992 17.988001 23.988001 27.312 35.976002 38.639999 42.636002 45.959999 51.959999 57.959999 64.632004 71.304001 74.627998"
           y="0"
           id="tspan164">Forstwirtschaft</tspan></text><text
         transform="matrix(1,0,0,-1,-678.13,154.18)"
         style="font-variant:normal;font-weight:normal;font-size:12px;font-family:Arial;-inkscape-font-specification:ArialMT;writing-mode:lr-tb;fill:#000000;fill-opacity:1;fill-rule:nonzero;stroke:none"
         id="text170"><tspan
           x="0 7.9920001 14.664 21.336 27.336 30.66 33.324001 39.995998"
           y="0"
           id="tspan168">Sonstige</tspan></text></g></g></svg>
