<?xml version="1.0" encoding="UTF-8" standalone="no"?>
<svg
   xmlns:dc="http://purl.org/dc/elements/1.1/"
   xmlns:cc="http://creativecommons.org/ns#"
   xmlns:rdf="http://www.w3.org/1999/02/22-rdf-syntax-ns#"
   xmlns:svg="http://www.w3.org/2000/svg"
   xmlns="http://www.w3.org/2000/svg"
   version="1.1"
   id="svg2"
   xml:space="preserve"
   width="793.33331"
   height="1122.6667"
   viewBox="0 0 793.33331 1122.6667"><metadata
     id="metadata8"><rdf:RDF><cc:Work
         rdf:about=""><dc:format>image/svg+xml</dc:format><dc:type
           rdf:resource="http://purl.org/dc/dcmitype/StillImage" /></cc:Work></rdf:RDF></metadata><defs
     id="defs6" /><g
     id="g10"
     transform="matrix(1.3333333,0,0,-1.3333333,0,1122.6667)"><g
       id="g12"><g
         id="g14"><path
           d="M 0,0 H 595 V 842 H 0 Z"
           style="fill:#ffffff;fill-opacity:1;fill-rule:nonzero;stroke:none"
           id="path16" /></g></g><g
       id="g18" /><g
       id="g20"
       transform="matrix(0.44016,0,0,0.44016,334.46974,426.50424)"><path
         d="M -20.66,-26.2 -130.47,225.14"
         style="fill:none;stroke:#49adaf;stroke-width:2;stroke-linecap:butt;stroke-linejoin:miter;stroke-miterlimit:10;stroke-dasharray:none;stroke-opacity:1"
         id="path22" /><path
         d="m -130.47,225.14 -41.56,184.3"
         style="fill:none;stroke:#50b25d;stroke-width:6;stroke-linecap:butt;stroke-linejoin:miter;stroke-miterlimit:10;stroke-dasharray:none;stroke-opacity:1"
         id="path24" /><path
         d="M -130.47,225.14 -351.3,328.25"
         style="fill:none;stroke:#50b25d;stroke-width:2;stroke-linecap:butt;stroke-linejoin:miter;stroke-miterlimit:10;stroke-dasharray:none;stroke-opacity:1"
         id="path26" /><path
         d="M -130.47,225.14 -335.41,475.82"
         style="fill:none;stroke:#50b25d;stroke-width:2;stroke-linecap:butt;stroke-linejoin:miter;stroke-miterlimit:10;stroke-dasharray:none;stroke-opacity:1"
         id="path28" /><path
         d="M -20.66,-26.2 -290.08,-149.97"
         style="fill:none;stroke:#49adaf;stroke-width:2;stroke-linecap:butt;stroke-linejoin:miter;stroke-miterlimit:10;stroke-dasharray:none;stroke-opacity:1"
         id="path30" /><path
         d="M -290.08,-149.97 -427.35,-345.51"
         style="fill:none;stroke:#50b25d;stroke-width:4;stroke-linecap:butt;stroke-linejoin:miter;stroke-miterlimit:10;stroke-dasharray:none;stroke-opacity:1"
         id="path32" /><path
         d="m -290.08,-149.97 -219.69,-48.39"
         style="fill:none;stroke:#50b25d;stroke-width:2;stroke-linecap:butt;stroke-linejoin:miter;stroke-miterlimit:10;stroke-dasharray:none;stroke-opacity:1"
         id="path34" /><path
         d="M -20.66,-26.2 -155.12,-293.95"
         style="fill:none;stroke:#49adaf;stroke-width:2;stroke-linecap:butt;stroke-linejoin:miter;stroke-miterlimit:10;stroke-dasharray:none;stroke-opacity:1"
         id="path36" /><path
         d="m -155.12,-293.95 -75.16,-270.98"
         style="fill:none;stroke:#50b25d;stroke-width:4;stroke-linecap:butt;stroke-linejoin:miter;stroke-miterlimit:10;stroke-dasharray:none;stroke-opacity:1"
         id="path38" /><path
         d="M -155.12,-293.95 -306.69,-434.16"
         style="fill:none;stroke:#50b25d;stroke-width:2;stroke-linecap:butt;stroke-linejoin:miter;stroke-miterlimit:10;stroke-dasharray:none;stroke-opacity:1"
         id="path40" /><path
         d="M -155.12,-293.95 -91.1,-486.46"
         style="fill:none;stroke:#50b25d;stroke-width:2;stroke-linecap:butt;stroke-linejoin:miter;stroke-miterlimit:10;stroke-dasharray:none;stroke-opacity:1"
         id="path42" /><path
         d="M -20.66,-26.2 248.76,-142.75"
         style="fill:none;stroke:#49adaf;stroke-width:2;stroke-linecap:butt;stroke-linejoin:miter;stroke-miterlimit:10;stroke-dasharray:none;stroke-opacity:1"
         id="path44" /><path
         d="m 248.76,-142.75 231.46,-22.73"
         style="fill:none;stroke:#50b25d;stroke-width:4;stroke-linecap:butt;stroke-linejoin:miter;stroke-miterlimit:10;stroke-dasharray:none;stroke-opacity:1"
         id="path46" /><path
         d="m 248.76,-142.75 12.99,-231.37"
         style="fill:none;stroke:#50b25d;stroke-width:2;stroke-linecap:butt;stroke-linejoin:miter;stroke-miterlimit:10;stroke-dasharray:none;stroke-opacity:1"
         id="path48" /><path
         d="M 248.76,-142.75 386.96,-302.3"
         style="fill:none;stroke:#50b25d;stroke-width:4;stroke-linecap:butt;stroke-linejoin:miter;stroke-miterlimit:10;stroke-dasharray:none;stroke-opacity:1"
         id="path50" /><path
         d="M -20.66,-26.2 94.31,223.4"
         style="fill:none;stroke:#49adaf;stroke-width:2;stroke-linecap:butt;stroke-linejoin:miter;stroke-miterlimit:10;stroke-dasharray:none;stroke-opacity:1"
         id="path52" /><path
         d="M 94.31,223.4 51.96,539.78"
         style="fill:none;stroke:#50b25d;stroke-width:12;stroke-linecap:butt;stroke-linejoin:miter;stroke-miterlimit:10;stroke-dasharray:none;stroke-opacity:1"
         id="path54" /><path
         d="M 94.31,223.4 309.64,471.24"
         style="fill:none;stroke:#50b25d;stroke-width:4;stroke-linecap:butt;stroke-linejoin:miter;stroke-miterlimit:10;stroke-dasharray:none;stroke-opacity:1"
         id="path56" /><path
         d="m 94.31,223.4 201.64,90.84"
         style="fill:none;stroke:#50b25d;stroke-width:2;stroke-linecap:butt;stroke-linejoin:miter;stroke-miterlimit:10;stroke-dasharray:none;stroke-opacity:1"
         id="path58" /><path
         d="m 94.31,223.4 67.75,208.98"
         style="fill:none;stroke:#50b25d;stroke-width:2;stroke-linecap:butt;stroke-linejoin:miter;stroke-miterlimit:10;stroke-dasharray:none;stroke-opacity:1"
         id="path60" /><path
         d="M 94.31,223.4 -18.7,410.52"
         style="fill:none;stroke:#50b25d;stroke-width:2;stroke-linecap:butt;stroke-linejoin:miter;stroke-miterlimit:10;stroke-dasharray:none;stroke-opacity:1"
         id="path62" /><path
         d="M -20.66,-26.2 -312.08,73.06"
         style="fill:none;stroke:#49adaf;stroke-width:2;stroke-linecap:butt;stroke-linejoin:miter;stroke-miterlimit:10;stroke-dasharray:none;stroke-opacity:1"
         id="path64" /><path
         d="M -312.08,73.06 -648.3,91.53"
         style="fill:none;stroke:#50b25d;stroke-width:12;stroke-linecap:butt;stroke-linejoin:miter;stroke-miterlimit:10;stroke-dasharray:none;stroke-opacity:1"
         id="path66" /><path
         d="M -312.08,73.06 -506.45,-18.89"
         style="fill:none;stroke:#50b25d;stroke-width:2;stroke-linecap:butt;stroke-linejoin:miter;stroke-miterlimit:10;stroke-dasharray:none;stroke-opacity:1"
         id="path68" /><path
         d="M -312.08,73.06 -495.41,202.21"
         style="fill:none;stroke:#50b25d;stroke-width:4;stroke-linecap:butt;stroke-linejoin:miter;stroke-miterlimit:10;stroke-dasharray:none;stroke-opacity:1"
         id="path70" /><path
         d="M -20.66,-26.2 270.05,58.33"
         style="fill:none;stroke:#49adaf;stroke-width:2;stroke-linecap:butt;stroke-linejoin:miter;stroke-miterlimit:10;stroke-dasharray:none;stroke-opacity:1"
         id="path72" /><path
         d="M 270.05,58.33 454.61,-4.46"
         style="fill:none;stroke:#50b25d;stroke-width:4;stroke-linecap:butt;stroke-linejoin:miter;stroke-miterlimit:10;stroke-dasharray:none;stroke-opacity:1"
         id="path74" /><path
         d="M 270.05,58.33 438.18,190.28"
         style="fill:none;stroke:#50b25d;stroke-width:4;stroke-linecap:butt;stroke-linejoin:miter;stroke-miterlimit:10;stroke-dasharray:none;stroke-opacity:1"
         id="path76" /><path
         d="M -20.66,-26.2 79.54,-297.9"
         style="fill:none;stroke:#49adaf;stroke-width:2;stroke-linecap:butt;stroke-linejoin:miter;stroke-miterlimit:10;stroke-dasharray:none;stroke-opacity:1"
         id="path78" /><path
         d="m 79.54,-297.9 22.82,-183.97"
         style="fill:none;stroke:#50b25d;stroke-width:2;stroke-linecap:butt;stroke-linejoin:miter;stroke-miterlimit:10;stroke-dasharray:none;stroke-opacity:1"
         id="path80" /><path
         d="m 49.34,-26.2 c 0,38.67 -31.34,70 -70,70 -38.66,0 -70,-31.33 -70,-70 0,-38.66 31.34,-70 70,-70 38.66,0 70,31.34 70,70"
         style="fill:#549ada;fill-opacity:1;fill-rule:nonzero;stroke:#000000;stroke-width:1;stroke-linecap:butt;stroke-linejoin:miter;stroke-miterlimit:10;stroke-dasharray:none;stroke-opacity:1"
         id="path82" /><path
         d="m -60.47,225.14 c 0,38.66 -31.34,70 -70,70 -38.66,0 -70,-31.34 -70,-70 0,-38.66 31.34,-70 70,-70 38.66,0 70,31.34 70,70"
         style="fill:#3ec084;fill-opacity:1;fill-rule:nonzero;stroke:#000000;stroke-width:1;stroke-linecap:butt;stroke-linejoin:miter;stroke-miterlimit:10;stroke-dasharray:none;stroke-opacity:1"
         id="path84" /><path
         d="m -102.03,409.44 c 0,38.66 -31.34,70 -70,70 -38.66,0 -70,-31.34 -70,-70 0,-38.66 31.34,-70 70,-70 38.66,0 70,31.34 70,70"
         style="fill:#63a437;fill-opacity:1;fill-rule:nonzero;stroke:#000000;stroke-width:1;stroke-linecap:butt;stroke-linejoin:miter;stroke-miterlimit:10;stroke-dasharray:none;stroke-opacity:1"
         id="path86" /><path
         d="m -281.3,328.25 c 0,38.66 -31.34,70 -70,70 -38.66,0 -70,-31.34 -70,-70 0,-38.66 31.34,-70 70,-70 38.66,0 70,31.34 70,70"
         style="fill:#63a437;fill-opacity:1;fill-rule:nonzero;stroke:#000000;stroke-width:1;stroke-linecap:butt;stroke-linejoin:miter;stroke-miterlimit:10;stroke-dasharray:none;stroke-opacity:1"
         id="path88" /><path
         d="m -265.41,475.82 c 0,38.67 -31.34,70 -70,70 -38.66,0 -70,-31.33 -70,-70 0,-38.66 31.34,-70 70,-70 38.66,0 70,31.34 70,70"
         style="fill:#63a437;fill-opacity:1;fill-rule:nonzero;stroke:#000000;stroke-width:1;stroke-linecap:butt;stroke-linejoin:miter;stroke-miterlimit:10;stroke-dasharray:none;stroke-opacity:1"
         id="path90" /><path
         d="m -220.08,-149.97 c 0,38.66 -31.34,70 -70,70 -38.66,0 -70,-31.34 -70,-70 0,-38.66 31.34,-70 70,-70 38.66,0 70,31.34 70,70"
         style="fill:#3ec084;fill-opacity:1;fill-rule:nonzero;stroke:#000000;stroke-width:1;stroke-linecap:butt;stroke-linejoin:miter;stroke-miterlimit:10;stroke-dasharray:none;stroke-opacity:1"
         id="path92" /><path
         d="m -357.35,-345.51 c 0,38.66 -31.34,70 -70,70 -38.66,0 -70,-31.34 -70,-70 0,-38.66 31.34,-70 70,-70 38.66,0 70,31.34 70,70"
         style="fill:#63a437;fill-opacity:1;fill-rule:nonzero;stroke:#000000;stroke-width:1;stroke-linecap:butt;stroke-linejoin:miter;stroke-miterlimit:10;stroke-dasharray:none;stroke-opacity:1"
         id="path94" /><path
         d="m -439.77,-198.36 c 0,38.66 -31.34,70 -70,70 -38.66,0 -70,-31.34 -70,-70 0,-38.66 31.34,-70 70,-70 38.66,0 70,31.34 70,70"
         style="fill:#63a437;fill-opacity:1;fill-rule:nonzero;stroke:#000000;stroke-width:1;stroke-linecap:butt;stroke-linejoin:miter;stroke-miterlimit:10;stroke-dasharray:none;stroke-opacity:1"
         id="path96" /><path
         d="m -85.12,-293.95 c 0,38.66 -31.33,70 -70,70 -38.66,0 -70,-31.34 -70,-70 0,-38.67 31.34,-70 70,-70 38.67,0 70,31.33 70,70"
         style="fill:#3ec084;fill-opacity:1;fill-rule:nonzero;stroke:#000000;stroke-width:1;stroke-linecap:butt;stroke-linejoin:miter;stroke-miterlimit:10;stroke-dasharray:none;stroke-opacity:1"
         id="path98" /><path
         d="m -160.28,-564.93 c 0,38.66 -31.34,70 -70,70 -38.67,0 -70,-31.34 -70,-70 0,-38.66 31.33,-70 70,-70 38.66,0 70,31.34 70,70"
         style="fill:#63a437;fill-opacity:1;fill-rule:nonzero;stroke:#000000;stroke-width:1;stroke-linecap:butt;stroke-linejoin:miter;stroke-miterlimit:10;stroke-dasharray:none;stroke-opacity:1"
         id="path100" /><path
         d="m -236.69,-434.16 c 0,38.66 -31.34,70 -70,70 -38.66,0 -70,-31.34 -70,-70 0,-38.66 31.34,-70 70,-70 38.66,0 70,31.34 70,70"
         style="fill:#63a437;fill-opacity:1;fill-rule:nonzero;stroke:#000000;stroke-width:1;stroke-linecap:butt;stroke-linejoin:miter;stroke-miterlimit:10;stroke-dasharray:none;stroke-opacity:1"
         id="path102" /><path
         d="m -21.1,-486.46 c 0,38.66 -31.34,70 -70,70 -38.66,0 -70,-31.34 -70,-70 0,-38.66 31.34,-70 70,-70 38.66,0 70,31.34 70,70"
         style="fill:#63a437;fill-opacity:1;fill-rule:nonzero;stroke:#000000;stroke-width:1;stroke-linecap:butt;stroke-linejoin:miter;stroke-miterlimit:10;stroke-dasharray:none;stroke-opacity:1"
         id="path104" /><path
         d="m 318.76,-142.75 c 0,38.66 -31.34,70 -70,70 -38.66,0 -70,-31.34 -70,-70 0,-38.66 31.34,-70 70,-70 38.66,0 70,31.34 70,70"
         style="fill:#3ec084;fill-opacity:1;fill-rule:nonzero;stroke:#000000;stroke-width:1;stroke-linecap:butt;stroke-linejoin:miter;stroke-miterlimit:10;stroke-dasharray:none;stroke-opacity:1"
         id="path106" /><path
         d="m 550.22,-165.48 c 0,38.66 -31.34,70 -70,70 -38.66,0 -70,-31.34 -70,-70 0,-38.66 31.34,-70 70,-70 38.66,0 70,31.34 70,70"
         style="fill:#63a437;fill-opacity:1;fill-rule:nonzero;stroke:#000000;stroke-width:1;stroke-linecap:butt;stroke-linejoin:miter;stroke-miterlimit:10;stroke-dasharray:none;stroke-opacity:1"
         id="path108" /><path
         d="m 331.75,-374.12 c 0,38.66 -31.34,70 -70,70 -38.66,0 -70,-31.34 -70,-70 0,-38.66 31.34,-70 70,-70 38.66,0 70,31.34 70,70"
         style="fill:#63a437;fill-opacity:1;fill-rule:nonzero;stroke:#000000;stroke-width:1;stroke-linecap:butt;stroke-linejoin:miter;stroke-miterlimit:10;stroke-dasharray:none;stroke-opacity:1"
         id="path110" /><path
         d="m 456.96,-302.3 c 0,38.66 -31.34,70 -70,70 -38.66,0 -70,-31.34 -70,-70 0,-38.66 31.34,-70 70,-70 38.66,0 70,31.34 70,70"
         style="fill:#63a437;fill-opacity:1;fill-rule:nonzero;stroke:#000000;stroke-width:1;stroke-linecap:butt;stroke-linejoin:miter;stroke-miterlimit:10;stroke-dasharray:none;stroke-opacity:1"
         id="path112" /><path
         d="m 164.31,223.4 c 0,38.66 -31.34,70 -70,70 -38.66,0 -70,-31.34 -70,-70 0,-38.66 31.34,-70 70,-70 38.66,0 70,31.34 70,70"
         style="fill:#3ec084;fill-opacity:1;fill-rule:nonzero;stroke:#000000;stroke-width:1;stroke-linecap:butt;stroke-linejoin:miter;stroke-miterlimit:10;stroke-dasharray:none;stroke-opacity:1"
         id="path114" /><path
         d="m 121.96,539.78 c 0,38.66 -31.34,70 -70,70 -38.66,0 -70,-31.34 -70,-70 0,-38.66 31.34,-70 70,-70 38.66,0 70,31.34 70,70"
         style="fill:#63a437;fill-opacity:1;fill-rule:nonzero;stroke:#000000;stroke-width:1;stroke-linecap:butt;stroke-linejoin:miter;stroke-miterlimit:10;stroke-dasharray:none;stroke-opacity:1"
         id="path116" /><path
         d="m 379.64,471.24 c 0,38.66 -31.33,70 -70,70 -38.66,0 -70,-31.34 -70,-70 0,-38.66 31.34,-70 70,-70 38.67,0 70,31.34 70,70"
         style="fill:#63a437;fill-opacity:1;fill-rule:nonzero;stroke:#000000;stroke-width:1;stroke-linecap:butt;stroke-linejoin:miter;stroke-miterlimit:10;stroke-dasharray:none;stroke-opacity:1"
         id="path118" /><path
         d="m 365.95,314.24 c 0,38.66 -31.34,70 -70,70 -38.66,0 -70,-31.34 -70,-70 0,-38.66 31.34,-70 70,-70 38.66,0 70,31.34 70,70"
         style="fill:#63a437;fill-opacity:1;fill-rule:nonzero;stroke:#000000;stroke-width:1;stroke-linecap:butt;stroke-linejoin:miter;stroke-miterlimit:10;stroke-dasharray:none;stroke-opacity:1"
         id="path120" /><path
         d="m 232.06,432.38 c 0,38.66 -31.33,70 -70,70 -38.66,0 -70,-31.34 -70,-70 0,-38.66 31.34,-70 70,-70 38.67,0 70,31.34 70,70"
         style="fill:#63a437;fill-opacity:1;fill-rule:nonzero;stroke:#000000;stroke-width:1;stroke-linecap:butt;stroke-linejoin:miter;stroke-miterlimit:10;stroke-dasharray:none;stroke-opacity:1"
         id="path122" /><path
         d="m 51.3,410.52 c 0,38.66 -31.34,70 -70,70 -38.67,0 -70,-31.34 -70,-70 0,-38.66 31.33,-70 70,-70 38.66,0 70,31.34 70,70"
         style="fill:#63a437;fill-opacity:1;fill-rule:nonzero;stroke:#000000;stroke-width:1;stroke-linecap:butt;stroke-linejoin:miter;stroke-miterlimit:10;stroke-dasharray:none;stroke-opacity:1"
         id="path124" /><path
         d="m -242.08,73.06 c 0,38.66 -31.34,70 -70,70 -38.66,0 -70,-31.34 -70,-70 0,-38.66 31.34,-70 70,-70 38.66,0 70,31.34 70,70"
         style="fill:#3ec084;fill-opacity:1;fill-rule:nonzero;stroke:#000000;stroke-width:1;stroke-linecap:butt;stroke-linejoin:miter;stroke-miterlimit:10;stroke-dasharray:none;stroke-opacity:1"
         id="path126" /><path
         d="m -578.3,91.53 c 0,38.66 -31.34,70 -70,70 -38.67,0 -70,-31.34 -70,-70 0,-38.66 31.33,-70 70,-70 38.66,0 70,31.34 70,70"
         style="fill:#63a437;fill-opacity:1;fill-rule:nonzero;stroke:#000000;stroke-width:1;stroke-linecap:butt;stroke-linejoin:miter;stroke-miterlimit:10;stroke-dasharray:none;stroke-opacity:1"
         id="path128" /><path
         d="m -436.45,-18.89 c 0,38.66 -31.34,70 -70,70 -38.66,0 -70,-31.34 -70,-70 0,-38.66 31.34,-70 70,-70 38.66,0 70,31.34 70,70"
         style="fill:#63a437;fill-opacity:1;fill-rule:nonzero;stroke:#000000;stroke-width:1;stroke-linecap:butt;stroke-linejoin:miter;stroke-miterlimit:10;stroke-dasharray:none;stroke-opacity:1"
         id="path130" /><path
         d="m -425.41,202.21 c 0,38.66 -31.34,70 -70,70 -38.66,0 -70,-31.34 -70,-70 0,-38.66 31.34,-70 70,-70 38.66,0 70,31.34 70,70"
         style="fill:#63a437;fill-opacity:1;fill-rule:nonzero;stroke:#000000;stroke-width:1;stroke-linecap:butt;stroke-linejoin:miter;stroke-miterlimit:10;stroke-dasharray:none;stroke-opacity:1"
         id="path132" /><path
         d="m 340.05,58.33 c 0,38.66 -31.34,70 -70,70 -38.66,0 -70,-31.34 -70,-70 0,-38.66 31.34,-70 70,-70 38.66,0 70,31.34 70,70"
         style="fill:#3ec084;fill-opacity:1;fill-rule:nonzero;stroke:#000000;stroke-width:1;stroke-linecap:butt;stroke-linejoin:miter;stroke-miterlimit:10;stroke-dasharray:none;stroke-opacity:1"
         id="path134" /><path
         d="m 524.61,-4.46 c 0,38.66 -31.34,70 -70,70 -38.66,0 -70,-31.34 -70,-70 0,-38.66 31.34,-70 70,-70 38.66,0 70,31.34 70,70"
         style="fill:#63a437;fill-opacity:1;fill-rule:nonzero;stroke:#000000;stroke-width:1;stroke-linecap:butt;stroke-linejoin:miter;stroke-miterlimit:10;stroke-dasharray:none;stroke-opacity:1"
         id="path136" /><path
         d="m 508.18,190.28 c 0,38.66 -31.34,70 -70,70 -38.66,0 -70,-31.34 -70,-70 0,-38.66 31.34,-70 70,-70 38.66,0 70,31.34 70,70"
         style="fill:#63a437;fill-opacity:1;fill-rule:nonzero;stroke:#000000;stroke-width:1;stroke-linecap:butt;stroke-linejoin:miter;stroke-miterlimit:10;stroke-dasharray:none;stroke-opacity:1"
         id="path138" /><path
         d="m 149.54,-297.9 c 0,38.66 -31.34,70 -70,70 -38.66,0 -70,-31.34 -70,-70 0,-38.66 31.34,-70 70,-70 38.66,0 70,31.34 70,70"
         style="fill:#3ec084;fill-opacity:1;fill-rule:nonzero;stroke:#000000;stroke-width:1;stroke-linecap:butt;stroke-linejoin:miter;stroke-miterlimit:10;stroke-dasharray:none;stroke-opacity:1"
         id="path140" /><path
         d="m 172.36,-481.87 c 0,38.66 -31.33,70 -70,70 -38.66,0 -70,-31.34 -70,-70 0,-38.66 31.34,-70 70,-70 38.67,0 70,31.34 70,70"
         style="fill:#63a437;fill-opacity:1;fill-rule:nonzero;stroke:#000000;stroke-width:1;stroke-linecap:butt;stroke-linejoin:miter;stroke-miterlimit:10;stroke-dasharray:none;stroke-opacity:1"
         id="path142" /><text
         transform="matrix(1,0,0,-1,-39.33,-30.42)"
         style="font-variant:normal;font-weight:normal;font-size:12px;font-family:Arial;-inkscape-font-specification:ArialMT;writing-mode:lr-tb;fill:#000000;fill-opacity:1;fill-rule:nonzero;stroke:none"
         id="text146"><tspan
           x="0 7.3200002 13.992 20.664 30.66"
           y="0"
           id="tspan144">Thema</tspan></text><text
         transform="matrix(1,0,0,-1,-156.8,220.85)"
         style="font-variant:normal;font-weight:normal;font-size:12px;font-family:Arial;-inkscape-font-specification:ArialMT;writing-mode:lr-tb;fill:#000000;fill-opacity:1;fill-rule:nonzero;stroke:none"
         id="text150"><tspan
           x="0 7.9920001 11.316 17.988001 24.66 27.983999 36.647999 43.32 45.984001"
           y="0"
           id="tspan148">Stadtwald</tspan></text><text
         transform="matrix(1,0,0,-1,-193.69,405.22)"
         style="font-variant:normal;font-weight:normal;font-size:12px;font-family:Arial;-inkscape-font-specification:ArialMT;writing-mode:lr-tb;fill:#000000;fill-opacity:1;fill-rule:nonzero;stroke:none"
         id="text154"><tspan
           x="0 11.316 17.988001 24.66 30.66 33.324001 36.647999"
           y="0"
           id="tspan152">Website</tspan></text><text
         transform="matrix(1,0,0,-1,-378.64,324)"
         style="font-variant:normal;font-weight:normal;font-size:12px;font-family:Arial;-inkscape-font-specification:ArialMT;writing-mode:lr-tb;fill:#000000;fill-opacity:1;fill-rule:nonzero;stroke:none"
         id="text158"><tspan
           x="0 7.9920001 11.988 18.66 24.66 30.66 37.332001 44.004002 48"
           y="0"
           id="tspan156">Broschüre</tspan></text><text
         transform="matrix(1,0,0,-1,-348.73,472.79)"
         style="font-variant:normal;font-weight:normal;font-size:12px;font-family:Arial;-inkscape-font-specification:ArialMT;writing-mode:lr-tb;fill:#000000;fill-opacity:1;fill-rule:nonzero;stroke:none"
         id="text162"><tspan
           x="0 7.3200002 9.9840002 15.984 22.656"
           y="0"
           id="tspan160">Flyer</tspan></text><text
         transform="matrix(1,0,0,-1,-346.4,-153.08)"
         style="font-variant:normal;font-weight:normal;font-size:12px;font-family:Arial;-inkscape-font-specification:ArialMT;writing-mode:lr-tb;fill:#000000;fill-opacity:1;fill-rule:nonzero;stroke:none"
         id="text166"><tspan
           x="0 9.3240004 13.32 15.984 22.656 29.327999 32.652 35.316002 41.987999 45.984001 52.655998 59.327999 66 69.323997 71.987999 81.984001 85.307999 96.624001 103.296 105.96"
           y="0"
           id="tspan164">Orientierung im Wald</tspan></text><text
         transform="matrix(1,0,0,-1,-449.01,-349.74)"
         style="font-variant:normal;font-weight:normal;font-size:12px;font-family:Arial;-inkscape-font-specification:ArialMT;writing-mode:lr-tb;fill:#000000;fill-opacity:1;fill-rule:nonzero;stroke:none"
         id="text170"><tspan
           x="0 11.316 17.988001 24.66 30.66 33.324001 36.647999"
           y="0"
           id="tspan168">Website</tspan></text><text
         transform="matrix(1,0,0,-1,-523.1,-201.39)"
         style="font-variant:normal;font-weight:normal;font-size:12px;font-family:Arial;-inkscape-font-specification:ArialMT;writing-mode:lr-tb;fill:#000000;fill-opacity:1;fill-rule:nonzero;stroke:none"
         id="text174"><tspan
           x="0 7.3200002 9.9840002 15.984 22.656"
           y="0"
           id="tspan172">Flyer</tspan></text><text
         transform="matrix(1,0,0,-1,-175.44,-298.18)"
         style="font-variant:normal;font-weight:normal;font-size:12px;font-family:Arial;-inkscape-font-specification:ArialMT;writing-mode:lr-tb;fill:#000000;fill-opacity:1;fill-rule:nonzero;stroke:none"
         id="text178"><tspan
           x="0 8.6639996 11.328 17.327999 20.652 27.323999 31.32 33.984001"
           y="0"
           id="tspan176">Historie</tspan></text><text
         transform="matrix(1,0,0,-1,-251.94,-569.16)"
         style="font-variant:normal;font-weight:normal;font-size:12px;font-family:Arial;-inkscape-font-specification:ArialMT;writing-mode:lr-tb;fill:#000000;fill-opacity:1;fill-rule:nonzero;stroke:none"
         id="text182"><tspan
           x="0 11.316 17.988001 24.66 30.66 33.324001 36.647999"
           y="0"
           id="tspan180">Website</tspan></text><text
         transform="matrix(1,0,0,-1,-320.02,-438.47)"
         style="font-variant:normal;font-weight:normal;font-size:12px;font-family:Arial;-inkscape-font-specification:ArialMT;writing-mode:lr-tb;fill:#000000;fill-opacity:1;fill-rule:nonzero;stroke:none"
         id="text186"><tspan
           x="0 7.3200002 13.992 17.316 23.988001"
           y="0"
           id="tspan184">Tafel</tspan></text><text
         transform="matrix(1,0,0,-1,-118.44,-490.71)"
         style="font-variant:normal;font-weight:normal;font-size:12px;font-family:Arial;-inkscape-font-specification:ArialMT;writing-mode:lr-tb;fill:#000000;fill-opacity:1;fill-rule:nonzero;stroke:none"
         id="text190"><tspan
           x="0 7.9920001 11.988 18.66 24.66 30.66 37.332001 44.004002 48"
           y="0"
           id="tspan188">Broschüre</tspan></text><text
         transform="matrix(1,0,0,-1,207.09,-146.98)"
         style="font-variant:normal;font-weight:normal;font-size:12px;font-family:Arial;-inkscape-font-specification:ArialMT;writing-mode:lr-tb;fill:#000000;fill-opacity:1;fill-rule:nonzero;stroke:none"
         id="text194"><tspan
           x="0 7.9920001 10.656 13.32 19.992001 26.664 30.66 33.324001 39.995998 46.667999 53.34 60.012001 66.683998 69.348 73.344002 80.015999"
           y="0"
           id="tspan192">Eilenriedebeirat</tspan></text><text
         transform="matrix(1,0,0,-1,458.56,-169.71)"
         style="font-variant:normal;font-weight:normal;font-size:12px;font-family:Arial;-inkscape-font-specification:ArialMT;writing-mode:lr-tb;fill:#000000;fill-opacity:1;fill-rule:nonzero;stroke:none"
         id="text198"><tspan
           x="0 11.316 17.988001 24.66 30.66 33.324001 36.647999"
           y="0"
           id="tspan196">Website</tspan></text><text
         transform="matrix(1,0,0,-1,234.42,-378.37)"
         style="font-variant:normal;font-weight:normal;font-size:12px;font-family:Arial;-inkscape-font-specification:ArialMT;writing-mode:lr-tb;fill:#000000;fill-opacity:1;fill-rule:nonzero;stroke:none"
         id="text202"><tspan
           x="0 7.9920001 11.988 18.66 24.66 30.66 37.332001 44.004002 48"
           y="0"
           id="tspan200">Broschüre</tspan></text><text
         transform="matrix(1,0,0,-1,343.63,-305.41)"
         style="font-variant:normal;font-weight:normal;font-size:12px;font-family:Arial;-inkscape-font-specification:ArialMT;writing-mode:lr-tb;fill:#000000;fill-opacity:1;fill-rule:nonzero;stroke:none"
         id="text206"><tspan
           x="0 7.9920001 14.664 18.66 25.332001 28.656 31.98 38.652 45.324001 48.647999 51.312 53.976002 59.976002 66.648003 73.32 79.991997"
           y="0"
           id="tspan204">Veröffentlichung</tspan></text><text
         transform="matrix(1,0,0,-1,62.98,219.17)"
         style="font-variant:normal;font-weight:normal;font-size:12px;font-family:Arial;-inkscape-font-specification:ArialMT;writing-mode:lr-tb;fill:#000000;fill-opacity:1;fill-rule:nonzero;stroke:none"
         id="text210"><tspan
           x="0 11.316 17.988001 20.652 27.323999 33.324001 36.647999 43.32 46.644001 49.307999 55.98"
           y="0"
           id="tspan208">Waldstation</tspan></text><text
         transform="matrix(1,0,0,-1,30.3,535.56)"
         style="font-variant:normal;font-weight:normal;font-size:12px;font-family:Arial;-inkscape-font-specification:ArialMT;writing-mode:lr-tb;fill:#000000;fill-opacity:1;fill-rule:nonzero;stroke:none"
         id="text214"><tspan
           x="0 11.316 17.988001 24.66 30.66 33.324001 36.647999"
           y="0"
           id="tspan212">Website</tspan></text><text
         transform="matrix(1,0,0,-1,296.32,468.21)"
         style="font-variant:normal;font-weight:normal;font-size:12px;font-family:Arial;-inkscape-font-specification:ArialMT;writing-mode:lr-tb;fill:#000000;fill-opacity:1;fill-rule:nonzero;stroke:none"
         id="text218"><tspan
           x="0 7.3200002 9.9840002 15.984 22.656"
           y="0"
           id="tspan216">Flyer</tspan></text><text
         transform="matrix(1,0,0,-1,281.62,310.01)"
         style="font-variant:normal;font-weight:normal;font-size:12px;font-family:Arial;-inkscape-font-specification:ArialMT;writing-mode:lr-tb;fill:#000000;fill-opacity:1;fill-rule:nonzero;stroke:none"
         id="text222"><tspan
           x="0 7.9920001 14.664 18.66 21.983999"
           y="0"
           id="tspan220">Karte</tspan></text><text
         transform="matrix(1,0,0,-1,134.73,428.13)"
         style="font-variant:normal;font-weight:normal;font-size:12px;font-family:Arial;-inkscape-font-specification:ArialMT;writing-mode:lr-tb;fill:#000000;fill-opacity:1;fill-rule:nonzero;stroke:none"
         id="text226"><tspan
           x="0 7.9920001 11.988 18.66 24.66 30.66 37.332001 44.004002 48"
           y="0"
           id="tspan224">Broschüre</tspan></text><text
         transform="matrix(1,0,0,-1,-62.04,407.41)"
         style="font-variant:normal;font-weight:normal;font-size:12px;font-family:Arial;-inkscape-font-specification:ArialMT;writing-mode:lr-tb;fill:#000000;fill-opacity:1;fill-rule:nonzero;stroke:none"
         id="text230"><tspan
           x="0 7.9920001 14.664 18.66 25.332001 28.656 31.98 38.652 45.324001 48.647999 51.312 53.976002 59.976002 66.648003 73.32 79.991997"
           y="0"
           id="tspan228">Veröffentlichung</tspan></text><text
         transform="matrix(1,0,0,-1,-368.09,69.95)"
         style="font-variant:normal;font-weight:normal;font-size:12px;font-family:Arial;-inkscape-font-specification:ArialMT;writing-mode:lr-tb;fill:#000000;fill-opacity:1;fill-rule:nonzero;stroke:none"
         id="text234"><tspan
           x="0 7.9920001 14.664 21.336 25.332001 28.656 31.98 38.652 45.324001 51.995998 55.32 63.312 69.984001 78.648003 85.32 91.991997 98.664001 105.336"
           y="0"
           id="tspan232">Sport und Bewegung</tspan></text><text
         transform="matrix(1,0,0,-1,-669.96,87.3)"
         style="font-variant:normal;font-weight:normal;font-size:12px;font-family:Arial;-inkscape-font-specification:ArialMT;writing-mode:lr-tb;fill:#000000;fill-opacity:1;fill-rule:nonzero;stroke:none"
         id="text238"><tspan
           x="0 11.316 17.988001 24.66 30.66 33.324001 36.647999"
           y="0"
           id="tspan236">Website</tspan></text><text
         transform="matrix(1,0,0,-1,-519.78,-21.92)"
         style="font-variant:normal;font-weight:normal;font-size:12px;font-family:Arial;-inkscape-font-specification:ArialMT;writing-mode:lr-tb;fill:#000000;fill-opacity:1;fill-rule:nonzero;stroke:none"
         id="text242"><tspan
           x="0 7.3200002 9.9840002 15.984 22.656"
           y="0"
           id="tspan240">Flyer</tspan></text><text
         transform="matrix(1,0,0,-1,-509.74,197.98)"
         style="font-variant:normal;font-weight:normal;font-size:12px;font-family:Arial;-inkscape-font-specification:ArialMT;writing-mode:lr-tb;fill:#000000;fill-opacity:1;fill-rule:nonzero;stroke:none"
         id="text246"><tspan
           x="0 7.9920001 14.664 18.66 21.983999"
           y="0"
           id="tspan244">Karte</tspan></text><text
         transform="matrix(1,0,0,-1,231.07,54.03)"
         style="font-variant:normal;font-weight:normal;font-size:12px;font-family:Arial;-inkscape-font-specification:ArialMT;writing-mode:lr-tb;fill:#000000;fill-opacity:1;fill-rule:nonzero;stroke:none"
         id="text250"><tspan
           x="0 7.3200002 13.992 17.988001 23.988001 27.312 35.976002 38.639999 42.636002 45.959999 51.959999 57.959999 64.632004 71.304001 74.627998"
           y="0"
           id="tspan248">Forstwirtschaft</tspan></text><text
         transform="matrix(1,0,0,-1,411.28,-7.57)"
         style="font-variant:normal;font-weight:normal;font-size:12px;font-family:Arial;-inkscape-font-specification:ArialMT;writing-mode:lr-tb;fill:#000000;fill-opacity:1;fill-rule:nonzero;stroke:none"
         id="text254"><tspan
           x="0 7.9920001 14.664 18.66 25.332001 28.656 31.98 38.652 45.324001 48.647999 51.312 53.976002 59.976002 66.648003 73.32 79.991997"
           y="0"
           id="tspan252">Veröffentlichung</tspan></text><text
         transform="matrix(1,0,0,-1,416.52,186.06)"
         style="font-variant:normal;font-weight:normal;font-size:12px;font-family:Arial;-inkscape-font-specification:ArialMT;writing-mode:lr-tb;fill:#000000;fill-opacity:1;fill-rule:nonzero;stroke:none"
         id="text258"><tspan
           x="0 11.316 17.988001 24.66 30.66 33.324001 36.647999"
           y="0"
           id="tspan256">Website</tspan></text><text
         transform="matrix(1,0,0,-1,56.21,-301)"
         style="font-variant:normal;font-weight:normal;font-size:12px;font-family:Arial;-inkscape-font-specification:ArialMT;writing-mode:lr-tb;fill:#000000;fill-opacity:1;fill-rule:nonzero;stroke:none"
         id="text262"><tspan
           x="0 7.9920001 14.664 21.336 27.336 30.66 33.324001 39.995998"
           y="0"
           id="tspan260">Sonstige</tspan></text><text
         transform="matrix(1,0,0,-1,75.03,-486.13)"
         style="font-variant:normal;font-weight:normal;font-size:12px;font-family:Arial;-inkscape-font-specification:ArialMT;writing-mode:lr-tb;fill:#000000;fill-opacity:1;fill-rule:nonzero;stroke:none"
         id="text266"><tspan
           x="0 7.9920001 11.988 18.66 24.66 30.66 37.332001 44.004002 48"
           y="0"
           id="tspan264">Broschüre</tspan></text></g></g></svg>
