<?xml version="1.0" encoding="UTF-8" standalone="no"?>
<svg
   xmlns:dc="http://purl.org/dc/elements/1.1/"
   xmlns:cc="http://creativecommons.org/ns#"
   xmlns:rdf="http://www.w3.org/1999/02/22-rdf-syntax-ns#"
   xmlns:svg="http://www.w3.org/2000/svg"
   xmlns="http://www.w3.org/2000/svg"
   version="1.1"
   id="svg2"
   xml:space="preserve"
   width="793.33331"
   height="1122.6667"
   viewBox="0 0 793.33331 1122.6667"><metadata
     id="metadata8"><rdf:RDF><cc:Work
         rdf:about=""><dc:format>image/svg+xml</dc:format><dc:type
           rdf:resource="http://purl.org/dc/dcmitype/StillImage" /></cc:Work></rdf:RDF></metadata><defs
     id="defs6" /><g
     id="g10"
     transform="matrix(1.3333333,0,0,-1.3333333,0,1122.6667)"><g
       id="g12"><g
         id="g14"><path
           d="M 0,0 H 595 V 842 H 0 Z"
           style="fill:#ffffff;fill-opacity:1;fill-rule:nonzero;stroke:none"
           id="path16" /></g></g><g
       id="g18" /><g
       id="g20"
       transform="translate(331.03,375.17)"><path
         d="m -39.26,18.63 -142.62,97.59"
         style="fill:none;stroke:#49adaf;stroke-width:1;stroke-linecap:butt;stroke-linejoin:miter;stroke-miterlimit:10;stroke-dasharray:none;stroke-opacity:1"
         id="path22" /><path
         d="m -181.88,116.22 -36.92,94.55"
         style="fill:none;stroke:#50b25d;stroke-width:1;stroke-linecap:butt;stroke-linejoin:miter;stroke-miterlimit:10;stroke-dasharray:none;stroke-opacity:1"
         id="path24" /><path
         d="m -181.88,116.22 76.48,56.3"
         style="fill:none;stroke:#50b25d;stroke-width:1;stroke-linecap:butt;stroke-linejoin:miter;stroke-miterlimit:10;stroke-dasharray:none;stroke-opacity:1"
         id="path26" /><path
         d="m -181.88,116.22 -94.68,-35.4"
         style="fill:none;stroke:#50b25d;stroke-width:1;stroke-linecap:butt;stroke-linejoin:miter;stroke-miterlimit:10;stroke-dasharray:none;stroke-opacity:1"
         id="path28" /><path
         d="m -181.88,116.22 -100.57,41.86"
         style="fill:none;stroke:#50b25d;stroke-width:1;stroke-linecap:butt;stroke-linejoin:miter;stroke-miterlimit:10;stroke-dasharray:none;stroke-opacity:1"
         id="path30" /><path
         d="m -39.26,18.63 -4.99,201.9"
         style="fill:none;stroke:#49adaf;stroke-width:1;stroke-linecap:butt;stroke-linejoin:miter;stroke-miterlimit:10;stroke-dasharray:none;stroke-opacity:1"
         id="path32" /><path
         d="m -44.25,220.53 -101.51,80.06"
         style="fill:none;stroke:#50b25d;stroke-width:1;stroke-linecap:butt;stroke-linejoin:miter;stroke-miterlimit:10;stroke-dasharray:none;stroke-opacity:1"
         id="path34" /><path
         d="M -44.25,220.53 -65.98,378.64"
         style="fill:none;stroke:#50b25d;stroke-width:1;stroke-linecap:butt;stroke-linejoin:miter;stroke-miterlimit:10;stroke-dasharray:none;stroke-opacity:1"
         id="path36" /><path
         d="M -44.25,220.53 34.64,323.37"
         style="fill:none;stroke:#50b25d;stroke-width:1;stroke-linecap:butt;stroke-linejoin:miter;stroke-miterlimit:10;stroke-dasharray:none;stroke-opacity:1"
         id="path38" /><path
         d="M -44.25,220.53 63.28,242"
         style="fill:none;stroke:#50b25d;stroke-width:1;stroke-linecap:butt;stroke-linejoin:miter;stroke-miterlimit:10;stroke-dasharray:none;stroke-opacity:1"
         id="path40" /><path
         d="M -39.26,18.63 80.95,153.11"
         style="fill:none;stroke:#49adaf;stroke-width:1;stroke-linecap:butt;stroke-linejoin:miter;stroke-miterlimit:10;stroke-dasharray:none;stroke-opacity:1"
         id="path42" /><path
         d="m 80.95,153.11 66.13,114.96"
         style="fill:none;stroke:#50b25d;stroke-width:1;stroke-linecap:butt;stroke-linejoin:miter;stroke-miterlimit:10;stroke-dasharray:none;stroke-opacity:1"
         id="path44" /><path
         d="m 80.95,153.11 105.25,9.92"
         style="fill:none;stroke:#50b25d;stroke-width:1;stroke-linecap:butt;stroke-linejoin:miter;stroke-miterlimit:10;stroke-dasharray:none;stroke-opacity:1"
         id="path46" /><path
         d="m 80.95,153.11 113.43,73.85"
         style="fill:none;stroke:#50b25d;stroke-width:1;stroke-linecap:butt;stroke-linejoin:miter;stroke-miterlimit:10;stroke-dasharray:none;stroke-opacity:1"
         id="path48" /><path
         d="m -39.26,18.63 -145.01,-3.6"
         style="fill:none;stroke:#49adaf;stroke-width:1;stroke-linecap:butt;stroke-linejoin:miter;stroke-miterlimit:10;stroke-dasharray:none;stroke-opacity:1"
         id="path50" /><path
         d="m -184.27,15.03 -89.94,-2.06"
         style="fill:none;stroke:#50b25d;stroke-width:1;stroke-linecap:butt;stroke-linejoin:miter;stroke-miterlimit:10;stroke-dasharray:none;stroke-opacity:1"
         id="path52" /><path
         d="M -39.26,18.63 108.95,18.09"
         style="fill:none;stroke:#49adaf;stroke-width:1;stroke-linecap:butt;stroke-linejoin:miter;stroke-miterlimit:10;stroke-dasharray:none;stroke-opacity:1"
         id="path54" /><path
         d="m 108.95,18.09 65.98,78.95"
         style="fill:none;stroke:#50b25d;stroke-width:1;stroke-linecap:butt;stroke-linejoin:miter;stroke-miterlimit:10;stroke-dasharray:none;stroke-opacity:1"
         id="path56" /><path
         d="M 108.95,18.09 214.34,32.82"
         style="fill:none;stroke:#50b25d;stroke-width:1;stroke-linecap:butt;stroke-linejoin:miter;stroke-miterlimit:10;stroke-dasharray:none;stroke-opacity:1"
         id="path58" /><path
         d="m 108.95,18.09 59.63,-59.37"
         style="fill:none;stroke:#50b25d;stroke-width:1;stroke-linecap:butt;stroke-linejoin:miter;stroke-miterlimit:10;stroke-dasharray:none;stroke-opacity:1"
         id="path60" /><path
         d="m -39.26,18.63 2.58,-145.96"
         style="fill:none;stroke:#49adaf;stroke-width:1;stroke-linecap:butt;stroke-linejoin:miter;stroke-miterlimit:10;stroke-dasharray:none;stroke-opacity:1"
         id="path62" /><path
         d="m -36.68,-127.33 -62.16,88.62"
         style="fill:none;stroke:#50b25d;stroke-width:1;stroke-linecap:butt;stroke-linejoin:miter;stroke-miterlimit:10;stroke-dasharray:none;stroke-opacity:1"
         id="path64" /><path
         d="m -36.68,-127.33 1.66,-160.86"
         style="fill:none;stroke:#50b25d;stroke-width:1;stroke-linecap:butt;stroke-linejoin:miter;stroke-miterlimit:10;stroke-dasharray:none;stroke-opacity:1"
         id="path66" /><path
         d="M -36.68,-127.33 93.16,-92.56"
         style="fill:none;stroke:#50b25d;stroke-width:1;stroke-linecap:butt;stroke-linejoin:miter;stroke-miterlimit:10;stroke-dasharray:none;stroke-opacity:1"
         id="path68" /><path
         d="m -36.68,-127.33 149.51,-46.16"
         style="fill:none;stroke:#50b25d;stroke-width:1;stroke-linecap:butt;stroke-linejoin:miter;stroke-miterlimit:10;stroke-dasharray:none;stroke-opacity:1"
         id="path70" /><path
         d="M -36.68,-127.33 51.44,-240.06"
         style="fill:none;stroke:#50b25d;stroke-width:1;stroke-linecap:butt;stroke-linejoin:miter;stroke-miterlimit:10;stroke-dasharray:none;stroke-opacity:1"
         id="path72" /><path
         d="M -36.68,-127.33 -176,-172.12"
         style="fill:none;stroke:#50b25d;stroke-width:1;stroke-linecap:butt;stroke-linejoin:miter;stroke-miterlimit:10;stroke-dasharray:none;stroke-opacity:1"
         id="path74" /><path
         d="M -36.68,-127.33 -167.91,-93.4"
         style="fill:none;stroke:#50b25d;stroke-width:1;stroke-linecap:butt;stroke-linejoin:miter;stroke-miterlimit:10;stroke-dasharray:none;stroke-opacity:1"
         id="path76" /><path
         d="m -36.68,-127.33 68.83,93.56"
         style="fill:none;stroke:#50b25d;stroke-width:1;stroke-linecap:butt;stroke-linejoin:miter;stroke-miterlimit:10;stroke-dasharray:none;stroke-opacity:1"
         id="path78" /><path
         d="m -36.68,-127.33 -99.86,-117.2"
         style="fill:none;stroke:#50b25d;stroke-width:1;stroke-linecap:butt;stroke-linejoin:miter;stroke-miterlimit:10;stroke-dasharray:none;stroke-opacity:1"
         id="path80" /><path
         d="m -9.26,18.63 c 0,16.57 -13.43,30 -30,30 -16.57,0 -30,-13.43 -30,-30 0,-16.57 13.43,-30 30,-30 16.57,0 30,13.43 30,30"
         style="fill:#549ada;fill-opacity:1;fill-rule:nonzero;stroke:#000000;stroke-width:1;stroke-linecap:butt;stroke-linejoin:miter;stroke-miterlimit:10;stroke-dasharray:none;stroke-opacity:1"
         id="path82" /><path
         d="m -151.88,116.22 c 0,16.57 -13.43,30 -30,30 -16.57,0 -30,-13.43 -30,-30 0,-16.57 13.43,-30 30,-30 16.57,0 30,13.43 30,30"
         style="fill:#3ec084;fill-opacity:1;fill-rule:nonzero;stroke:#000000;stroke-width:1;stroke-linecap:butt;stroke-linejoin:miter;stroke-miterlimit:10;stroke-dasharray:none;stroke-opacity:1"
         id="path84" /><path
         d="m -188.8,210.77 c 0,16.57 -13.43,30 -30,30 -16.57,0 -30,-13.43 -30,-30 0,-16.57 13.43,-30 30,-30 16.57,0 30,13.43 30,30"
         style="fill:#63a437;fill-opacity:1;fill-rule:nonzero;stroke:#000000;stroke-width:1;stroke-linecap:butt;stroke-linejoin:miter;stroke-miterlimit:10;stroke-dasharray:none;stroke-opacity:1"
         id="path86" /><path
         d="m -75.4,172.52 c 0,16.57 -13.44,30 -30,30 -16.57,0 -30,-13.43 -30,-30 0,-16.57 13.43,-30 30,-30 16.56,0 30,13.43 30,30"
         style="fill:#63a437;fill-opacity:1;fill-rule:nonzero;stroke:#000000;stroke-width:1;stroke-linecap:butt;stroke-linejoin:miter;stroke-miterlimit:10;stroke-dasharray:none;stroke-opacity:1"
         id="path88" /><path
         d="m -246.56,80.82 c 0,16.57 -13.43,30 -30,30 -16.57,0 -30,-13.43 -30,-30 0,-16.57 13.43,-30 30,-30 16.57,0 30,13.43 30,30"
         style="fill:#63a437;fill-opacity:1;fill-rule:nonzero;stroke:#000000;stroke-width:1;stroke-linecap:butt;stroke-linejoin:miter;stroke-miterlimit:10;stroke-dasharray:none;stroke-opacity:1"
         id="path90" /><path
         d="m -252.45,158.08 c 0,16.57 -13.43,30 -30,30 -16.57,0 -30,-13.43 -30,-30 0,-16.57 13.43,-30 30,-30 16.57,0 30,13.43 30,30"
         style="fill:#63a437;fill-opacity:1;fill-rule:nonzero;stroke:#000000;stroke-width:1;stroke-linecap:butt;stroke-linejoin:miter;stroke-miterlimit:10;stroke-dasharray:none;stroke-opacity:1"
         id="path92" /><path
         d="m -14.25,220.53 c 0,16.57 -13.43,30 -30,30 -16.57,0 -30,-13.43 -30,-30 0,-16.57 13.43,-30 30,-30 16.57,0 30,13.43 30,30"
         style="fill:#3ec084;fill-opacity:1;fill-rule:nonzero;stroke:#000000;stroke-width:1;stroke-linecap:butt;stroke-linejoin:miter;stroke-miterlimit:10;stroke-dasharray:none;stroke-opacity:1"
         id="path94" /><path
         d="m -115.76,300.59 c 0,16.56 -13.43,30 -30,30 -16.57,0 -30,-13.44 -30,-30 0,-16.57 13.43,-30 30,-30 16.57,0 30,13.43 30,30"
         style="fill:#63a437;fill-opacity:1;fill-rule:nonzero;stroke:#000000;stroke-width:1;stroke-linecap:butt;stroke-linejoin:miter;stroke-miterlimit:10;stroke-dasharray:none;stroke-opacity:1"
         id="path96" /><path
         d="m -35.98,378.64 c 0,16.56 -13.43,30 -30,30 -16.57,0 -30,-13.44 -30,-30 0,-16.57 13.43,-30 30,-30 16.57,0 30,13.43 30,30"
         style="fill:#63a437;fill-opacity:1;fill-rule:nonzero;stroke:#000000;stroke-width:1;stroke-linecap:butt;stroke-linejoin:miter;stroke-miterlimit:10;stroke-dasharray:none;stroke-opacity:1"
         id="path98" /><path
         d="m 64.64,323.37 c 0,16.57 -13.43,30 -30,30 -16.57,0 -30,-13.43 -30,-30 0,-16.57 13.43,-30 30,-30 16.57,0 30,13.43 30,30"
         style="fill:#63a437;fill-opacity:1;fill-rule:nonzero;stroke:#000000;stroke-width:1;stroke-linecap:butt;stroke-linejoin:miter;stroke-miterlimit:10;stroke-dasharray:none;stroke-opacity:1"
         id="path100" /><path
         d="m 93.28,242 c 0,16.57 -13.43,30 -30,30 -16.57,0 -30,-13.43 -30,-30 0,-16.57 13.43,-30 30,-30 16.57,0 30,13.43 30,30"
         style="fill:#63a437;fill-opacity:1;fill-rule:nonzero;stroke:#000000;stroke-width:1;stroke-linecap:butt;stroke-linejoin:miter;stroke-miterlimit:10;stroke-dasharray:none;stroke-opacity:1"
         id="path102" /><path
         d="m 110.95,153.11 c 0,16.57 -13.43,30 -30,30 -16.57,0 -30,-13.43 -30,-30 0,-16.57 13.43,-30 30,-30 16.57,0 30,13.43 30,30"
         style="fill:#3ec084;fill-opacity:1;fill-rule:nonzero;stroke:#000000;stroke-width:1;stroke-linecap:butt;stroke-linejoin:miter;stroke-miterlimit:10;stroke-dasharray:none;stroke-opacity:1"
         id="path104" /><path
         d="m 177.08,268.07 c 0,16.57 -13.43,30 -30,30 -16.56,0 -30,-13.43 -30,-30 0,-16.57 13.44,-30 30,-30 16.57,0 30,13.43 30,30"
         style="fill:#63a437;fill-opacity:1;fill-rule:nonzero;stroke:#000000;stroke-width:1;stroke-linecap:butt;stroke-linejoin:miter;stroke-miterlimit:10;stroke-dasharray:none;stroke-opacity:1"
         id="path106" /><path
         d="m 216.2,163.03 c 0,16.57 -13.43,30 -30,30 -16.57,0 -30,-13.43 -30,-30 0,-16.57 13.43,-30 30,-30 16.57,0 30,13.43 30,30"
         style="fill:#63a437;fill-opacity:1;fill-rule:nonzero;stroke:#000000;stroke-width:1;stroke-linecap:butt;stroke-linejoin:miter;stroke-miterlimit:10;stroke-dasharray:none;stroke-opacity:1"
         id="path108" /><path
         d="m 224.38,226.96 c 0,16.57 -13.43,30 -30,30 -16.57,0 -30,-13.43 -30,-30 0,-16.57 13.43,-30 30,-30 16.57,0 30,13.43 30,30"
         style="fill:#63a437;fill-opacity:1;fill-rule:nonzero;stroke:#000000;stroke-width:1;stroke-linecap:butt;stroke-linejoin:miter;stroke-miterlimit:10;stroke-dasharray:none;stroke-opacity:1"
         id="path110" /><path
         d="m -154.27,15.03 c 0,16.57 -13.43,30 -30,30 -16.57,0 -30,-13.43 -30,-30 0,-16.57 13.43,-30 30,-30 16.57,0 30,13.43 30,30"
         style="fill:#3ec084;fill-opacity:1;fill-rule:nonzero;stroke:#000000;stroke-width:1;stroke-linecap:butt;stroke-linejoin:miter;stroke-miterlimit:10;stroke-dasharray:none;stroke-opacity:1"
         id="path112" /><path
         d="m -244.21,12.97 c 0,16.57 -13.43,30 -30,30 -16.57,0 -30,-13.43 -30,-30 0,-16.57 13.43,-30 30,-30 16.57,0 30,13.43 30,30"
         style="fill:#63a437;fill-opacity:1;fill-rule:nonzero;stroke:#000000;stroke-width:1;stroke-linecap:butt;stroke-linejoin:miter;stroke-miterlimit:10;stroke-dasharray:none;stroke-opacity:1"
         id="path114" /><path
         d="m 138.95,18.09 c 0,16.57 -13.43,30 -30,30 -16.57,0 -30,-13.43 -30,-30 0,-16.57 13.43,-30 30,-30 16.57,0 30,13.43 30,30"
         style="fill:#3ec084;fill-opacity:1;fill-rule:nonzero;stroke:#000000;stroke-width:1;stroke-linecap:butt;stroke-linejoin:miter;stroke-miterlimit:10;stroke-dasharray:none;stroke-opacity:1"
         id="path116" /><path
         d="m 204.93,97.04 c 0,16.57 -13.43,30 -30,30 -16.57,0 -30,-13.43 -30,-30 0,-16.57 13.43,-30 30,-30 16.57,0 30,13.43 30,30"
         style="fill:#63a437;fill-opacity:1;fill-rule:nonzero;stroke:#000000;stroke-width:1;stroke-linecap:butt;stroke-linejoin:miter;stroke-miterlimit:10;stroke-dasharray:none;stroke-opacity:1"
         id="path118" /><path
         d="m 244.34,32.82 c 0,16.57 -13.43,30 -30,30 -16.57,0 -30,-13.43 -30,-30 0,-16.57 13.43,-30 30,-30 16.57,0 30,13.43 30,30"
         style="fill:#63a437;fill-opacity:1;fill-rule:nonzero;stroke:#000000;stroke-width:1;stroke-linecap:butt;stroke-linejoin:miter;stroke-miterlimit:10;stroke-dasharray:none;stroke-opacity:1"
         id="path120" /><path
         d="m 198.58,-41.28 c 0,16.57 -13.44,30 -30,30 -16.57,0 -30,-13.43 -30,-30 0,-16.57 13.43,-30 30,-30 16.56,0 30,13.43 30,30"
         style="fill:#63a437;fill-opacity:1;fill-rule:nonzero;stroke:#000000;stroke-width:1;stroke-linecap:butt;stroke-linejoin:miter;stroke-miterlimit:10;stroke-dasharray:none;stroke-opacity:1"
         id="path122" /><path
         d="m -6.68,-127.33 c 0,16.57 -13.43,30 -30,30 -16.57,0 -30,-13.43 -30,-30 0,-16.57 13.43,-30 30,-30 16.57,0 30,13.43 30,30"
         style="fill:#3ec084;fill-opacity:1;fill-rule:nonzero;stroke:#000000;stroke-width:1;stroke-linecap:butt;stroke-linejoin:miter;stroke-miterlimit:10;stroke-dasharray:none;stroke-opacity:1"
         id="path124" /><path
         d="m -68.84,-38.71 c 0,16.57 -13.43,30 -30,30 -16.57,0 -30,-13.43 -30,-30 0,-16.57 13.43,-30 30,-30 16.57,0 30,13.43 30,30"
         style="fill:#63a437;fill-opacity:1;fill-rule:nonzero;stroke:#000000;stroke-width:1;stroke-linecap:butt;stroke-linejoin:miter;stroke-miterlimit:10;stroke-dasharray:none;stroke-opacity:1"
         id="path126" /><path
         d="m -5.02,-288.19 c 0,16.57 -13.43,30 -30,30 -16.57,0 -30,-13.43 -30,-30 0,-16.57 13.43,-30 30,-30 16.57,0 30,13.43 30,30"
         style="fill:#63a437;fill-opacity:1;fill-rule:nonzero;stroke:#000000;stroke-width:1;stroke-linecap:butt;stroke-linejoin:miter;stroke-miterlimit:10;stroke-dasharray:none;stroke-opacity:1"
         id="path128" /><path
         d="m 123.16,-92.56 c 0,16.57 -13.43,30 -30,30 -16.57,0 -30,-13.43 -30,-30 0,-16.57 13.43,-30 30,-30 16.57,0 30,13.43 30,30"
         style="fill:#63a437;fill-opacity:1;fill-rule:nonzero;stroke:#000000;stroke-width:1;stroke-linecap:butt;stroke-linejoin:miter;stroke-miterlimit:10;stroke-dasharray:none;stroke-opacity:1"
         id="path130" /><path
         d="m 142.83,-173.49 c 0,16.57 -13.43,30 -30,30 -16.57,0 -30,-13.43 -30,-30 0,-16.57 13.43,-30 30,-30 16.57,0 30,13.43 30,30"
         style="fill:#63a437;fill-opacity:1;fill-rule:nonzero;stroke:#000000;stroke-width:1;stroke-linecap:butt;stroke-linejoin:miter;stroke-miterlimit:10;stroke-dasharray:none;stroke-opacity:1"
         id="path132" /><path
         d="m 81.44,-240.06 c 0,16.57 -13.43,30 -30,30 -16.57,0 -30,-13.43 -30,-30 0,-16.57 13.43,-30 30,-30 16.57,0 30,13.43 30,30"
         style="fill:#63a437;fill-opacity:1;fill-rule:nonzero;stroke:#000000;stroke-width:1;stroke-linecap:butt;stroke-linejoin:miter;stroke-miterlimit:10;stroke-dasharray:none;stroke-opacity:1"
         id="path134" /><path
         d="m -146,-172.12 c 0,16.57 -13.43,30 -30,30 -16.56,0 -30,-13.43 -30,-30 0,-16.57 13.44,-30 30,-30 16.57,0 30,13.43 30,30"
         style="fill:#63a437;fill-opacity:1;fill-rule:nonzero;stroke:#000000;stroke-width:1;stroke-linecap:butt;stroke-linejoin:miter;stroke-miterlimit:10;stroke-dasharray:none;stroke-opacity:1"
         id="path136" /><path
         d="m -137.91,-93.4 c 0,16.57 -13.43,30 -30,30 -16.57,0 -30,-13.43 -30,-30 0,-16.57 13.43,-30 30,-30 16.57,0 30,13.43 30,30"
         style="fill:#63a437;fill-opacity:1;fill-rule:nonzero;stroke:#000000;stroke-width:1;stroke-linecap:butt;stroke-linejoin:miter;stroke-miterlimit:10;stroke-dasharray:none;stroke-opacity:1"
         id="path138" /><path
         d="m 62.15,-33.77 c 0,16.57 -13.44,30 -30,30 -16.57,0 -30,-13.43 -30,-30 0,-16.57 13.43,-30 30,-30 16.56,0 30,13.43 30,30"
         style="fill:#63a437;fill-opacity:1;fill-rule:nonzero;stroke:#000000;stroke-width:1;stroke-linecap:butt;stroke-linejoin:miter;stroke-miterlimit:10;stroke-dasharray:none;stroke-opacity:1"
         id="path140" /><path
         d="m -106.54,-244.53 c 0,16.56 -13.43,30 -30,30 -16.57,0 -30,-13.44 -30,-30 0,-16.57 13.43,-30 30,-30 16.57,0 30,13.43 30,30"
         style="fill:#63a437;fill-opacity:1;fill-rule:nonzero;stroke:#000000;stroke-width:1;stroke-linecap:butt;stroke-linejoin:miter;stroke-miterlimit:10;stroke-dasharray:none;stroke-opacity:1"
         id="path142" /><text
         transform="matrix(1,0,0,-1,-66.6,15.81)"
         style="font-variant:normal;font-weight:normal;font-size:8px;font-family:Arial;-inkscape-font-specification:ArialMT;writing-mode:lr-tb;fill:#000000;fill-opacity:1;fill-rule:nonzero;stroke:none"
         id="text146"><tspan
           x="0 5.776 10.224 14.224 18.672001 25.336 29.784 34.231998 36.448002 40.896 45.344002 49.792 52.456001"
           y="0"
           id="tspan144">Dokumentenart</tspan></text><text
         transform="matrix(1,0,0,-1,-200.1,113.38)"
         style="font-variant:normal;font-weight:normal;font-size:8px;font-family:Arial;-inkscape-font-specification:ArialMT;writing-mode:lr-tb;fill:#000000;fill-opacity:1;fill-rule:nonzero;stroke:none"
         id="text150"><tspan
           x="0 5.3280001 7.9920001 12.44 16.440001 20.440001 24.888 29.336 32"
           y="0"
           id="tspan148">Broschüre</tspan></text><text
         transform="matrix(1,0,0,-1,-312.35,208.42)"
         style="font-variant:normal;font-weight:normal;font-size:8px;font-family:Arial;-inkscape-font-specification:ArialMT;writing-mode:lr-tb;fill:#000000;fill-opacity:1;fill-rule:nonzero;stroke:none"
         id="text154"><tspan
           x="0 5.3280001 9.776 12.44 16.888 18.664 22.664 27.112 29.327999 34.208 38.655998 41.32 45.32 47.535999 51.984001 56.431999 58.647999 60.863998 65.311996 69.760002 74.208 78.655998 82.655998 86.655998 91.103996 95.552002 97.767998 99.984001 103.984 106.648 111.096 115.544 122.208 126.656 128.87199 133.32001 137.76801 142.216 144.43201 150.20799 154.65601 156.87199 161.32001 163.98399 167.98399 171.98399 176.43201 180.88 183.09599"
           y="0"
           id="tspan152">Bereich Forsten, Landschaftsräume und Naturschutz</tspan></text><text
         transform="matrix(1,0,0,-1,-220.28,170.45)"
         style="font-variant:normal;font-weight:normal;font-size:8px;font-family:Arial;-inkscape-font-specification:ArialMT;writing-mode:lr-tb;fill:#000000;fill-opacity:1;fill-rule:nonzero;stroke:none"
         id="text158"><tspan
           x="0 4.8800001 9.3280001 13.328 17.775999 22.224001 26.672001 29.336 33.784 35.560001 39.560001 44.007999 46.223999 52 58.664001 64.440002 68.888 70.664001 72.879997 75.096001 79.543999 83.991997 88.440002 90.655998 95.984001 98.199997 102.648 107.096 109.312 113.76 116.424 120.872 125.32 127.536 131.98399 136.43201 138.20799 142.65601 147.104 148.88 152.88 155.09599 160.87199 165.32001 167.09599 171.09599 175.54401 178.20799 182.20799 183.98399 186.2 190.64799 192.864 195.08 200.856 205.304 209.752 214.2 218.64799 222.64799 227.09599"
           y="0"
           id="tspan156">Fachbereich Umwelt und Stadtgrün/Leibniz Universität Hannover</tspan></text><text
         transform="matrix(1,0,0,-1,-316.33,78)"
         style="font-variant:normal;font-weight:normal;font-size:8px;font-family:Arial;-inkscape-font-specification:ArialMT;writing-mode:lr-tb;fill:#000000;fill-opacity:1;fill-rule:nonzero;stroke:none"
         id="text162"><tspan
           x="0 7.5440001 11.992 13.768 18.216 22.216 24.431999 28.879999 31.096001 32.872002 37.32 41.768002 43.984001 49.312 51.088001 52.863998 57.312 61.759998 64.424004 66.199997 70.648003 75.096001"
           y="0"
           id="tspan160">Waldstation Eilenriede</tspan></text><text
         transform="matrix(1,0,0,-1,-322.67,155.27)"
         style="font-variant:normal;font-weight:normal;font-size:8px;font-family:Arial;-inkscape-font-specification:ArialMT;writing-mode:lr-tb;fill:#000000;fill-opacity:1;fill-rule:nonzero;stroke:none"
         id="text166"><tspan
           x="0 5.776 12.44 18.216 22.664 24.440001 26.656 30.656 35.104 41.768002 48.431999 52.880001 57.327999 59.104 63.104 67.552002 69.767998 71.543999 75.991997"
           y="0"
           id="tspan164">Umweltkommunikation</tspan></text><text
         transform="matrix(1,0,0,-1,-53.14,218.51)"
         style="font-variant:normal;font-weight:normal;font-size:8px;font-family:Arial;-inkscape-font-specification:ArialMT;writing-mode:lr-tb;fill:#000000;fill-opacity:1;fill-rule:nonzero;stroke:none"
         id="text170"><tspan
           x="0 4.8800001 6.6560001 10.656 15.104"
           y="0"
           id="tspan168">Flyer</tspan></text><text
         transform="matrix(1,0,0,-1,-281.55,298.51)"
         style="font-variant:normal;font-weight:normal;font-size:8px;font-family:Arial;-inkscape-font-specification:ArialMT;writing-mode:lr-tb;fill:#000000;fill-opacity:1;fill-rule:nonzero;stroke:none"
         id="text174"><tspan
           x="0 4.8800001 9.3280001 13.328 17.775999 22.224001 26.672001 29.336 33.784 35.560001 39.560001 44.007999 46.223999 52 58.664001 64.440002 68.888 70.664001 72.879997 75.096001 79.543999 83.991997 88.440002 90.655998 95.984001 98.199997 102.648 107.096 109.312 113.76 116.424 120.872 125.32 127.536 132.416 136.864 140.864 145.312 149.75999 154.20799 156.87199 161.32001 163.09599 167.09599 171.54401 173.75999 179.088 180.864 185.312 189.75999 194.20799 198.65601 203.104 205.32001 209.76801 214.216 218.664 220.88 226.65601 231.104 235.552 242.216 246.664 249.328 253.776 258.224 262.672 267.12"
           y="0"
           id="tspan172">Fachbereich Umwelt und Stadtgrün/Fachbereich Planung und Raumordnung</tspan></text><text
         transform="matrix(1,0,0,-1,-159.53,376.29)"
         style="font-variant:normal;font-weight:normal;font-size:8px;font-family:Arial;-inkscape-font-specification:ArialMT;writing-mode:lr-tb;fill:#000000;fill-opacity:1;fill-rule:nonzero;stroke:none"
         id="text178"><tspan
           x="0 5.3280001 9.776 12.44 16.888 18.664 22.664 27.112 29.327999 34.208 38.655998 41.32 45.32 47.535999 51.984001 56.431999 58.647999 60.863998 65.311996 69.760002 74.208 78.655998 82.655998 86.655998 91.103996 95.552002 97.767998 99.984001 103.984 106.648 111.096 115.544 122.208 126.656 128.87199 133.32001 137.76801 142.216 144.43201 150.20799 154.65601 156.87199 161.32001 163.98399 167.98399 171.98399 176.43201 180.88 183.09599"
           y="0"
           id="tspan176">Bereich Forsten, Landschaftsräume und Naturschutz</tspan></text><text
         transform="matrix(1,0,0,-1,-5.14,320.56)"
         style="font-variant:normal;font-weight:normal;font-size:8px;font-family:Arial;-inkscape-font-specification:ArialMT;writing-mode:lr-tb;fill:#000000;fill-opacity:1;fill-rule:nonzero;stroke:none"
         id="text182"><tspan
           x="0 7.5440001 11.992 13.768 18.216 22.216 24.431999 28.879999 31.096001 32.872002 37.32 41.768002 43.984001 49.312 51.088001 52.863998 57.312 61.759998 64.424004 66.199997 70.648003 75.096001"
           y="0"
           id="tspan180">Waldstation Eilenriede</tspan></text><text
         transform="matrix(1,0,0,-1,0.62013,239.92)"
         style="font-variant:normal;font-weight:normal;font-size:8px;font-family:Arial;-inkscape-font-specification:ArialMT;writing-mode:lr-tb;fill:#000000;fill-opacity:1;fill-rule:nonzero;stroke:none"
         id="text186"><tspan
           x="0 4.8800001 9.3280001 13.328 17.775999 22.224001 26.672001 29.336 33.784 35.560001 39.560001 44.007999 46.223999 52 58.664001 64.440002 68.888 70.664001 72.879997 75.096001 79.543999 83.991997 88.440002 90.655998 95.984001 98.199997 102.648 107.096 109.312 113.76 116.424 120.872"
           y="0"
           id="tspan184">Fachbereich Umwelt und Stadtgrün</tspan></text><text
         transform="matrix(1,0,0,-1,71.4,150.29)"
         style="font-variant:normal;font-weight:normal;font-size:8px;font-family:Arial;-inkscape-font-specification:ArialMT;writing-mode:lr-tb;fill:#000000;fill-opacity:1;fill-rule:nonzero;stroke:none"
         id="text190"><tspan
           x="0 5.3280001 9.776 12.44 14.656"
           y="0"
           id="tspan188">Karte</tspan></text><text
         transform="matrix(1,0,0,-1,117.75,265.25)"
         style="font-variant:normal;font-weight:normal;font-size:8px;font-family:Arial;-inkscape-font-specification:ArialMT;writing-mode:lr-tb;fill:#000000;fill-opacity:1;fill-rule:nonzero;stroke:none"
         id="text194"><tspan
           x="0 5.3280001 9.776 11.992 16.440001 19.104 21.32 25.768 30.216 34.664001 39.112 43.112 47.560001 52.007999 56.456001"
           y="0"
           id="tspan192">Autor unbekannt</tspan></text><text
         transform="matrix(1,0,0,-1,123.54,160.95)"
         style="font-variant:normal;font-weight:normal;font-size:8px;font-family:Arial;-inkscape-font-specification:ArialMT;writing-mode:lr-tb;fill:#000000;fill-opacity:1;fill-rule:nonzero;stroke:none"
         id="text198"><tspan
           x="0 4.8800001 9.3280001 13.328 17.775999 22.224001 26.672001 29.336 33.784 35.560001 39.560001 44.007999 46.223999 52 58.664001 64.440002 68.888 70.664001 72.879997 75.096001 79.543999 83.991997 88.440002 90.655998 95.984001 98.199997 102.648 107.096 109.312 113.76 116.424 120.872"
           y="0"
           id="tspan196">Fachbereich Umwelt und Stadtgrün</tspan></text><text
         transform="matrix(1,0,0,-1,131.72,224.89)"
         style="font-variant:normal;font-weight:normal;font-size:8px;font-family:Arial;-inkscape-font-specification:ArialMT;writing-mode:lr-tb;fill:#000000;fill-opacity:1;fill-rule:nonzero;stroke:none"
         id="text202"><tspan
           x="0 4.8800001 9.3280001 13.328 17.775999 22.224001 26.672001 29.336 33.784 35.560001 39.560001 44.007999 46.223999 52 58.664001 64.440002 68.888 70.664001 72.879997 75.096001 79.543999 83.991997 88.440002 90.655998 95.984001 98.199997 102.648 107.096 109.312 113.76 116.424 120.872"
           y="0"
           id="tspan200">Fachbereich Umwelt und Stadtgrün</tspan></text><text
         transform="matrix(1,0,0,-1,-193.16,12.16)"
         style="font-variant:normal;font-weight:normal;font-size:8px;font-family:Arial;-inkscape-font-specification:ArialMT;writing-mode:lr-tb;fill:#000000;fill-opacity:1;fill-rule:nonzero;stroke:none"
         id="text206"><tspan
           x="0 4.8800001 9.3280001 11.544 15.992"
           y="0"
           id="tspan204">Tafel</tspan></text><text
         transform="matrix(1,0,0,-1,-303.55,10.16)"
         style="font-variant:normal;font-weight:normal;font-size:8px;font-family:Arial;-inkscape-font-specification:ArialMT;writing-mode:lr-tb;fill:#000000;fill-opacity:1;fill-rule:nonzero;stroke:none"
         id="text210"><tspan
           x="0 5.3280001 9.776 11.992 16.440001 19.104 21.32 25.768 30.216 34.664001 39.112 43.112 47.560001 52.007999 56.456001"
           y="0"
           id="tspan208">Autor unbekannt</tspan></text><text
         transform="matrix(1,0,0,-1,80.06,16.01)"
         style="font-variant:normal;font-weight:normal;font-size:8px;font-family:Arial;-inkscape-font-specification:ArialMT;writing-mode:lr-tb;fill:#000000;fill-opacity:1;fill-rule:nonzero;stroke:none"
         id="text214"><tspan
           x="0 5.3280001 9.776 12.44 16.888 19.104 21.32 25.768 30.216 32.431999 34.208 35.984001 39.984001 44.431999 48.880001 53.327999"
           y="0"
           id="tspan212">Veröffentlichung</tspan></text><text
         transform="matrix(1,0,0,-1,145.59,94.22)"
         style="font-variant:normal;font-weight:normal;font-size:8px;font-family:Arial;-inkscape-font-specification:ArialMT;writing-mode:lr-tb;fill:#000000;fill-opacity:1;fill-rule:nonzero;stroke:none"
         id="text218"><tspan
           x="0 5.3280001 9.776 11.992 16.440001 19.104 21.32 25.768 30.216 34.664001 39.112 43.112 47.560001 52.007999 56.456001"
           y="0"
           id="tspan216">Autor unbekannt</tspan></text><text
         transform="matrix(1,0,0,-1,174.57,30.01)"
         style="font-variant:normal;font-weight:normal;font-size:8px;font-family:Arial;-inkscape-font-specification:ArialMT;writing-mode:lr-tb;fill:#000000;fill-opacity:1;fill-rule:nonzero;stroke:none"
         id="text222"><tspan
           x="0 7.5440001 11.992 13.768 18.216 22.216 24.431999 28.879999 31.096001 32.872002 37.32 41.768002 43.984001 49.312 51.088001 52.863998 57.312 61.759998 64.424004 66.199997 70.648003 75.096001"
           y="0"
           id="tspan220">Waldstation Eilenriede</tspan></text><text
         transform="matrix(1,0,0,-1,105.92,-43.35)"
         style="font-variant:normal;font-weight:normal;font-size:8px;font-family:Arial;-inkscape-font-specification:ArialMT;writing-mode:lr-tb;fill:#000000;fill-opacity:1;fill-rule:nonzero;stroke:none"
         id="text226"><tspan
           x="0 4.8800001 9.3280001 13.328 17.775999 22.224001 26.672001 29.336 33.784 35.560001 39.560001 44.007999 46.223999 52 58.664001 64.440002 68.888 70.664001 72.879997 75.096001 79.543999 83.991997 88.440002 90.655998 95.984001 98.199997 102.648 107.096 109.312 113.76 116.424 120.872"
           y="0"
           id="tspan224">Fachbereich Umwelt und Stadtgrün</tspan></text><text
         transform="matrix(1,0,0,-1,-51.12,-130.15)"
         style="font-variant:normal;font-weight:normal;font-size:8px;font-family:Arial;-inkscape-font-specification:ArialMT;writing-mode:lr-tb;fill:#000000;fill-opacity:1;fill-rule:nonzero;stroke:none"
         id="text230"><tspan
           x="0 7.5440001 11.992 16.440001 20.440001 22.216 24.431999"
           y="0"
           id="tspan228">Website</tspan></text><text
         transform="matrix(1,0,0,-1,-135.05,-41.54)"
         style="font-variant:normal;font-weight:normal;font-size:8px;font-family:Arial;-inkscape-font-specification:ArialMT;writing-mode:lr-tb;fill:#000000;fill-opacity:1;fill-rule:nonzero;stroke:none"
         id="text234"><tspan
           x="0 7.5440001 11.992 13.768 18.216 22.664 25.327999 27.544001 31.992001 36.439999 40.888 43.104 47.984001 52.431999 55.096001 59.096001 61.312 65.760002 70.208"
           y="0"
           id="tspan232">Wälder und Forsten </tspan></text><text
         transform="matrix(1,0,0,-1,-171.92,-290.26)"
         style="font-variant:normal;font-weight:normal;font-size:8px;font-family:Arial;-inkscape-font-specification:ArialMT;writing-mode:lr-tb;fill:#000000;fill-opacity:1;fill-rule:nonzero;stroke:none"
         id="text238"><tspan
           x="0 4.8800001 9.3280001 13.328 17.775999 22.224001 26.672001 29.336 33.784 35.560001 39.560001 44.007999 46.223999 52 58.664001 64.440002 68.888 70.664001 72.879997 75.096001 79.543999 83.991997 88.440002 90.655998 95.984001 98.199997 102.648 107.096 109.312 113.76 116.424 120.872 125.32 127.536 132.416 136.864 140.864 145.312 149.75999 154.20799 156.87199 161.32001 163.09599 167.09599 171.54401 173.75999 179.088 180.864 185.312 189.75999 194.20799 198.65601 203.104 205.32001 209.76801 214.216 218.664 220.88 226.65601 231.104 235.552 242.216 246.664 249.328 253.776 258.224 262.672 267.12 271.56799"
           y="0"
           id="tspan236">Fachbereich Umwelt und Stadtgrün/Fachbereich Planung und Raumordnung </tspan></text><text
         transform="matrix(1,0,0,-1,62.71,-95.38)"
         style="font-variant:normal;font-weight:normal;font-size:8px;font-family:Arial;-inkscape-font-specification:ArialMT;writing-mode:lr-tb;fill:#000000;fill-opacity:1;fill-rule:nonzero;stroke:none"
         id="text242"><tspan
           x="0 5.3280001 9.776 11.992 16.440001 19.104 21.32 25.768 30.216 34.664001 39.112 43.112 47.560001 52.007999 56.456001 58.672001"
           y="0"
           id="tspan240">Autor unbekannt </tspan></text><text
         transform="matrix(1,0,0,-1,50.17,-175.56)"
         style="font-variant:normal;font-weight:normal;font-size:8px;font-family:Arial;-inkscape-font-specification:ArialMT;writing-mode:lr-tb;fill:#000000;fill-opacity:1;fill-rule:nonzero;stroke:none"
         id="text246"><tspan
           x="0 4.8800001 9.3280001 13.328 17.775999 22.224001 26.672001 29.336 33.784 35.560001 39.560001 44.007999 46.223999 52 58.664001 64.440002 68.888 70.664001 72.879997 75.096001 79.543999 83.991997 88.440002 90.655998 95.984001 98.199997 102.648 107.096 109.312 113.76 116.424 120.872"
           y="0"
           id="tspan244">Fachbereich Umwelt und Stadtgrün</tspan></text><text
         transform="matrix(1,0,0,-1,-6.99,-242.92)"
         style="font-variant:normal;font-weight:normal;font-size:8px;font-family:Arial;-inkscape-font-specification:ArialMT;writing-mode:lr-tb;fill:#000000;fill-opacity:1;fill-rule:nonzero;stroke:none"
         id="text250"><tspan
           x="0 6.2160001 10.664 14.664 18.664 23.112 27.559999 29.775999 31.992001 35.992001 39.992001 42.208 46.655998 48.431999 50.208 54.655998 56.872002 62.200001 63.976002 65.751999 70.199997 74.648003 77.311996 79.087997 83.536003 87.984001 92.431999 96.879997 101.328 103.104 105.768 110.216 112.432"
           y="0"
           id="tspan248">Geschäftsstelle Eilenriedebeirat </tspan></text><text
         transform="matrix(1,0,0,-1,-216.22,-174.93)"
         style="font-variant:normal;font-weight:normal;font-size:8px;font-family:Arial;-inkscape-font-specification:ArialMT;writing-mode:lr-tb;fill:#000000;fill-opacity:1;fill-rule:nonzero;stroke:none"
         id="text254"><tspan
           x="0 5.776 12.44 18.216 22.664 24.440001 26.656 30.656 35.104 41.768002 48.431999 52.880001 57.327999 59.104 63.104 67.552002 69.767998 71.543999 75.991997"
           y="0"
           id="tspan252">Umweltkommunikation</tspan></text><text
         transform="matrix(1,0,0,-1,-230.57,-95.47)"
         style="font-variant:normal;font-weight:normal;font-size:8px;font-family:Arial;-inkscape-font-specification:ArialMT;writing-mode:lr-tb;fill:#000000;fill-opacity:1;fill-rule:nonzero;stroke:none"
         id="text258"><tspan
           x="0 4.8800001 9.3280001 13.328 17.775999 22.224001 26.672001 29.336 33.784 35.560001 39.560001 44.007999 46.223999 52 58.664001 64.440002 68.888 70.664001 72.879997 75.096001 79.543999 83.991997 88.440002 90.655998 95.984001 98.199997 102.648 107.096 109.312 113.76 116.424 120.872"
           y="0"
           id="tspan256">Fachbereich Umwelt und Stadtgrün</tspan></text><text
         transform="matrix(1,0,0,-1,-20.52,-35.84)"
         style="font-variant:normal;font-weight:normal;font-size:8px;font-family:Arial;-inkscape-font-specification:ArialMT;writing-mode:lr-tb;fill:#000000;fill-opacity:1;fill-rule:nonzero;stroke:none"
         id="text262"><tspan
           x="0 4.448 8.8959999 11.112 15.56 20.007999 22.224001 24.888 27.104 32.431999 36.880001 39.096001 41.759998 43.535999 47.984001 52.431999 54.208 55.984001 59.984001 64.431999 68.879997 71.096001 76.424004 80.872002 83.087997 87.536003 91.984001 96.431999 100.88"
           y="0"
           id="tspan260">67.71 - Betriebliche Aufgaben</tspan></text><text
         transform="matrix(1,0,0,-1,-231.19,-246.88)"
         style="font-variant:normal;font-weight:normal;font-size:8px;font-family:Arial;-inkscape-font-specification:ArialMT;writing-mode:lr-tb;fill:#000000;fill-opacity:1;fill-rule:nonzero;stroke:none"
         id="text266"><tspan
           x="0 5.3280001 9.776 12.44 16.888 18.664 22.664 27.112 29.327999 34.208 38.655998 41.32 45.32 47.535999 51.984001 56.431999 58.647999 60.863998 65.311996 69.760002 74.208 78.655998 82.655998 86.655998 91.103996 95.552002 97.767998 99.984001 103.984 106.648 111.096 115.544 122.208 126.656 128.87199 133.32001 137.76801 142.216 144.43201 150.20799 154.65601 156.87199 161.32001 163.98399 167.98399 171.98399 176.43201 180.88 183.09599 187.09599"
           y="0"
           id="tspan264">Bereich Forsten, Landschaftsräume und Naturschutz </tspan></text></g></g></svg>
