<?xml version="1.0" encoding="UTF-8" standalone="no"?>
<svg
   xmlns:dc="http://purl.org/dc/elements/1.1/"
   xmlns:cc="http://creativecommons.org/ns#"
   xmlns:rdf="http://www.w3.org/1999/02/22-rdf-syntax-ns#"
   xmlns:svg="http://www.w3.org/2000/svg"
   xmlns="http://www.w3.org/2000/svg"
   version="1.1"
   id="svg2"
   xml:space="preserve"
   width="793.33331"
   height="1122.6667"
   viewBox="0 0 793.33331 1122.6667"><metadata
     id="metadata8"><rdf:RDF><cc:Work
         rdf:about=""><dc:format>image/svg+xml</dc:format><dc:type
           rdf:resource="http://purl.org/dc/dcmitype/StillImage" /></cc:Work></rdf:RDF></metadata><defs
     id="defs6" /><g
     id="g10"
     transform="matrix(1.3333333,0,0,-1.3333333,0,1122.6667)"><g
       id="g12"><g
         id="g14"><path
           d="M 0,0 H 595 V 842 H 0 Z"
           style="fill:#ffffff;fill-opacity:1;fill-rule:nonzero;stroke:none"
           id="path16" /></g></g><g
       id="g18" /><g
       id="g20"
       transform="matrix(0.35335,0,0,0.35335,303.1495,447.31886)"><path
         d="m -188.65,-206.89 -100.56,20.35"
         style="fill:none;stroke:#e25302;stroke-width:1;stroke-linecap:butt;stroke-linejoin:miter;stroke-miterlimit:10;stroke-dasharray:none;stroke-opacity:1"
         id="path22" /><path
         d="m -121.13,-185.48 68.42,72.39"
         style="fill:none;stroke:#e25302;stroke-width:1;stroke-linecap:butt;stroke-linejoin:miter;stroke-miterlimit:10;stroke-dasharray:none;stroke-opacity:1"
         id="path24" /><path
         d="M -168.96,-179.71 -415.35,253.7"
         style="fill:none;stroke:#e25302;stroke-width:1;stroke-linecap:butt;stroke-linejoin:miter;stroke-miterlimit:10;stroke-dasharray:none;stroke-opacity:1"
         id="path26" /><path
         d="M -446.54,252.2 -477.62,126.13"
         style="fill:none;stroke:#c9a600;stroke-width:1;stroke-linecap:butt;stroke-linejoin:miter;stroke-miterlimit:10;stroke-dasharray:none;stroke-opacity:1"
         id="path28" /><path
         d="m -402.26,270.45 100.23,-61.07"
         style="fill:none;stroke:#c9a600;stroke-width:1;stroke-linecap:butt;stroke-linejoin:miter;stroke-miterlimit:10;stroke-dasharray:none;stroke-opacity:1"
         id="path30" /><path
         d="M -473.2,273.66 -602.37,210.21"
         style="fill:none;stroke:#c9a600;stroke-width:1;stroke-linecap:butt;stroke-linejoin:miter;stroke-miterlimit:10;stroke-dasharray:none;stroke-opacity:1"
         id="path32" /><path
         d="m -473.68,308.35 -122.57,56.01"
         style="fill:none;stroke:#c9a600;stroke-width:1;stroke-linecap:butt;stroke-linejoin:miter;stroke-miterlimit:10;stroke-dasharray:none;stroke-opacity:1"
         id="path34" /><path
         d="m -442.96,331.55 -18.85,123.29"
         style="fill:none;stroke:#c9a600;stroke-width:1;stroke-linecap:butt;stroke-linejoin:miter;stroke-miterlimit:10;stroke-dasharray:none;stroke-opacity:1"
         id="path36" /><path
         d="M -405.69,317.4 -69.26,596.88"
         style="fill:none;stroke:#c9a600;stroke-width:1;stroke-linecap:butt;stroke-linejoin:miter;stroke-miterlimit:10;stroke-dasharray:none;stroke-opacity:1"
         id="path38" /><path
         d="m 3.56,634.24 152.99,37.2"
         style="fill:none;stroke:#6db400;stroke-width:1;stroke-linecap:butt;stroke-linejoin:miter;stroke-miterlimit:10;stroke-dasharray:none;stroke-opacity:1"
         id="path40" /><path
         d="M -50.98,587.13 -89.19,492.7"
         style="fill:none;stroke:#c9a600;stroke-width:1;stroke-linecap:butt;stroke-linejoin:miter;stroke-miterlimit:10;stroke-dasharray:none;stroke-opacity:1"
         id="path42" /><path
         d="M -68.96,647.92 -160.5,712.1"
         style="fill:none;stroke:#c9a600;stroke-width:1;stroke-linecap:butt;stroke-linejoin:miter;stroke-miterlimit:10;stroke-dasharray:none;stroke-opacity:1"
         id="path44" /><path
         d="M 3.56,615.1 431.72,510.91"
         style="fill:none;stroke:#6db400;stroke-width:1;stroke-linecap:butt;stroke-linejoin:miter;stroke-miterlimit:10;stroke-dasharray:none;stroke-opacity:1"
         id="path46" /><path
         d="m -152.82,-255.23 -38.66,-403.09"
         style="fill:none;stroke:#e25302;stroke-width:1;stroke-linecap:butt;stroke-linejoin:miter;stroke-miterlimit:10;stroke-dasharray:none;stroke-opacity:1"
         id="path48" /><path
         d="m -236.11,-700.32 -260.42,8.31"
         style="fill:none;stroke:#c9a600;stroke-width:1;stroke-linecap:butt;stroke-linejoin:miter;stroke-miterlimit:10;stroke-dasharray:none;stroke-opacity:1"
         id="path50" /><path
         d="m -574.4,-669.25 -133.15,82.74"
         style="fill:none;stroke:#c9a600;stroke-width:1;stroke-linecap:butt;stroke-linejoin:miter;stroke-miterlimit:10;stroke-dasharray:none;stroke-opacity:1"
         id="path52" /><path
         d="m -749.53,-523.36 -11.64,92.98"
         style="fill:none;stroke:#c9a600;stroke-width:1;stroke-linecap:butt;stroke-linejoin:miter;stroke-miterlimit:10;stroke-dasharray:none;stroke-opacity:1"
         id="path54" /><path
         d="m -534.34,-650.52 13.62,96.44"
         style="fill:none;stroke:#c9a600;stroke-width:1;stroke-linecap:butt;stroke-linejoin:miter;stroke-miterlimit:10;stroke-dasharray:none;stroke-opacity:1"
         id="path56" /><path
         d="m -186.02,-740.96 25.16,-103.05"
         style="fill:none;stroke:#c9a600;stroke-width:1;stroke-linecap:butt;stroke-linejoin:miter;stroke-miterlimit:10;stroke-dasharray:none;stroke-opacity:1"
         id="path58" /><path
         d="m -161.73,-679.46 107.19,70.05"
         style="fill:none;stroke:#c9a600;stroke-width:1;stroke-linecap:butt;stroke-linejoin:miter;stroke-miterlimit:10;stroke-dasharray:none;stroke-opacity:1"
         id="path60" /><path
         d="m -201.95,-661.61 -17.08,108.23"
         style="fill:none;stroke:#c9a600;stroke-width:1;stroke-linecap:butt;stroke-linejoin:miter;stroke-miterlimit:10;stroke-dasharray:none;stroke-opacity:1"
         id="path62" /><path
         d="M -157.61,-715.56 47.14,-790.67"
         style="fill:none;stroke:#c9a600;stroke-width:1;stroke-linecap:butt;stroke-linejoin:miter;stroke-miterlimit:10;stroke-dasharray:none;stroke-opacity:1"
         id="path64" /><path
         d="m 126.38,-792.77 86.96,29.17"
         style="fill:none;stroke:#c9a600;stroke-width:1;stroke-linecap:butt;stroke-linejoin:miter;stroke-miterlimit:10;stroke-dasharray:none;stroke-opacity:1"
         id="path66" /><path
         d="m -108.46,-214.11 329.64,6.54"
         style="fill:none;stroke:#e25302;stroke-width:1;stroke-linecap:butt;stroke-linejoin:miter;stroke-miterlimit:10;stroke-dasharray:none;stroke-opacity:1"
         id="path68" /><path
         d="m 282.53,-243.05 40.65,-82.74"
         style="fill:none;stroke:#c9a600;stroke-width:1;stroke-linecap:butt;stroke-linejoin:miter;stroke-miterlimit:10;stroke-dasharray:none;stroke-opacity:1"
         id="path70" /><path
         d="M 298.77,-184.85 527,-38.6"
         style="fill:none;stroke:#c9a600;stroke-width:1;stroke-linecap:butt;stroke-linejoin:miter;stroke-miterlimit:10;stroke-dasharray:none;stroke-opacity:1"
         id="path72" /><path
         d="M 566.56,-55.53 574.7,-167.9"
         style="fill:none;stroke:#c9a600;stroke-width:1;stroke-linecap:butt;stroke-linejoin:miter;stroke-miterlimit:10;stroke-dasharray:none;stroke-opacity:1"
         id="path74" /><path
         d="m 599.88,-33.2 96.18,-47.93"
         style="fill:none;stroke:#c9a600;stroke-width:1;stroke-linecap:butt;stroke-linejoin:miter;stroke-miterlimit:10;stroke-dasharray:none;stroke-opacity:1"
         id="path76" /><path
         d="m 556.69,24.77 -75.25,433"
         style="fill:none;stroke:#6db400;stroke-width:1;stroke-linecap:butt;stroke-linejoin:miter;stroke-miterlimit:10;stroke-dasharray:none;stroke-opacity:1"
         id="path78" /><path
         d="m 513.86,493.55 154.82,-27.5"
         style="fill:none;stroke:#6db400;stroke-width:1;stroke-linecap:butt;stroke-linejoin:miter;stroke-miterlimit:10;stroke-dasharray:none;stroke-opacity:1"
         id="path80" /><path
         d="M 434.61,491.16 292.13,456.91"
         style="fill:none;stroke:#6db400;stroke-width:1;stroke-linecap:butt;stroke-linejoin:miter;stroke-miterlimit:10;stroke-dasharray:none;stroke-opacity:1"
         id="path82" /><path
         d="M 448.58,469.09 330.7,322.81"
         style="fill:none;stroke:#6db400;stroke-width:1;stroke-linecap:butt;stroke-linejoin:miter;stroke-miterlimit:10;stroke-dasharray:none;stroke-opacity:1"
         id="path84" /><path
         d="M 466,540.33 437.64,681.21"
         style="fill:none;stroke:#6db400;stroke-width:1;stroke-linecap:butt;stroke-linejoin:miter;stroke-miterlimit:10;stroke-dasharray:none;stroke-opacity:1"
         id="path86" /><path
         d="M 440.16,522.89 235.15,657.8"
         style="fill:none;stroke:#11c200;stroke-width:1;stroke-linecap:butt;stroke-linejoin:miter;stroke-miterlimit:10;stroke-dasharray:none;stroke-opacity:1"
         id="path88" /><path
         d="m 503.9,527.93 103.06,94.05"
         style="fill:none;stroke:#6db400;stroke-width:1;stroke-linecap:butt;stroke-linejoin:miter;stroke-miterlimit:10;stroke-dasharray:none;stroke-opacity:1"
         id="path90" /><path
         d="M 499.63,469.28 607.01,338.04"
         style="fill:none;stroke:#6db400;stroke-width:1;stroke-linecap:butt;stroke-linejoin:miter;stroke-miterlimit:10;stroke-dasharray:none;stroke-opacity:1"
         id="path92" /><path
         d="M 472.63,460.15 467.41,304.39"
         style="fill:none;stroke:#6db400;stroke-width:1;stroke-linecap:butt;stroke-linejoin:miter;stroke-miterlimit:10;stroke-dasharray:none;stroke-opacity:1"
         id="path94" /><path
         d="m -292.15,-185.94 3.24,0.87 -0.6,-2.94 z"
         style="fill:#e25302;fill-opacity:1;fill-rule:nonzero;stroke:none"
         id="path96" /><path
         d="m -50.65,-110.91 -0.97,-3.21 -2.18,2.06 z"
         style="fill:#e25302;fill-opacity:1;fill-rule:nonzero;stroke:none"
         id="path98" /><path
         d="m -416.83,256.31 2.78,-1.87 -2.6,-1.48 z"
         style="fill:#e25302;fill-opacity:1;fill-rule:nonzero;stroke:none"
         id="path100" /><path
         d="m -478.34,123.21 -0.74,3.28 2.91,-0.72 z"
         style="fill:#c9a600;fill-opacity:1;fill-rule:nonzero;stroke:none"
         id="path102" /><path
         d="m -299.47,207.81 -3.34,0.29 1.56,2.56 z"
         style="fill:#c9a600;fill-opacity:1;fill-rule:nonzero;stroke:none"
         id="path104" /><path
         d="m -605.06,208.89 2.03,2.67 1.32,-2.69 z"
         style="fill:#c9a600;fill-opacity:1;fill-rule:nonzero;stroke:none"
         id="path106" /><path
         d="m -598.98,365.61 3.35,0.12 -1.25,-2.73 z"
         style="fill:#c9a600;fill-opacity:1;fill-rule:nonzero;stroke:none"
         id="path108" /><path
         d="m -462.26,457.81 1.94,-2.74 -2.97,-0.45 z"
         style="fill:#c9a600;fill-opacity:1;fill-rule:nonzero;stroke:none"
         id="path110" /><path
         d="m -66.95,598.79 -1.35,-3.07 -1.91,2.31 z"
         style="fill:#c9a600;fill-opacity:1;fill-rule:nonzero;stroke:none"
         id="path112" /><path
         d="m 159.46,672.15 -2.56,-2.17 -0.71,2.92 z"
         style="fill:#6db400;fill-opacity:1;fill-rule:nonzero;stroke:none"
         id="path114" /><path
         d="m -90.32,489.92 -0.26,3.34 2.78,-1.12 z"
         style="fill:#c9a600;fill-opacity:1;fill-rule:nonzero;stroke:none"
         id="path116" /><path
         d="m -162.96,713.82 3.32,-0.5 -1.72,-2.45 z"
         style="fill:#c9a600;fill-opacity:1;fill-rule:nonzero;stroke:none"
         id="path118" /><path
         d="m 434.64,510.2 -3.27,-0.75 0.71,2.92 z"
         style="fill:#6db400;fill-opacity:1;fill-rule:nonzero;stroke:none"
         id="path120" /><path
         d="m -191.76,-661.3 -1.21,3.13 2.99,-0.29 z"
         style="fill:#e25302;fill-opacity:1;fill-rule:nonzero;stroke:none"
         id="path122" /><path
         d="m -499.53,-691.92 3.05,1.41 -0.1,-3 z"
         style="fill:#c9a600;fill-opacity:1;fill-rule:nonzero;stroke:none"
         id="path124" /><path
         d="m -710.1,-584.92 3.34,-0.31 -1.58,-2.55 z"
         style="fill:#c9a600;fill-opacity:1;fill-rule:nonzero;stroke:none"
         id="path126" /><path
         d="m -761.55,-427.4 1.86,-2.79 -2.97,-0.37 z"
         style="fill:#c9a600;fill-opacity:1;fill-rule:nonzero;stroke:none"
         id="path128" /><path
         d="m -520.3,-551.11 1.07,-3.18 -2.97,0.42 z"
         style="fill:#c9a600;fill-opacity:1;fill-rule:nonzero;stroke:none"
         id="path130" /><path
         d="m -160.15,-846.92 -2.17,2.55 2.91,0.72 z"
         style="fill:#c9a600;fill-opacity:1;fill-rule:nonzero;stroke:none"
         id="path132" /><path
         d="m -52.03,-607.77 -1.69,-2.89 -1.64,2.51 z"
         style="fill:#c9a600;fill-opacity:1;fill-rule:nonzero;stroke:none"
         id="path134" /><path
         d="m -219.5,-550.42 1.95,-2.73 -2.96,-0.46 z"
         style="fill:#c9a600;fill-opacity:1;fill-rule:nonzero;stroke:none"
         id="path136" /><path
         d="m 49.96,-791.7 -3.34,-0.37 1.04,2.81 z"
         style="fill:#c9a600;fill-opacity:1;fill-rule:nonzero;stroke:none"
         id="path138" /><path
         d="m 216.18,-762.64 -2.37,-2.38 -0.95,2.85 z"
         style="fill:#c9a600;fill-opacity:1;fill-rule:nonzero;stroke:none"
         id="path140" /><path
         d="m 224.18,-207.51 -2.97,-1.56 -0.06,3 z"
         style="fill:#e25302;fill-opacity:1;fill-rule:nonzero;stroke:none"
         id="path142" /><path
         d="m 324.5,-328.48 -2.67,2.03 2.7,1.32 z"
         style="fill:#c9a600;fill-opacity:1;fill-rule:nonzero;stroke:none"
         id="path144" /><path
         d="m 529.53,-36.99 -1.72,-2.88 -1.62,2.53 z"
         style="fill:#c9a600;fill-opacity:1;fill-rule:nonzero;stroke:none"
         id="path146" /><path
         d="m 574.92,-170.9 -1.72,2.89 3,0.21 z"
         style="fill:#c9a600;fill-opacity:1;fill-rule:nonzero;stroke:none"
         id="path148" /><path
         d="m 698.75,-82.46 -3.36,-0.01 1.34,2.69 z"
         style="fill:#c9a600;fill-opacity:1;fill-rule:nonzero;stroke:none"
         id="path150" /><path
         d="m 480.92,460.73 2,-2.7 -2.96,-0.52 z"
         style="fill:#6db400;fill-opacity:1;fill-rule:nonzero;stroke:none"
         id="path152" /><path
         d="m 671.64,465.52 -3.22,-0.95 0.52,2.96 z"
         style="fill:#6db400;fill-opacity:1;fill-rule:nonzero;stroke:none"
         id="path154" /><path
         d="m 289.21,456.21 2.57,2.16 0.7,-2.92 z"
         style="fill:#6db400;fill-opacity:1;fill-rule:nonzero;stroke:none"
         id="path156" /><path
         d="m 328.82,320.48 0.72,3.27 2.33,-1.88 z"
         style="fill:#6db400;fill-opacity:1;fill-rule:nonzero;stroke:none"
         id="path158" /><path
         d="m 437.05,684.15 2.06,-2.65 -2.94,-0.59 z"
         style="fill:#6db400;fill-opacity:1;fill-rule:nonzero;stroke:none"
         id="path160" /><path
         d="m 232.65,659.45 3.33,-0.39 -1.65,-2.51 z"
         style="fill:#11c200;fill-opacity:1;fill-rule:nonzero;stroke:none"
         id="path162" /><path
         d="m 609.18,624 -1.21,-3.13 -2.02,2.22 z"
         style="fill:#6db400;fill-opacity:1;fill-rule:nonzero;stroke:none"
         id="path164" /><path
         d="m 608.91,335.71 -3.07,1.38 2.33,1.9 z"
         style="fill:#6db400;fill-opacity:1;fill-rule:nonzero;stroke:none"
         id="path166" /><path
         d="m 467.3,301.39 -1.39,3.05 2.99,-0.1 z"
         style="fill:#6db400;fill-opacity:1;fill-rule:nonzero;stroke:none"
         id="path168" /><path
         d="m -108.95,-214.92 c 0,22.09 -17.91,40 -40,40 -22.09,0 -40,-17.91 -40,-40 0,-22.09 17.91,-40 40,-40 22.09,0 40,17.91 40,40"
         style="fill:#fb0004;fill-opacity:1;fill-rule:nonzero;stroke:#000000;stroke-width:1;stroke-linecap:butt;stroke-linejoin:miter;stroke-miterlimit:10;stroke-dasharray:none;stroke-opacity:1"
         id="path170" /><path
         d="m -291.85,-177.91 c 0,22.09 -17.9,40 -40,40 -22.09,0 -40,-17.91 -40,-40 0,-22.09 17.91,-40 40,-40 22.1,0 40,17.91 40,40"
         style="fill:#c9a600;fill-opacity:1;fill-rule:nonzero;stroke:#000000;stroke-width:1;stroke-linecap:butt;stroke-linejoin:miter;stroke-miterlimit:10;stroke-dasharray:none;stroke-opacity:1"
         id="path172" /><path
         d="m 17.17,-81.47 c 0,22.09 -17.90929,40 -40,40 -22.09,0 -40,-17.91 -40,-40 0,-22.09 17.91,-40 40,-40 22.09071,0 40,17.91 40,40"
         style="fill:#c9a600;fill-opacity:1;fill-rule:nonzero;stroke:#000000;stroke-width:1;stroke-linecap:butt;stroke-linejoin:miter;stroke-miterlimit:10;stroke-dasharray:none;stroke-opacity:1"
         id="path174" /><path
         d="m -396.85,291.52 c 0,22.09 -17.9,40 -40,40 -22.09,0 -40,-17.91 -40,-40 0,-22.09 17.91,-40 40,-40 22.1,0 40,17.91 40,40"
         style="fill:#c9a600;fill-opacity:1;fill-rule:nonzero;stroke:#000000;stroke-width:1;stroke-linecap:butt;stroke-linejoin:miter;stroke-miterlimit:10;stroke-dasharray:none;stroke-opacity:1"
         id="path176" /><path
         d="m -448.04,83.89 c 0,22.09 -17.9,40 -40,40 -22.09,0 -40,-17.91 -40,-40 0,-22.09 17.91,-40 40,-40 22.1,0 40,17.91 40,40"
         style="fill:#c9a600;fill-opacity:1;fill-rule:nonzero;stroke:#000000;stroke-width:1;stroke-linecap:butt;stroke-linejoin:miter;stroke-miterlimit:10;stroke-dasharray:none;stroke-opacity:1"
         id="path178" /><path
         d="m -224.89,186.74 c 0,22.09 -17.9,40 -40,40 -22.09,0 -40,-17.91 -40,-40 0,-22.09 17.91,-40 40,-40 22.1,0 40,17.91 40,40"
         style="fill:#c9a600;fill-opacity:1;fill-rule:nonzero;stroke:#000000;stroke-width:1;stroke-linecap:butt;stroke-linejoin:miter;stroke-miterlimit:10;stroke-dasharray:none;stroke-opacity:1"
         id="path180" /><path
         d="m -601.42,191.04 c 0,22.09 -17.9,40 -40,40 -22.09,0 -40,-17.91 -40,-40 0,-22.1 17.91,-40 40,-40 22.1,0 40,17.9 40,40"
         style="fill:#c9a600;fill-opacity:1;fill-rule:nonzero;stroke:#000000;stroke-width:1;stroke-linecap:butt;stroke-linejoin:miter;stroke-miterlimit:10;stroke-dasharray:none;stroke-opacity:1"
         id="path182" /><path
         d="m -595.82,382.44 c 0,22.09 -17.91,40 -40,40 -22.09,0 -40,-17.91 -40,-40 0,-22.09 17.91,-40 40,-40 22.09,0 40,17.91 40,40"
         style="fill:#c9a600;fill-opacity:1;fill-rule:nonzero;stroke:#000000;stroke-width:1;stroke-linecap:butt;stroke-linejoin:miter;stroke-miterlimit:10;stroke-dasharray:none;stroke-opacity:1"
         id="path184" /><path
         d="m -428.38,497.85 c 0,22.09 -17.9,40 -40,40 -22.09,0 -40,-17.91 -40,-40 0,-22.1 17.91,-40 40,-40 22.1,0 40,17.9 40,40"
         style="fill:#c9a600;fill-opacity:1;fill-rule:nonzero;stroke:#000000;stroke-width:1;stroke-linecap:butt;stroke-linejoin:miter;stroke-miterlimit:10;stroke-dasharray:none;stroke-opacity:1"
         id="path186" /><path
         d="m 4.21,624.67 c 0,22.09 -17.91,40 -40,40 -22.1,0 -40,-17.91 -40,-40 0,-22.09 17.9,-40 40,-40 22.09,0 40,17.91 40,40"
         style="fill:#c9a600;fill-opacity:1;fill-rule:nonzero;stroke:#000000;stroke-width:1;stroke-linecap:butt;stroke-linejoin:miter;stroke-miterlimit:10;stroke-dasharray:none;stroke-opacity:1"
         id="path188" /><path
         d="m 238.82,681.72 c 0,22.09 -17.91,40 -40,40 -22.1,0 -40,-17.91 -40,-40 0,-22.09 17.9,-40 40,-40 22.09,0 40,17.91 40,40"
         style="fill:#11c200;fill-opacity:1;fill-rule:nonzero;stroke:#000000;stroke-width:1;stroke-linecap:butt;stroke-linejoin:miter;stroke-miterlimit:10;stroke-dasharray:none;stroke-opacity:1"
         id="path190" /><path
         d="m -65.51,452.38 c 0,22.09 -17.9,40 -40,40 -22.09,0 -40,-17.91 -40,-40 0,-22.1 17.91,-40 40,-40 22.1,0 40,17.9 40,40"
         style="fill:#c9a600;fill-opacity:1;fill-rule:nonzero;stroke:#000000;stroke-width:1;stroke-linecap:butt;stroke-linejoin:miter;stroke-miterlimit:10;stroke-dasharray:none;stroke-opacity:1"
         id="path192" /><path
         d="m -156.12,737.07 c 0,22.09 -17.91,40 -40,40 -22.09,0 -40,-17.91 -40,-40 0,-22.1 17.91,-40 40,-40 22.09,0 40,17.9 40,40"
         style="fill:#c9a600;fill-opacity:1;fill-rule:nonzero;stroke:#000000;stroke-width:1;stroke-linecap:butt;stroke-linejoin:miter;stroke-miterlimit:10;stroke-dasharray:none;stroke-opacity:1"
         id="path194" /><path
         d="m 513.99,500.63 c 0,22.09 -17.91,40 -40,40 -22.09,0 -40,-17.91 -40,-40 0,-22.09 17.91,-40 40,-40 22.09,0 40,17.91 40,40"
         style="fill:#11c200;fill-opacity:1;fill-rule:nonzero;stroke:#000000;stroke-width:1;stroke-linecap:butt;stroke-linejoin:miter;stroke-miterlimit:10;stroke-dasharray:none;stroke-opacity:1"
         id="path196" /><path
         d="m -155.63,-701.62 c 0,22.1 -17.91,40 -40,40 -22.09,0 -40,-17.9 -40,-40 0,-22.09 17.91,-40 40,-40 22.09,0 40,17.91 40,40"
         style="fill:#c9a600;fill-opacity:1;fill-rule:nonzero;stroke:#000000;stroke-width:1;stroke-linecap:butt;stroke-linejoin:miter;stroke-miterlimit:10;stroke-dasharray:none;stroke-opacity:1"
         id="path198" /><path
         d="m -500.01,-690.63 c 0,22.1 -17.9,40 -40,40 -22.09,0 -40,-17.9 -40,-40 0,-22.09 17.91,-40 40,-40 22.1,0 40,17.91 40,40"
         style="fill:#c9a600;fill-opacity:1;fill-rule:nonzero;stroke:#000000;stroke-width:1;stroke-linecap:butt;stroke-linejoin:miter;stroke-miterlimit:10;stroke-dasharray:none;stroke-opacity:1"
         id="path200" /><path
         d="m -704.49,-563.54 c 0,22.09 -17.91,40 -40,40 -22.1,0 -40,-17.91 -40,-40 0,-22.1 17.9,-40 40,-40 22.09,0 40,17.9 40,40"
         style="fill:#c9a600;fill-opacity:1;fill-rule:nonzero;stroke:#000000;stroke-width:1;stroke-linecap:butt;stroke-linejoin:miter;stroke-miterlimit:10;stroke-dasharray:none;stroke-opacity:1"
         id="path202" /><path
         d="m -726.58,-387.21 c 0,22.09 -17.91,40 -40,40 -22.09,0 -40,-17.91 -40,-40 0,-22.1 17.91,-40 40,-40 22.09,0 40,17.9 40,40"
         style="fill:#c9a600;fill-opacity:1;fill-rule:nonzero;stroke:#000000;stroke-width:1;stroke-linecap:butt;stroke-linejoin:miter;stroke-miterlimit:10;stroke-dasharray:none;stroke-opacity:1"
         id="path204" /><path
         d="m -474.64,-511.01 c 0,22.1 -17.9,40 -40,40 -22.09,0 -40,-17.9 -40,-40 0,-22.09 17.91,-40 40,-40 22.1,0 40,17.91 40,40"
         style="fill:#c9a600;fill-opacity:1;fill-rule:nonzero;stroke:#000000;stroke-width:1;stroke-linecap:butt;stroke-linejoin:miter;stroke-miterlimit:10;stroke-dasharray:none;stroke-opacity:1"
         id="path206" /><path
         d="m -110.54,-886.27 c 0,22.09 -17.91,40 -40,40 -22.1,0 -40,-17.91 -40,-40 0,-22.09 17.9,-40 40,-40 22.09,0 40,17.91 40,40"
         style="fill:#c9a600;fill-opacity:1;fill-rule:nonzero;stroke:#000000;stroke-width:1;stroke-linecap:butt;stroke-linejoin:miter;stroke-miterlimit:10;stroke-dasharray:none;stroke-opacity:1"
         id="path208" /><path
         d="m 21.87,-585.61 c 0,22.09 -17.91,40 -40,40 -22.09,0 -40,-17.91 -40,-40 0,-22.09 17.91,-40 40,-40 22.09,0 40,17.91 40,40"
         style="fill:#c9a600;fill-opacity:1;fill-rule:nonzero;stroke:#000000;stroke-width:1;stroke-linecap:butt;stroke-linejoin:miter;stroke-miterlimit:10;stroke-dasharray:none;stroke-opacity:1"
         id="path210" /><path
         d="m -185.81,-510.41 c 0,22.09 -17.91,40 -40,40 -22.1,0 -40,-17.91 -40,-40 0,-22.09 17.9,-40 40,-40 22.09,0 40,17.91 40,40"
         style="fill:#c9a600;fill-opacity:1;fill-rule:nonzero;stroke:#000000;stroke-width:1;stroke-linecap:butt;stroke-linejoin:miter;stroke-miterlimit:10;stroke-dasharray:none;stroke-opacity:1"
         id="path212" /><path
         d="m 127.98,-805.65 c 0,22.1 -17.91,40 -40,40 -22.09,0 -40,-17.9 -40,-40 0,-22.09 17.91,-40 40,-40 22.09,0 40,17.91 40,40"
         style="fill:#c9a600;fill-opacity:1;fill-rule:nonzero;stroke:#000000;stroke-width:1;stroke-linecap:butt;stroke-linejoin:miter;stroke-miterlimit:10;stroke-dasharray:none;stroke-opacity:1"
         id="path214" /><path
         d="m 294.58,-749.76 c 0,22.09 -17.91,40 -40,40 -22.1,0 -40,-17.91 -40,-40 0,-22.09 17.9,-40 40,-40 22.09,0 40,17.91 40,40"
         style="fill:#c9a600;fill-opacity:1;fill-rule:nonzero;stroke:#000000;stroke-width:1;stroke-linecap:butt;stroke-linejoin:miter;stroke-miterlimit:10;stroke-dasharray:none;stroke-opacity:1"
         id="path216" /><path
         d="m 304.67,-206.7 c 0,22.09 -17.91,40 -40,40 -22.09,0 -40,-17.91 -40,-40 0,-22.1 17.91,-40 40,-40 22.09,0 40,17.9 40,40"
         style="fill:#c9a600;fill-opacity:1;fill-rule:nonzero;stroke:#000000;stroke-width:1;stroke-linecap:butt;stroke-linejoin:miter;stroke-miterlimit:10;stroke-dasharray:none;stroke-opacity:1"
         id="path218" /><path
         d="m 382.36,-364.83 c 0,22.09 -17.9,40 -40,40 -22.09,0 -40,-17.91 -40,-40 0,-22.1 17.91,-40 40,-40 22.1,0 40,17.9 40,40"
         style="fill:#c9a600;fill-opacity:1;fill-rule:nonzero;stroke:#000000;stroke-width:1;stroke-linecap:butt;stroke-linejoin:miter;stroke-miterlimit:10;stroke-dasharray:none;stroke-opacity:1"
         id="path220" /><path
         d="m 603.63,-15.13 c 0,22.09 -17.91,40 -40,40 -22.09,0 -40,-17.91 -40,-40 0,-22.1 17.91,-40 40,-40 22.09,0 40,17.9 40,40"
         style="fill:#c9a600;fill-opacity:1;fill-rule:nonzero;stroke:#000000;stroke-width:1;stroke-linecap:butt;stroke-linejoin:miter;stroke-miterlimit:10;stroke-dasharray:none;stroke-opacity:1"
         id="path222" /><path
         d="m 617.85,-211.29 c 0,22.09 -17.91,40 -40,40 -22.1,0 -40,-17.91 -40,-40 0,-22.09 17.9,-40 40,-40 22.09,0 40,17.91 40,40"
         style="fill:#c9a600;fill-opacity:1;fill-rule:nonzero;stroke:#000000;stroke-width:1;stroke-linecap:butt;stroke-linejoin:miter;stroke-miterlimit:10;stroke-dasharray:none;stroke-opacity:1"
         id="path224" /><path
         d="m 775,-100.53 c 0,22.1 -17.91,40 -40,40 -22.09,0 -40,-17.9 -40,-40 0,-22.09 17.91,-40 40,-40 22.09,0 40,17.91 40,40"
         style="fill:#c9a600;fill-opacity:1;fill-rule:nonzero;stroke:#000000;stroke-width:1;stroke-linecap:butt;stroke-linejoin:miter;stroke-miterlimit:10;stroke-dasharray:none;stroke-opacity:1"
         id="path226" /><path
         d="m 751.51,458.44 c 0,22.09 -17.91,40 -40,40 -22.09,0 -40,-17.91 -40,-40 0,-22.09 17.91,-40 40,-40 22.09,0 40,17.91 40,40"
         style="fill:#c9a600;fill-opacity:1;fill-rule:nonzero;stroke:#000000;stroke-width:1;stroke-linecap:butt;stroke-linejoin:miter;stroke-miterlimit:10;stroke-dasharray:none;stroke-opacity:1"
         id="path228" /><path
         d="m 289.83,446.74 c 0,22.09 -17.91,40 -40,40 -22.09,0 -40,-17.91 -40,-40 0,-22.09 17.91,-40 40,-40 22.09,0 40,17.91 40,40"
         style="fill:#c9a600;fill-opacity:1;fill-rule:nonzero;stroke:#000000;stroke-width:1;stroke-linecap:butt;stroke-linejoin:miter;stroke-miterlimit:10;stroke-dasharray:none;stroke-opacity:1"
         id="path230" /><path
         d="m 343.41,288.94 c 0,22.09 -17.91,40 -40,40 -22.09,0 -40,-17.91 -40,-40 0,-22.09 17.91,-40 40,-40 22.09,0 40,17.91 40,40"
         style="fill:#c9a600;fill-opacity:1;fill-rule:nonzero;stroke:#000000;stroke-width:1;stroke-linecap:butt;stroke-linejoin:miter;stroke-miterlimit:10;stroke-dasharray:none;stroke-opacity:1"
         id="path232" /><path
         d="m 469.06,723.85 c 0,22.09 -17.91,40 -40,40 -22.1,0 -40,-17.91 -40,-40 0,-22.09 17.9,-40 40,-40 22.09,0 40,17.91 40,40"
         style="fill:#c9a600;fill-opacity:1;fill-rule:nonzero;stroke:#000000;stroke-width:1;stroke-linecap:butt;stroke-linejoin:miter;stroke-miterlimit:10;stroke-dasharray:none;stroke-opacity:1"
         id="path234" /><path
         d="m 679.1,651.3 c 0,22.09 -17.91,40 -40,40 -22.1,0 -40,-17.91 -40,-40 0,-22.09 17.9,-40 40,-40 22.09,0 40,17.91 40,40"
         style="fill:#c9a600;fill-opacity:1;fill-rule:nonzero;stroke:#000000;stroke-width:1;stroke-linecap:butt;stroke-linejoin:miter;stroke-miterlimit:10;stroke-dasharray:none;stroke-opacity:1"
         id="path236" /><path
         d="m 674.55,304.37 c 0,22.09 -17.91,40 -40,40 -22.09,0 -40,-17.91 -40,-40 0,-22.09 17.91,-40 40,-40 22.09,0 40,17.91 40,40"
         style="fill:#c9a600;fill-opacity:1;fill-rule:nonzero;stroke:#000000;stroke-width:1;stroke-linecap:butt;stroke-linejoin:miter;stroke-miterlimit:10;stroke-dasharray:none;stroke-opacity:1"
         id="path238" /><path
         d="m 505.95,260.92 c 0,22.09 -17.91,40 -40,40 -22.1,0 -40,-17.91 -40,-40 0,-22.1 17.9,-40 40,-40 22.09,0 40,17.9 40,40"
         style="fill:#c9a600;fill-opacity:1;fill-rule:nonzero;stroke:#000000;stroke-width:1;stroke-linecap:butt;stroke-linejoin:miter;stroke-miterlimit:10;stroke-dasharray:none;stroke-opacity:1"
         id="path240" /><text
         transform="matrix(1,0,0,-1,-206.2,-219.97)"
         style="font-variant:normal;font-weight:normal;font-size:20px;font-family:Arial;-inkscape-font-specification:ArialMT;writing-mode:lr-tb;fill:#000000;fill-opacity:1;fill-rule:nonzero;stroke:none"
         id="text244"><tspan
           x="0 14.44 25.559999 36.68 47.799999 54.459999 65.580002 76.699997 81.139999 92.260002 103.38"
           y="0"
           id="tspan242">Naherholung</tspan></text><text
         transform="matrix(1,0,0,-1,-426.3,-184.39)"
         style="font-variant:normal;font-weight:normal;font-size:25px;font-family:Arial;-inkscape-font-specification:ArialMT;writing-mode:lr-tb;fill:#000000;fill-opacity:1;fill-rule:nonzero;stroke:none"
         id="text248"><tspan
           x="0 19.424999 33.325001 41.650002 48.575001 62.474998 76.375 84.699997 98.599998 112.5 126.4 131.95 145.85001 161.10001 175"
           y="0"
           id="tspan246">Gärten-genießen</tspan></text><text
         transform="matrix(1,0,0,-1,-119.29,-86.13)"
         style="font-variant:normal;font-weight:normal;font-size:18px;font-family:Arial;-inkscape-font-specification:ArialMT;writing-mode:lr-tb;fill:#000000;fill-opacity:1;fill-rule:nonzero;stroke:none"
         id="text252"><tspan
           x="0 4.9860001 14.994 19.98 29.988001 38.987999 43.973999 49.967999 61.956001 67.949997 77.958 81.954002 91.961998 100.962 105.948 115.956 120.942 126.936 137.916 147.924 153.918 168.912 172.908 182.916"
           y="0"
           id="tspan250">Infos,-Projekte,-Termine</tspan></text><text
         transform="matrix(1,0,0,-1,-529.22,282.72)"
         style="font-variant:normal;font-weight:normal;font-size:25px;font-family:Arial;-inkscape-font-specification:ArialMT;writing-mode:lr-tb;fill:#000000;fill-opacity:1;fill-rule:nonzero;stroke:none"
         id="text256"><tspan
           x="0 18.049999 31.950001 38.875 52.775002 61.099998 69.425003 83.324997 97.224998 104.15 118.05 131.95 144.45 156.95 170.85001"
           y="0"
           id="tspan254">Natur-entdecken</tspan></text><text
         transform="matrix(1,0,0,-1,-507.03,79.67)"
         style="font-variant:normal;font-weight:normal;font-size:12px;font-family:Arial;-inkscape-font-specification:ArialMT;writing-mode:lr-tb;fill:#000000;fill-opacity:1;fill-rule:nonzero;stroke:none"
         id="text260"><tspan
           x="0 8.6639996 15.336 18 24 27.323999 33.995998"
           y="0"
           id="tspan258">Deister</tspan></text><text
         transform="matrix(1,0,0,-1,-467.17,172.42)"
         style="font-variant:normal;font-weight:normal;font-size:40px;font-family:Arial;-inkscape-font-specification:ArialMT;writing-mode:lr-tb;fill:#000000;fill-opacity:1;fill-rule:nonzero;stroke:none"
         id="text264"><tspan
           x="0 28.879999 37.759998 60 73.32 99.959999 122.2 144.44 153.32001 162.2 182.2 204.44 226.67999 240 262.23999 284.48001 293.35999 315.60001 337.84 360.07999 382.32001"
           y="0"
           id="tspan262">Die-Südliche-Leineaue</tspan></text><text
         transform="matrix(1,0,0,-1,-690.76,186.73)"
         style="font-variant:normal;font-weight:normal;font-size:12px;font-family:Arial;-inkscape-font-specification:ArialMT;writing-mode:lr-tb;fill:#000000;fill-opacity:1;fill-rule:nonzero;stroke:none"
         id="text268"><tspan
           x="0 6.6719999 13.344 20.016001 26.688 32.688 38.688 45.360001 52.032001 55.355999 58.68 64.68 68.676003 75.348 82.019997 92.015999"
           y="0"
           id="tspan266">Landschaftsräume</tspan></text><text
         transform="matrix(1,0,0,-1,-676.91,372.23)"
         style="font-variant:normal;font-weight:normal;font-size:29px;font-family:Arial;-inkscape-font-specification:ArialMT;writing-mode:lr-tb;fill:#000000;fill-opacity:1;fill-rule:nonzero;stroke:none"
         id="text272"><tspan
           x="0 24.157 40.280998 56.404999 66.061996"
           y="0"
           id="tspan270">Moore</tspan></text><text
         transform="matrix(1,0,0,-1,-497.55,488.9)"
         style="font-variant:normal;font-weight:normal;font-size:25px;font-family:Arial;-inkscape-font-specification:ArialMT;writing-mode:lr-tb;fill:#000000;fill-opacity:1;fill-rule:nonzero;stroke:none"
         id="text276"><tspan
           x="0 16.65 30.549999 44.450001"
           y="0"
           id="tspan274">Seen</tspan></text><text
         transform="matrix(1,0,0,-1,-67.45,617.58)"
         style="font-variant:normal;font-weight:normal;font-size:20px;font-family:Arial;-inkscape-font-specification:ArialMT;writing-mode:lr-tb;fill:#000000;fill-opacity:1;fill-rule:nonzero;stroke:none"
         id="text280"><tspan
           x="0 18.860001 29.98 34.419998 45.540001 56.66"
           y="0"
           id="tspan278">Wälder</tspan></text><text
         transform="matrix(1,0,0,-1,154.87,676.79)"
         style="font-variant:normal;font-weight:normal;font-size:14px;font-family:Arial;-inkscape-font-specification:ArialMT;writing-mode:lr-tb;fill:#000000;fill-opacity:1;fill-rule:nonzero;stroke:none"
         id="text284"><tspan
           x="0 10.108 13.216 21 25.662001 34.986 38.094002 41.202 48.986 56.77 61.431999 64.540001 72.323997 80.108002"
           y="0"
           id="tspan282">Die-Eilenriede</tspan></text><text
         transform="matrix(1,0,0,-1,-160.17,448.15)"
         style="font-variant:normal;font-weight:normal;font-size:12px;font-family:Arial;-inkscape-font-specification:ArialMT;writing-mode:lr-tb;fill:#000000;fill-opacity:1;fill-rule:nonzero;stroke:none"
         id="text288"><tspan
           x="0 9.9960003 16.667999 22.667999 28.667999 31.332001 38.004002 44.675999 51.348 58.02 60.683998 67.356003 74.028 78.024002 82.019997 89.339996 96.012001 100.008 106.008"
           y="0"
           id="tspan286">Mecklenheider-Forst</tspan></text><text
         transform="matrix(1,0,0,-1,-242.44,732.77)"
         style="font-variant:normal;font-weight:normal;font-size:12px;font-family:Arial;-inkscape-font-specification:ArialMT;writing-mode:lr-tb;fill:#000000;fill-opacity:1;fill-rule:nonzero;stroke:none"
         id="text292"><tspan
           x="0 7.9920001 14.664 21.336 24 30.672001 37.344002 41.34 47.34 50.664001 57.335999 61.332001 65.328003 76.643997 83.316002 85.980003"
           y="0"
           id="tspan290">Seelhorster-Wald</tspan></text><text
         transform="matrix(1,0,0,-1,319,489.72)"
         style="font-variant:normal;font-weight:normal;font-size:31px;font-family:Arial;-inkscape-font-specification:ArialMT;writing-mode:lr-tb;fill:#000000;fill-opacity:1;fill-rule:nonzero;stroke:none"
         id="text296"><tspan
           x="0 29.233 46.469002 53.351002 70.586998 86.086998 94.674004 111.91 120.497 127.379 144.61501 161.851 172.174 192.82001 199.702 206.584 223.82001 241.056 251.379 258.26099 275.49701 292.733"
           y="0"
           id="tspan294">Waldstation-Eilenriede</tspan></text><text
         transform="matrix(1,0,0,-1,-290.37,-712.53)"
         style="font-variant:normal;font-weight:normal;font-size:31px;font-family:Arial;-inkscape-font-specification:ArialMT;writing-mode:lr-tb;fill:#000000;fill-opacity:1;fill-rule:nonzero;stroke:none"
         id="text300"><tspan
           x="0 22.382 39.618 48.205002 65.441002 75.764 86.086998 103.323 113.646 120.528 137.76401 155 172.23599"
           y="0"
           id="tspan298">Natur-erleben</tspan></text><text
         transform="matrix(1,0,0,-1,-612.95,-699.46)"
         style="font-variant:normal;font-weight:normal;font-size:35px;font-family:Arial;-inkscape-font-specification:ArialMT;writing-mode:lr-tb;fill:#000000;fill-opacity:1;fill-rule:nonzero;stroke:none"
         id="text304"><tspan
           x="0 23.309999 42.77 68.040001 87.5 106.96 126.42"
           y="0"
           id="tspan302">Bewegen</tspan></text><text
         transform="matrix(1,0,0,-1,-861.83,-572.07)"
         style="font-variant:normal;font-weight:normal;font-size:33px;font-family:Arial;-inkscape-font-specification:ArialMT;writing-mode:lr-tb;fill:#000000;fill-opacity:1;fill-rule:nonzero;stroke:none"
         id="text308"><tspan
           x="0 20.129999 27.455999 36.597 54.945 73.292999 89.792999 106.293 124.641 142.989 153.978 170.478 188.826 207.174 218.16299"
           y="0"
           id="tspan306">Fitnessparcours</tspan></text><text
         transform="matrix(1,0,0,-1,-901.58,-390.32)"
         style="font-variant:normal;font-weight:normal;font-size:12px;font-family:Arial;-inkscape-font-specification:ArialMT;writing-mode:lr-tb;fill:#000000;fill-opacity:1;fill-rule:nonzero;stroke:none"
         id="text312"><tspan
           x="0 7.3200002 9.9840002 13.308 19.98 26.652 32.652 38.652 47.316002 49.98 56.652 62.652 69.323997 73.32 79.991997 89.987999 93.984001 101.976 107.976 114.648 124.644 131.31599 137.31599 143.98801 147.312 153.98399 160.65601 167.328 171.32401 177.996 181.992 184.65601 191.328 195.32401 201.996 208.668 212.664 216.66 224.65199 227.31599 229.98 236.65199 243.32401 247.32001 249.98399 256.65601 263.328"
           y="0"
           id="tspan310">Fitnesswiese-am-Schmachteberg-in-der-Eilenriede</tspan></text><text
         transform="matrix(1,0,0,-1,-605.95,-515.31)"
         style="font-variant:normal;font-weight:normal;font-size:12px;font-family:Arial;-inkscape-font-specification:ArialMT;writing-mode:lr-tb;fill:#000000;fill-opacity:1;fill-rule:nonzero;stroke:none"
         id="text316"><tspan
           x="0 7.3200002 11.316 13.98 23.976 33.972 37.967999 46.632 49.296001 55.296001 61.967999 65.963997 73.956001 77.279999 83.952003 90.624001 94.620003 97.283997 103.956 107.952 114.624 121.296 125.292 129.28799 137.28 139.944 142.608 149.28 155.952 159.948 162.612 169.284 175.95599"
           y="0"
           id="tspan314">Trimm-Dich-Pfad-in-der-Eilenriede</tspan></text><text
         transform="matrix(1,0,0,-1,-216.88,-889.37)"
         style="font-variant:normal;font-weight:normal;font-size:12px;font-family:Arial;-inkscape-font-specification:ArialMT;writing-mode:lr-tb;fill:#000000;fill-opacity:1;fill-rule:nonzero;stroke:none"
         id="text320"><tspan
           x="0 8.6639996 15.336 19.332001 23.327999 31.992001 38.664001 41.327999 47.327999 50.652 57.324001 61.32 65.316002 76.632004 83.304001 89.975998 96.648003 103.32 107.316 113.988 120.66 126.66"
           y="0"
           id="tspan318">Der-Deister-Wanderpass</tspan></text><text
         transform="matrix(1,0,0,-1,-101.36,-589.83)"
         style="font-variant:normal;font-weight:normal;font-size:12px;font-family:Arial;-inkscape-font-specification:ArialMT;writing-mode:lr-tb;fill:#000000;fill-opacity:1;fill-rule:nonzero;stroke:none"
         id="text324"><tspan
           x="0 7.3200002 13.992 16.656 19.98 25.98 32.652 36.647999 39.972 46.644001 50.639999 54.888 66.204002 72.875999 79.547997 86.220001 92.891998 96.888 103.56 107.556 110.22 120.216 124.212 132.87601 139.548 142.21201 148.21201 151.536 158.20799 162.20399"
           y="0"
           id="tspan322">Faltkarte-&quot;Wandern-im-Deister&quot;</tspan></text><text
         transform="matrix(1,0,0,-1,-333.81,-514.71)"
         style="font-variant:normal;font-weight:normal;font-size:12px;font-family:Arial;-inkscape-font-specification:ArialMT;writing-mode:lr-tb;fill:#000000;fill-opacity:1;fill-rule:nonzero;stroke:none"
         id="text328"><tspan
           x="0 9.9960003 12.66 15.984 19.98 27.972 34.644001 40.644001 44.639999 51.312 57.984001 64.655998 68.652 76.643997 83.316002 89.987999 96.660004 100.656 107.328 114 117.324 121.32 127.992 134.664 141.336 145.332 153.996 160.668 163.332 169.332 172.65601 179.328 183.32401 189.32401 195.996 205.992"
           y="0"
           id="tspan326">Mit-Bus-und-Bahn-auf-den-Deisterkamm</tspan></text><text
         transform="matrix(1,0,0,-1,10.96,-817.48)"
         style="font-variant:normal;font-weight:normal;font-size:33px;font-family:Arial;-inkscape-font-specification:ArialMT;writing-mode:lr-tb;fill:#000000;fill-opacity:1;fill-rule:nonzero;stroke:none"
         id="text332"><tspan
           x="0 23.826 42.174 60.521999 69.663002 88.011002 106.359 117.348 135.696"
           y="0"
           id="tspan330">Radfahren</tspan></text><text
         transform="matrix(1,0,0,-1,103.88,-761.88)"
         style="font-variant:normal;font-weight:normal;font-size:48px;font-family:Arial;-inkscape-font-specification:ArialMT;writing-mode:lr-tb;fill:#000000;fill-opacity:1;fill-rule:nonzero;stroke:none"
         id="text336"><tspan
           x="0 29.280001 55.967999 82.655998 98.639999 114.624 141.312 168 183.98399 210.672 237.36 248.01601 274.70401"
           y="0"
           id="tspan334">Fahrradregion</tspan></text><text
         transform="matrix(1,0,0,-1,200.16,-213.04)"
         style="font-variant:normal;font-weight:normal;font-size:18px;font-family:Arial;-inkscape-font-specification:ArialMT;writing-mode:lr-tb;fill:#000000;fill-opacity:1;fill-rule:nonzero;stroke:none"
         id="text340"><tspan
           x="0 12.996 23.004 27.99 37.998001 43.992001 49.986 58.986 68.994003 74.987999 83.987999 88.973999 98.982002 108.99 118.998"
           y="0"
           id="tspan338">Natur-verstehen</tspan></text><text
         transform="matrix(1,0,0,-1,305.69,-368.01)"
         style="font-variant:normal;font-weight:normal;font-size:12px;font-family:Arial;-inkscape-font-specification:ArialMT;writing-mode:lr-tb;fill:#000000;fill-opacity:1;fill-rule:nonzero;stroke:none"
         id="text344"><tspan
           x="0 7.9920001 11.988 14.652 21.323999 27.996 34.667999 37.332001 43.332001 50.004002 53.327999 60 66.671997"
           y="0"
           id="tspan342">Erlebnispfade</tspan></text><text
         transform="matrix(1,0,0,-1,496.55,-23.23)"
         style="font-variant:normal;font-weight:normal;font-size:23px;font-family:Arial;-inkscape-font-specification:ArialMT;writing-mode:lr-tb;fill:#000000;fill-opacity:1;fill-rule:nonzero;stroke:none"
         id="text348"><tspan
           x="0 16.606001 29.393999 35.764999 48.553001 56.212002 61.318001 74.106003 81.764999 94.553001 107.341 115 121.371"
           y="0"
           id="tspan346">Naturlernorte</tspan></text><text
         transform="matrix(1,0,0,-1,548.18,-215.51)"
         style="font-variant:normal;font-weight:normal;font-size:12px;font-family:Arial;-inkscape-font-specification:ArialMT;writing-mode:lr-tb;fill:#000000;fill-opacity:1;fill-rule:nonzero;stroke:none"
         id="text352"><tspan
           x="0 7.9920001 10.656 17.327999 24 30.672001 34.667999 43.332001 50.004002 52.667999"
           y="0"
           id="tspan350">Kinderwald</tspan></text><text
         transform="matrix(1,0,0,-1,677.66,-103.63)"
         style="font-variant:normal;font-weight:normal;font-size:12px;font-family:Arial;-inkscape-font-specification:ArialMT;writing-mode:lr-tb;fill:#000000;fill-opacity:1;fill-rule:nonzero;stroke:none"
         id="text356"><tspan
           x="0 7.9920001 13.992 20.664 27.336 30 36.672001 39.335999 46.007999 48.672001 55.344002 62.015999 64.68 71.351997 77.351997 84.024002 90.695999 94.019997 98.015999 104.688"
           y="0"
           id="tspan354">Schulbiologiezentrum</tspan></text><text
         transform="matrix(1,0,0,-1,641.51,455.41)"
         style="font-variant:normal;font-weight:normal;font-size:12px;font-family:Arial;-inkscape-font-specification:ArialMT;writing-mode:lr-tb;fill:#000000;fill-opacity:1;fill-rule:nonzero;stroke:none"
         id="text360"><tspan
           x="0 7.9920001 13.992 17.316 23.988001 30.66 33.324001 35.987999 42.66 48.66 52.655998 60.647999 67.32 71.316002 77.987999 84.660004 90.660004 93.984001 100.656 103.32 106.644 113.316 119.988 126.66 133.332"
           y="0"
           id="tspan358">Aktuelles-Veranstaltungen</tspan></text><text
         transform="matrix(1,0,0,-1,176.17,442.85)"
         style="font-variant:normal;font-weight:normal;font-size:12px;font-family:Arial;-inkscape-font-specification:ArialMT;writing-mode:lr-tb;fill:#000000;fill-opacity:1;fill-rule:nonzero;stroke:none"
         id="text364"><tspan
           x="0 7.9920001 14.664 17.988001 24.66 31.332001 35.327999 38.652 42.647999 49.32 55.992001 62.664001 66.660004 75.984001 79.307999 82.632004 89.304001 95.975998 102.648 109.32 115.32 121.32 127.992 130.65601 133.98 140.65199"
           y="0"
           id="tspan362">Anfahrt-und-Öffnungszeiten</tspan></text><text
         transform="matrix(1,0,0,-1,273.4,285.91)"
         style="font-variant:normal;font-weight:normal;font-size:12px;font-family:Arial;-inkscape-font-specification:ArialMT;writing-mode:lr-tb;fill:#000000;fill-opacity:1;fill-rule:nonzero;stroke:none"
         id="text368"><tspan
           x="0 7.9920001 14.664 21.336 24 30.672001 37.344002 44.015999 46.68 53.352001"
           y="0"
           id="tspan366">Audioguide</tspan></text><text
         transform="matrix(1,0,0,-1,373.72,719.63)"
         style="font-variant:normal;font-weight:normal;font-size:12px;font-family:Arial;-inkscape-font-specification:ArialMT;writing-mode:lr-tb;fill:#000000;fill-opacity:1;fill-rule:nonzero;stroke:none"
         id="text372"><tspan
           x="0 8.6639996 15.336 21.336 25.332001 36.647999 43.32 45.984001 52.655998 56.652 65.316002 71.987999 77.987999 84.660004 91.332001 98.003998 104.676"
           y="0"
           id="tspan370">Das-Wald-Hochhaus</tspan></text><text
         transform="matrix(1,0,0,-1,557.77,647.41)"
         style="font-variant:normal;font-weight:normal;font-size:12px;font-family:Arial;-inkscape-font-specification:ArialMT;writing-mode:lr-tb;fill:#000000;fill-opacity:1;fill-rule:nonzero;stroke:none"
         id="text376"><tspan
           x="0 7.3200002 11.316 17.988001 20.652 29.316 31.98 34.644001 37.307999 39.972 46.644001 53.316002 59.316002 63.312 72.636002 78.636002 85.307999 87.972 94.643997 101.316 103.98 109.98 115.98 122.652 129.32401 135.32401 139.32001 145.32001 151.992 158.664"
           y="0"
           id="tspan374">Freiwilliges-Ökologisches-Jahr</tspan></text><text
         transform="matrix(1,0,0,-1,605.54,301.31)"
         style="font-variant:normal;font-weight:normal;font-size:12px;font-family:Arial;-inkscape-font-specification:ArialMT;writing-mode:lr-tb;fill:#000000;fill-opacity:1;fill-rule:nonzero;stroke:none"
         id="text380"><tspan
           x="0 7.3200002 13.992 20.664 24.66 31.332001 38.004002 44.675999 51.348"
           y="0"
           id="tspan378">Führungen</tspan></text><text
         transform="matrix(1,0,0,-1,441.27,255.83)"
         style="font-variant:normal;font-weight:normal;font-size:12px;font-family:Arial;-inkscape-font-specification:ArialMT;writing-mode:lr-tb;fill:#000000;fill-opacity:1;fill-rule:nonzero;stroke:none"
         id="text384"><tspan
           x="0 8.6639996 15.336 22.007999 26.004 30 36.672001 43.344002"
           y="0"
           id="tspan382">Über-uns</tspan></text></g></g></svg>
