<?xml version="1.0" encoding="UTF-8" standalone="no"?>
<svg
   xmlns:dc="http://purl.org/dc/elements/1.1/"
   xmlns:cc="http://creativecommons.org/ns#"
   xmlns:rdf="http://www.w3.org/1999/02/22-rdf-syntax-ns#"
   xmlns:svg="http://www.w3.org/2000/svg"
   xmlns="http://www.w3.org/2000/svg"
   version="1.1"
   id="svg2"
   xml:space="preserve"
   width="793.33331"
   height="1122.6667"
   viewBox="0 0 793.33331 1122.6667"><metadata
     id="metadata8"><rdf:RDF><cc:Work
         rdf:about=""><dc:format>image/svg+xml</dc:format><dc:type
           rdf:resource="http://purl.org/dc/dcmitype/StillImage" /></cc:Work></rdf:RDF></metadata><defs
     id="defs6" /><g
     id="g10"
     transform="matrix(1.3333333,0,0,-1.3333333,0,1122.6667)"><g
       id="g12"><g
         id="g14"><path
           d="M 0,0 H 595 V 842 H 0 Z"
           style="fill:#ffffff;fill-opacity:1;fill-rule:nonzero;stroke:none"
           id="path16" /></g></g><g
       id="g18" /><g
       id="g20"
       transform="matrix(0.3538,0,0,0.3538,299.27334,452.13431)"><path
         d="m -198.45,-204.9 -80.96,16.38"
         style="fill:none;stroke:#4cb1d1;stroke-width:1;stroke-linecap:butt;stroke-linejoin:miter;stroke-miterlimit:10;stroke-dasharray:none;stroke-opacity:1"
         id="path22" /><path
         d="m -114.26,-178.22 54.68,57.87"
         style="fill:none;stroke:#4cb1d1;stroke-width:1;stroke-linecap:butt;stroke-linejoin:miter;stroke-miterlimit:10;stroke-dasharray:none;stroke-opacity:1"
         id="path24" /><path
         d="m -173.91,-171.02 -236.5,416.03"
         style="fill:none;stroke:#4cb1d1;stroke-width:1;stroke-linecap:butt;stroke-linejoin:miter;stroke-miterlimit:10;stroke-dasharray:none;stroke-opacity:1"
         id="path26" /><path
         d="M -448.94,242.49 -475.23,135.84"
         style="fill:none;stroke:#41c4a6;stroke-width:1;stroke-linecap:butt;stroke-linejoin:miter;stroke-miterlimit:10;stroke-dasharray:none;stroke-opacity:1"
         id="path28" /><path
         d="m -393.72,265.24 83.15,-50.66"
         style="fill:none;stroke:#41c4a6;stroke-width:1;stroke-linecap:butt;stroke-linejoin:miter;stroke-miterlimit:10;stroke-dasharray:none;stroke-opacity:1"
         id="path30" /><path
         d="M -482.17,269.26 -593.4,214.62"
         style="fill:none;stroke:#41c4a6;stroke-width:1;stroke-linecap:butt;stroke-linejoin:miter;stroke-miterlimit:10;stroke-dasharray:none;stroke-opacity:1"
         id="path32" /><path
         d="M -482.78,312.51 -587.16,360.2"
         style="fill:none;stroke:#41c4a6;stroke-width:1;stroke-linecap:butt;stroke-linejoin:miter;stroke-miterlimit:10;stroke-dasharray:none;stroke-opacity:1"
         id="path34" /><path
         d="M -444.48,341.44 -460.3,444.96"
         style="fill:none;stroke:#41c4a6;stroke-width:1;stroke-linecap:butt;stroke-linejoin:miter;stroke-miterlimit:10;stroke-dasharray:none;stroke-opacity:1"
         id="path36" /><path
         d="m -398,323.79 321.05,266.7"
         style="fill:none;stroke:#41c4a6;stroke-width:1;stroke-linecap:butt;stroke-linejoin:miter;stroke-miterlimit:10;stroke-dasharray:none;stroke-opacity:1"
         id="path38" /><path
         d="m 13.28,636.6 133.55,32.48"
         style="fill:none;stroke:#3fc066;stroke-width:1;stroke-linecap:butt;stroke-linejoin:miter;stroke-miterlimit:10;stroke-dasharray:none;stroke-opacity:1"
         id="path40" /><path
         d="m -54.74,577.86 -30.7,-75.89"
         style="fill:none;stroke:#3fc066;stroke-width:1;stroke-linecap:butt;stroke-linejoin:miter;stroke-miterlimit:10;stroke-dasharray:none;stroke-opacity:1"
         id="path42" /><path
         d="m -77.14,653.66 -75.17,52.7"
         style="fill:none;stroke:#3fc066;stroke-width:1;stroke-linecap:butt;stroke-linejoin:miter;stroke-miterlimit:10;stroke-dasharray:none;stroke-opacity:1"
         id="path44" /><path
         d="M 13.27,612.73 422.01,513.28"
         style="fill:none;stroke:#3fc066;stroke-width:1;stroke-linecap:butt;stroke-linejoin:miter;stroke-miterlimit:10;stroke-dasharray:none;stroke-opacity:1"
         id="path46" /><path
         d="m -153.77,-265.19 -36.75,-383.17"
         style="fill:none;stroke:#4cb1d1;stroke-width:1;stroke-linecap:butt;stroke-linejoin:miter;stroke-miterlimit:10;stroke-dasharray:none;stroke-opacity:1"
         id="path48" /><path
         d="m -246.11,-700.01 -240.42,7.68"
         style="fill:none;stroke:#41c4a6;stroke-width:1;stroke-linecap:butt;stroke-linejoin:miter;stroke-miterlimit:10;stroke-dasharray:none;stroke-opacity:1"
         id="path50" /><path
         d="m -582.9,-663.97 -116.15,72.19"
         style="fill:none;stroke:#3fc066;stroke-width:1;stroke-linecap:butt;stroke-linejoin:miter;stroke-miterlimit:10;stroke-dasharray:none;stroke-opacity:1"
         id="path52" /><path
         d="m -712.92,-524.13 62.25,77.68"
         style="fill:none;stroke:#52b240;stroke-width:1;stroke-linecap:butt;stroke-linejoin:miter;stroke-miterlimit:10;stroke-dasharray:none;stroke-opacity:1"
         id="path54" /><path
         d="m -532.94,-640.62 10.82,76.64"
         style="fill:none;stroke:#3fc066;stroke-width:1;stroke-linecap:butt;stroke-linejoin:miter;stroke-miterlimit:10;stroke-dasharray:none;stroke-opacity:1"
         id="path56" /><path
         d="m -196.25,-752.11 -1.31,-107.68"
         style="fill:none;stroke:#41c4a6;stroke-width:1;stroke-linecap:butt;stroke-linejoin:miter;stroke-miterlimit:10;stroke-dasharray:none;stroke-opacity:1"
         id="path58" /><path
         d="m -153.36,-673.99 90.45,59.11"
         style="fill:none;stroke:#41c4a6;stroke-width:1;stroke-linecap:butt;stroke-linejoin:miter;stroke-miterlimit:10;stroke-dasharray:none;stroke-opacity:1"
         id="path60" /><path
         d="m -217.27,-655.99 -33.29,70.22"
         style="fill:none;stroke:#41c4a6;stroke-width:1;stroke-linecap:butt;stroke-linejoin:miter;stroke-miterlimit:10;stroke-dasharray:none;stroke-opacity:1"
         id="path62" /><path
         d="M -151.48,-726.14 -6.46,-806.68"
         style="fill:none;stroke:#41c4a6;stroke-width:1;stroke-linecap:butt;stroke-linejoin:miter;stroke-miterlimit:10;stroke-dasharray:none;stroke-opacity:1"
         id="path64" /><path
         d="m 87.41,-814.44 117.27,45.37"
         style="fill:none;stroke:#3fc066;stroke-width:1;stroke-linecap:butt;stroke-linejoin:miter;stroke-miterlimit:10;stroke-dasharray:none;stroke-opacity:1"
         id="path66" /><path
         d="m -98.46,-213.92 309.64,6.15"
         style="fill:none;stroke:#4cb1d1;stroke-width:1;stroke-linecap:butt;stroke-linejoin:miter;stroke-miterlimit:10;stroke-dasharray:none;stroke-opacity:1"
         id="path68" /><path
         d="m 286.94,-252.03 31.83,-64.79"
         style="fill:none;stroke:#41c4a6;stroke-width:1;stroke-linecap:butt;stroke-linejoin:miter;stroke-miterlimit:10;stroke-dasharray:none;stroke-opacity:1"
         id="path70" /><path
         d="M 307.19,-179.46 518.58,-44"
         style="fill:none;stroke:#41c4a6;stroke-width:1;stroke-linecap:butt;stroke-linejoin:miter;stroke-miterlimit:10;stroke-dasharray:none;stroke-opacity:1"
         id="path72" /><path
         d="m 567.28,-65.5 6.7,-92.43"
         style="fill:none;stroke:#3fc066;stroke-width:1;stroke-linecap:butt;stroke-linejoin:miter;stroke-miterlimit:10;stroke-dasharray:none;stroke-opacity:1"
         id="path74" /><path
         d="m 608.83,-37.66 78.28,-39.01"
         style="fill:none;stroke:#3fc066;stroke-width:1;stroke-linecap:butt;stroke-linejoin:miter;stroke-miterlimit:10;stroke-dasharray:none;stroke-opacity:1"
         id="path76" /><path
         d="m 554.98,34.62 -71.83,413.3"
         style="fill:none;stroke:#3fc066;stroke-width:1;stroke-linecap:butt;stroke-linejoin:miter;stroke-miterlimit:10;stroke-dasharray:none;stroke-opacity:1"
         id="path78" /><path
         d="m 523.71,491.8 135.13,-24"
         style="fill:none;stroke:#52b240;stroke-width:1;stroke-linecap:butt;stroke-linejoin:miter;stroke-miterlimit:10;stroke-dasharray:none;stroke-opacity:1"
         id="path80" /><path
         d="M 424.89,488.82 301.85,459.24"
         style="fill:none;stroke:#52b240;stroke-width:1;stroke-linecap:butt;stroke-linejoin:miter;stroke-miterlimit:10;stroke-dasharray:none;stroke-opacity:1"
         id="path82" /><path
         d="M 442.3,461.31 336.98,330.6"
         style="fill:none;stroke:#52b240;stroke-width:1;stroke-linecap:butt;stroke-linejoin:miter;stroke-miterlimit:10;stroke-dasharray:none;stroke-opacity:1"
         id="path84" /><path
         d="M 464.02,550.13 439.61,671.4"
         style="fill:none;stroke:#52b240;stroke-width:1;stroke-linecap:butt;stroke-linejoin:miter;stroke-miterlimit:10;stroke-dasharray:none;stroke-opacity:1"
         id="path86" /><path
         d="M 431.8,528.39 243.51,652.31"
         style="fill:none;stroke:#41c049;stroke-width:1;stroke-linecap:butt;stroke-linejoin:miter;stroke-miterlimit:10;stroke-dasharray:none;stroke-opacity:1"
         id="path88" /><path
         d="m 511.29,534.67 88.29,80.57"
         style="fill:none;stroke:#52b240;stroke-width:1;stroke-linecap:butt;stroke-linejoin:miter;stroke-miterlimit:10;stroke-dasharray:none;stroke-opacity:1"
         id="path90" /><path
         d="m 505.97,461.54 94.7,-115.76"
         style="fill:none;stroke:#52b240;stroke-width:1;stroke-linecap:butt;stroke-linejoin:miter;stroke-miterlimit:10;stroke-dasharray:none;stroke-opacity:1"
         id="path92" /><path
         d="M 472.3,450.16 467.74,314.39"
         style="fill:none;stroke:#52b240;stroke-width:1;stroke-linecap:butt;stroke-linejoin:miter;stroke-miterlimit:10;stroke-dasharray:none;stroke-opacity:1"
         id="path94" /><path
         d="m -282.35,-187.93 3.24,0.88 -0.6,-2.94 z"
         style="fill:#4cb1d1;fill-opacity:1;fill-rule:nonzero;stroke:none"
         id="path96" /><path
         d="m -57.52,-118.17 -0.97,-3.21 -2.18,2.06 z"
         style="fill:#4cb1d1;fill-opacity:1;fill-rule:nonzero;stroke:none"
         id="path98" /><path
         d="m -411.89,247.62 2.79,-1.87 -2.61,-1.48 z"
         style="fill:#4cb1d1;fill-opacity:1;fill-rule:nonzero;stroke:none"
         id="path100" /><path
         d="m -475.95,132.92 -0.74,3.28 2.92,-0.72 z"
         style="fill:#41c4a6;fill-opacity:1;fill-rule:nonzero;stroke:none"
         id="path102" /><path
         d="m -308.01,213.02 -3.34,0.28 1.56,2.56 z"
         style="fill:#41c4a6;fill-opacity:1;fill-rule:nonzero;stroke:none"
         id="path104" /><path
         d="m -596.09,213.3 2.03,2.67 1.33,-2.69 z"
         style="fill:#41c4a6;fill-opacity:1;fill-rule:nonzero;stroke:none"
         id="path106" /><path
         d="m -589.89,361.45 3.36,0.12 -1.25,-2.73 z"
         style="fill:#41c4a6;fill-opacity:1;fill-rule:nonzero;stroke:none"
         id="path108" /><path
         d="m -460.75,447.93 1.94,-2.74 -2.97,-0.46 z"
         style="fill:#41c4a6;fill-opacity:1;fill-rule:nonzero;stroke:none"
         id="path110" /><path
         d="m -74.64,592.4 -1.35,-3.07 -1.92,2.31 z"
         style="fill:#41c4a6;fill-opacity:1;fill-rule:nonzero;stroke:none"
         id="path112" /><path
         d="m 149.75,669.79 -2.56,-2.17 -0.71,2.91 z"
         style="fill:#3fc066;fill-opacity:1;fill-rule:nonzero;stroke:none"
         id="path114" /><path
         d="m -86.57,499.19 -0.26,3.34 2.78,-1.12 z"
         style="fill:#3fc066;fill-opacity:1;fill-rule:nonzero;stroke:none"
         id="path116" /><path
         d="m -154.77,708.08 3.32,-0.5 -1.72,-2.45 z"
         style="fill:#3fc066;fill-opacity:1;fill-rule:nonzero;stroke:none"
         id="path118" /><path
         d="m 424.92,512.57 -3.27,-0.75 0.71,2.91 z"
         style="fill:#3fc066;fill-opacity:1;fill-rule:nonzero;stroke:none"
         id="path120" /><path
         d="m -190.81,-651.35 -1.21,3.13 2.99,-0.28 z"
         style="fill:#4cb1d1;fill-opacity:1;fill-rule:nonzero;stroke:none"
         id="path122" /><path
         d="m -489.53,-692.24 3.04,1.41 -0.09,-3 z"
         style="fill:#41c4a6;fill-opacity:1;fill-rule:nonzero;stroke:none"
         id="path124" /><path
         d="m -701.6,-590.2 3.34,-0.31 -1.59,-2.55 z"
         style="fill:#3fc066;fill-opacity:1;fill-rule:nonzero;stroke:none"
         id="path126" /><path
         d="m -648.79,-444.1 -0.71,-3.28 -2.34,1.87 z"
         style="fill:#52b240;fill-opacity:1;fill-rule:nonzero;stroke:none"
         id="path128" /><path
         d="m -521.7,-561.01 1.07,-3.18 -2.97,0.42 z"
         style="fill:#3fc066;fill-opacity:1;fill-rule:nonzero;stroke:none"
         id="path130" /><path
         d="m -197.6,-862.79 -1.46,3.02 3,-0.04 z"
         style="fill:#41c4a6;fill-opacity:1;fill-rule:nonzero;stroke:none"
         id="path132" /><path
         d="m -60.4,-613.24 -1.69,-2.89 -1.64,2.51 z"
         style="fill:#41c4a6;fill-opacity:1;fill-rule:nonzero;stroke:none"
         id="path134" /><path
         d="m -251.85,-583.06 2.64,-2.07 -2.71,-1.28 z"
         style="fill:#41c4a6;fill-opacity:1;fill-rule:nonzero;stroke:none"
         id="path136" /><path
         d="m -3.84,-808.14 -3.35,0.14 1.46,2.63 z"
         style="fill:#41c4a6;fill-opacity:1;fill-rule:nonzero;stroke:none"
         id="path138" /><path
         d="m 207.48,-767.98 -2.26,-2.48 -1.08,2.79 z"
         style="fill:#3fc066;fill-opacity:1;fill-rule:nonzero;stroke:none"
         id="path140" /><path
         d="m 214.18,-207.71 -2.97,-1.56 -0.06,3 z"
         style="fill:#4cb1d1;fill-opacity:1;fill-rule:nonzero;stroke:none"
         id="path142" /><path
         d="m 320.09,-319.51 -2.67,2.03 2.7,1.32 z"
         style="fill:#41c4a6;fill-opacity:1;fill-rule:nonzero;stroke:none"
         id="path144" /><path
         d="m 521.11,-42.38 -1.72,-2.88 -1.62,2.52 z"
         style="fill:#41c4a6;fill-opacity:1;fill-rule:nonzero;stroke:none"
         id="path146" /><path
         d="m 574.19,-160.92 -1.71,2.88 2.99,0.22 z"
         style="fill:#3fc066;fill-opacity:1;fill-rule:nonzero;stroke:none"
         id="path148" /><path
         d="m 689.8,-78 -3.36,-0.01 1.34,2.69 z"
         style="fill:#3fc066;fill-opacity:1;fill-rule:nonzero;stroke:none"
         id="path150" /><path
         d="m 482.64,450.87 1.99,-2.7 -2.96,-0.51 z"
         style="fill:#3fc066;fill-opacity:1;fill-rule:nonzero;stroke:none"
         id="path152" /><path
         d="m 661.79,467.27 -3.22,-0.95 0.53,2.95 z"
         style="fill:#52b240;fill-opacity:1;fill-rule:nonzero;stroke:none"
         id="path154" /><path
         d="m 298.93,458.54 2.57,2.16 0.7,-2.91 z"
         style="fill:#52b240;fill-opacity:1;fill-rule:nonzero;stroke:none"
         id="path156" /><path
         d="m 335.1,328.26 0.71,3.28 2.34,-1.88 z"
         style="fill:#52b240;fill-opacity:1;fill-rule:nonzero;stroke:none"
         id="path158" /><path
         d="m 439.02,674.34 2.06,-2.64 -2.94,-0.59 z"
         style="fill:#52b240;fill-opacity:1;fill-rule:nonzero;stroke:none"
         id="path160" /><path
         d="m 241,653.96 3.33,-0.4 -1.65,-2.51 z"
         style="fill:#41c049;fill-opacity:1;fill-rule:nonzero;stroke:none"
         id="path162" /><path
         d="m 601.79,617.26 -1.2,-3.13 -2.02,2.21 z"
         style="fill:#52b240;fill-opacity:1;fill-rule:nonzero;stroke:none"
         id="path164" /><path
         d="m 602.57,343.45 -3.06,1.38 2.32,1.9 z"
         style="fill:#52b240;fill-opacity:1;fill-rule:nonzero;stroke:none"
         id="path166" /><path
         d="m 467.64,311.39 -1.4,3.05 3,-0.1 z"
         style="fill:#52b240;fill-opacity:1;fill-rule:nonzero;stroke:none"
         id="path168" /><path
         d="m -98.95,-214.92 c 0,27.62 -22.38,50 -50,50 -27.61,0 -50,-22.38 -50,-50 0,-27.61 22.39,-50 50,-50 27.62,0 50,22.39 50,50"
         style="fill:#549ada;fill-opacity:1;fill-rule:nonzero;stroke:#000000;stroke-width:1;stroke-linecap:butt;stroke-linejoin:miter;stroke-miterlimit:10;stroke-dasharray:none;stroke-opacity:1"
         id="path170" /><path
         d="m -281.85,-177.91 c 0,27.61 -22.38,50 -50,50 -27.61,0 -50,-22.39 -50,-50 0,-27.62 22.39,-50 50,-50 27.62,0 50,22.38 50,50"
         style="fill:#44c8c9;fill-opacity:1;fill-rule:nonzero;stroke:#000000;stroke-width:1;stroke-linecap:butt;stroke-linejoin:miter;stroke-miterlimit:10;stroke-dasharray:none;stroke-opacity:1"
         id="path172" /><path
         d="m 27.17,-81.47 c 0,27.61 -22.39,50 -50,50 -27.62,0 -50,-22.39 -50,-50 0,-27.62 22.38,-50 50,-50 27.61,0 50,22.38 50,50"
         style="fill:#44c8c9;fill-opacity:1;fill-rule:nonzero;stroke:#000000;stroke-width:1;stroke-linecap:butt;stroke-linejoin:miter;stroke-miterlimit:10;stroke-dasharray:none;stroke-opacity:1"
         id="path174" /><path
         d="m -386.85,291.52 c 0,27.61 -22.38,50 -50,50 -27.61,0 -50,-22.39 -50,-50 0,-27.62 22.39,-50 50,-50 27.62,0 50,22.38 50,50"
         style="fill:#44c8c9;fill-opacity:1;fill-rule:nonzero;stroke:#000000;stroke-width:1;stroke-linecap:butt;stroke-linejoin:miter;stroke-miterlimit:10;stroke-dasharray:none;stroke-opacity:1"
         id="path176" /><path
         d="m -438.04,83.89 c 0,27.62 -22.38,50 -50,50 -27.61,0 -50,-22.38 -50,-50 0,-27.61 22.39,-50 50,-50 27.62,0 50,22.39 50,50"
         style="fill:#3ec084;fill-opacity:1;fill-rule:nonzero;stroke:#000000;stroke-width:1;stroke-linecap:butt;stroke-linejoin:miter;stroke-miterlimit:10;stroke-dasharray:none;stroke-opacity:1"
         id="path178" /><path
         d="m -214.89,186.74 c 0,27.62 -22.38,50 -50,50 -27.61,0 -50,-22.38 -50,-50 0,-27.61 22.39,-50 50,-50 27.62,0 50,22.39 50,50"
         style="fill:#3ec084;fill-opacity:1;fill-rule:nonzero;stroke:#000000;stroke-width:1;stroke-linecap:butt;stroke-linejoin:miter;stroke-miterlimit:10;stroke-dasharray:none;stroke-opacity:1"
         id="path180" /><path
         d="m -591.42,191.04 c 0,27.61 -22.38,50 -50,50 -27.61,0 -50,-22.39 -50,-50 0,-27.62 22.39,-50 50,-50 27.62,0 50,22.38 50,50"
         style="fill:#3ec084;fill-opacity:1;fill-rule:nonzero;stroke:#000000;stroke-width:1;stroke-linecap:butt;stroke-linejoin:miter;stroke-miterlimit:10;stroke-dasharray:none;stroke-opacity:1"
         id="path182" /><path
         d="m -585.82,382.44 c 0,27.62 -22.38,50 -50,50 -27.61,0 -50,-22.38 -50,-50 0,-27.61 22.39,-50 50,-50 27.62,0 50,22.39 50,50"
         style="fill:#3ec084;fill-opacity:1;fill-rule:nonzero;stroke:#000000;stroke-width:1;stroke-linecap:butt;stroke-linejoin:miter;stroke-miterlimit:10;stroke-dasharray:none;stroke-opacity:1"
         id="path184" /><path
         d="m -418.38,497.85 c 0,27.61 -22.38,50 -50,50 -27.61,0 -50,-22.39 -50,-50 0,-27.62 22.39,-50 50,-50 27.62,0 50,22.38 50,50"
         style="fill:#3ec084;fill-opacity:1;fill-rule:nonzero;stroke:#000000;stroke-width:1;stroke-linecap:butt;stroke-linejoin:miter;stroke-miterlimit:10;stroke-dasharray:none;stroke-opacity:1"
         id="path186" /><path
         d="m 14.21,624.67 c 0,27.62 -22.39,50 -50,50 -27.62,0 -50,-22.38 -50,-50 0,-27.61 22.38,-50 50,-50 27.61,0 50,22.39 50,50"
         style="fill:#3ec084;fill-opacity:1;fill-rule:nonzero;stroke:#000000;stroke-width:1;stroke-linecap:butt;stroke-linejoin:miter;stroke-miterlimit:10;stroke-dasharray:none;stroke-opacity:1"
         id="path188" /><path
         d="m 248.82,681.72 c 0,27.61 -22.39,50 -50,50 -27.62,0 -50,-22.39 -50,-50 0,-27.62 22.38,-50 50,-50 27.61,0 50,22.38 50,50"
         style="fill:#41c049;fill-opacity:1;fill-rule:nonzero;stroke:#000000;stroke-width:1;stroke-linecap:butt;stroke-linejoin:miter;stroke-miterlimit:10;stroke-dasharray:none;stroke-opacity:1"
         id="path190" /><path
         d="m -55.51,452.38 c 0,27.61 -22.38,50 -50,50 -27.61,0 -50,-22.39 -50,-50 0,-27.62 22.39,-50 50,-50 27.62,0 50,22.38 50,50"
         style="fill:#41c049;fill-opacity:1;fill-rule:nonzero;stroke:#000000;stroke-width:1;stroke-linecap:butt;stroke-linejoin:miter;stroke-miterlimit:10;stroke-dasharray:none;stroke-opacity:1"
         id="path192" /><path
         d="m -146.12,737.07 c 0,27.61 -22.38,50 -50,50 -27.61,0 -50,-22.39 -50,-50 0,-27.62 22.39,-50 50,-50 27.62,0 50,22.38 50,50"
         style="fill:#41c049;fill-opacity:1;fill-rule:nonzero;stroke:#000000;stroke-width:1;stroke-linecap:butt;stroke-linejoin:miter;stroke-miterlimit:10;stroke-dasharray:none;stroke-opacity:1"
         id="path194" /><path
         d="m 523.99,500.63 c 0,27.61 -22.39,50 -50,50 -27.62,0 -50,-22.39 -50,-50 0,-27.62 22.38,-50 50,-50 27.61,0 50,22.38 50,50"
         style="fill:#41c049;fill-opacity:1;fill-rule:nonzero;stroke:#000000;stroke-width:1;stroke-linecap:butt;stroke-linejoin:miter;stroke-miterlimit:10;stroke-dasharray:none;stroke-opacity:1"
         id="path196" /><path
         d="m -145.63,-701.62 c 0,27.62 -22.39,50 -50,50 -27.62,0 -50,-22.38 -50,-50 0,-27.61 22.38,-50 50,-50 27.61,0 50,22.39 50,50"
         style="fill:#44c8c9;fill-opacity:1;fill-rule:nonzero;stroke:#000000;stroke-width:1;stroke-linecap:butt;stroke-linejoin:miter;stroke-miterlimit:10;stroke-dasharray:none;stroke-opacity:1"
         id="path198" /><path
         d="m -490.01,-690.63 c 0,27.62 -22.38,50 -50,50 -27.61,0 -50,-22.38 -50,-50 0,-27.61 22.39,-50 50,-50 27.62,0 50,22.39 50,50"
         style="fill:#3ec084;fill-opacity:1;fill-rule:nonzero;stroke:#000000;stroke-width:1;stroke-linecap:butt;stroke-linejoin:miter;stroke-miterlimit:10;stroke-dasharray:none;stroke-opacity:1"
         id="path200" /><path
         d="m -694.49,-563.54 c 0,27.61 -22.39,50 -50,50 -27.62,0 -50,-22.39 -50,-50 0,-27.62 22.38,-50 50,-50 27.61,0 50,22.38 50,50"
         style="fill:#41c049;fill-opacity:1;fill-rule:nonzero;stroke:#000000;stroke-width:1;stroke-linecap:butt;stroke-linejoin:miter;stroke-miterlimit:10;stroke-dasharray:none;stroke-opacity:1"
         id="path202" /><path
         d="m -567.22,-404.69 c 0,27.61 -22.38,50 -50,50 -27.61,0 -50,-22.39 -50,-50 0,-27.62 22.39,-50 50,-50 27.62,0 50,22.38 50,50"
         style="fill:#63a437;fill-opacity:1;fill-rule:nonzero;stroke:#000000;stroke-width:1;stroke-linecap:butt;stroke-linejoin:miter;stroke-miterlimit:10;stroke-dasharray:none;stroke-opacity:1"
         id="path204" /><path
         d="m -464.64,-511.01 c 0,27.62 -22.38,50 -50,50 -27.61,0 -50,-22.38 -50,-50 0,-27.61 22.39,-50 50,-50 27.62,0 50,22.39 50,50"
         style="fill:#41c049;fill-opacity:1;fill-rule:nonzero;stroke:#000000;stroke-width:1;stroke-linecap:butt;stroke-linejoin:miter;stroke-miterlimit:10;stroke-dasharray:none;stroke-opacity:1"
         id="path206" /><path
         d="m -148.21,-913.28 c 0,27.61 -22.39,50 -50,50 -27.62,0 -50,-22.39 -50,-50 0,-27.62 22.38,-50 50,-50 27.61,0 50,22.38 50,50"
         style="fill:#3ec084;fill-opacity:1;fill-rule:nonzero;stroke:#000000;stroke-width:1;stroke-linecap:butt;stroke-linejoin:miter;stroke-miterlimit:10;stroke-dasharray:none;stroke-opacity:1"
         id="path208" /><path
         d="m 31.87,-585.61 c 0,27.62 -22.38,50 -50,50 -27.61,0 -50,-22.38 -50,-50 0,-27.61 22.39,-50 50,-50 27.62,0 50,22.39 50,50"
         style="fill:#3ec084;fill-opacity:1;fill-rule:nonzero;stroke:#000000;stroke-width:1;stroke-linecap:butt;stroke-linejoin:miter;stroke-miterlimit:10;stroke-dasharray:none;stroke-opacity:1"
         id="path210" /><path
         d="m -223.48,-537.43 c 0,27.62 -22.39,50 -50,50 -27.62,0 -50,-22.38 -50,-50 0,-27.61 22.38,-50 50,-50 27.61,0 50,22.39 50,50"
         style="fill:#3ec084;fill-opacity:1;fill-rule:nonzero;stroke:#000000;stroke-width:1;stroke-linecap:butt;stroke-linejoin:miter;stroke-miterlimit:10;stroke-dasharray:none;stroke-opacity:1"
         id="path212" /><path
         d="m 90.31,-832.66 c 0,27.61 -22.38,50 -50,50 -27.61,0 -50,-22.39 -50,-50 0,-27.62 22.39,-50 50,-50 27.62,0 50,22.38 50,50"
         style="fill:#3ec084;fill-opacity:1;fill-rule:nonzero;stroke:#000000;stroke-width:1;stroke-linecap:butt;stroke-linejoin:miter;stroke-miterlimit:10;stroke-dasharray:none;stroke-opacity:1"
         id="path214" /><path
         d="m 304.58,-749.76 c 0,27.61 -22.39,50 -50,50 -27.62,0 -50,-22.39 -50,-50 0,-27.62 22.38,-50 50,-50 27.61,0 50,22.38 50,50"
         style="fill:#41c049;fill-opacity:1;fill-rule:nonzero;stroke:#000000;stroke-width:1;stroke-linecap:butt;stroke-linejoin:miter;stroke-miterlimit:10;stroke-dasharray:none;stroke-opacity:1"
         id="path216" /><path
         d="m 314.67,-206.7 c 0,27.61 -22.39,50 -50,50 -27.62,0 -50,-22.39 -50,-50 0,-27.62 22.38,-50 50,-50 27.61,0 50,22.38 50,50"
         style="fill:#44c8c9;fill-opacity:1;fill-rule:nonzero;stroke:#000000;stroke-width:1;stroke-linecap:butt;stroke-linejoin:miter;stroke-miterlimit:10;stroke-dasharray:none;stroke-opacity:1"
         id="path218" /><path
         d="m 392.36,-364.83 c 0,27.61 -22.38,50 -50,50 -27.61,0 -50,-22.39 -50,-50 0,-27.62 22.39,-50 50,-50 27.62,0 50,22.38 50,50"
         style="fill:#3ec084;fill-opacity:1;fill-rule:nonzero;stroke:#000000;stroke-width:1;stroke-linecap:butt;stroke-linejoin:miter;stroke-miterlimit:10;stroke-dasharray:none;stroke-opacity:1"
         id="path220" /><path
         d="m 613.63,-15.13 c 0,27.61 -22.39,50 -50,50 -27.62,0 -50,-22.39 -50,-50 0,-27.62 22.38,-50 50,-50 27.61,0 50,22.38 50,50"
         style="fill:#3ec084;fill-opacity:1;fill-rule:nonzero;stroke:#000000;stroke-width:1;stroke-linecap:butt;stroke-linejoin:miter;stroke-miterlimit:10;stroke-dasharray:none;stroke-opacity:1"
         id="path222" /><path
         d="m 627.85,-211.29 c 0,27.61 -22.39,50 -50,50 -27.62,0 -50,-22.39 -50,-50 0,-27.62 22.38,-50 50,-50 27.61,0 50,22.38 50,50"
         style="fill:#41c049;fill-opacity:1;fill-rule:nonzero;stroke:#000000;stroke-width:1;stroke-linecap:butt;stroke-linejoin:miter;stroke-miterlimit:10;stroke-dasharray:none;stroke-opacity:1"
         id="path224" /><path
         d="m 785,-100.53 c 0,27.62 -22.39,50 -50,50 -27.62,0 -50,-22.38 -50,-50 0,-27.61 22.38,-50 50,-50 27.61,0 50,22.39 50,50"
         style="fill:#41c049;fill-opacity:1;fill-rule:nonzero;stroke:#000000;stroke-width:1;stroke-linecap:butt;stroke-linejoin:miter;stroke-miterlimit:10;stroke-dasharray:none;stroke-opacity:1"
         id="path226" /><path
         d="m 761.51,458.44 c 0,27.62 -22.38,50 -50,50 -27.61,0 -50,-22.38 -50,-50 0,-27.61 22.39,-50 50,-50 27.62,0 50,22.39 50,50"
         style="fill:#63a437;fill-opacity:1;fill-rule:nonzero;stroke:#000000;stroke-width:1;stroke-linecap:butt;stroke-linejoin:miter;stroke-miterlimit:10;stroke-dasharray:none;stroke-opacity:1"
         id="path228" /><path
         d="m 299.83,446.74 c 0,27.61 -22.38,50 -50,50 -27.61,0 -50,-22.39 -50,-50 0,-27.62 22.39,-50 50,-50 27.62,0 50,22.38 50,50"
         style="fill:#63a437;fill-opacity:1;fill-rule:nonzero;stroke:#000000;stroke-width:1;stroke-linecap:butt;stroke-linejoin:miter;stroke-miterlimit:10;stroke-dasharray:none;stroke-opacity:1"
         id="path230" /><path
         d="m 353.41,288.94 c 0,27.62 -22.38,50 -50,50 -27.61,0 -50,-22.38 -50,-50 0,-27.61 22.39,-50 50,-50 27.62,0 50,22.39 50,50"
         style="fill:#63a437;fill-opacity:1;fill-rule:nonzero;stroke:#000000;stroke-width:1;stroke-linecap:butt;stroke-linejoin:miter;stroke-miterlimit:10;stroke-dasharray:none;stroke-opacity:1"
         id="path232" /><path
         d="m 479.06,723.85 c 0,27.62 -22.39,50 -50,50 -27.62,0 -50,-22.38 -50,-50 0,-27.61 22.38,-50 50,-50 27.61,0 50,22.39 50,50"
         style="fill:#63a437;fill-opacity:1;fill-rule:nonzero;stroke:#000000;stroke-width:1;stroke-linecap:butt;stroke-linejoin:miter;stroke-miterlimit:10;stroke-dasharray:none;stroke-opacity:1"
         id="path234" /><path
         d="m 689.1,651.3 c 0,27.61 -22.39,50 -50,50 -27.62,0 -50,-22.39 -50,-50 0,-27.62 22.38,-50 50,-50 27.61,0 50,22.38 50,50"
         style="fill:#63a437;fill-opacity:1;fill-rule:nonzero;stroke:#000000;stroke-width:1;stroke-linecap:butt;stroke-linejoin:miter;stroke-miterlimit:10;stroke-dasharray:none;stroke-opacity:1"
         id="path236" /><path
         d="m 684.55,304.37 c 0,27.61 -22.38,50 -50,50 -27.61,0 -50,-22.39 -50,-50 0,-27.62 22.39,-50 50,-50 27.62,0 50,22.38 50,50"
         style="fill:#63a437;fill-opacity:1;fill-rule:nonzero;stroke:#000000;stroke-width:1;stroke-linecap:butt;stroke-linejoin:miter;stroke-miterlimit:10;stroke-dasharray:none;stroke-opacity:1"
         id="path238" /><path
         d="m 515.95,260.92 c 0,27.61 -22.39,50 -50,50 -27.62,0 -50,-22.39 -50,-50 0,-27.62 22.38,-50 50,-50 27.61,0 50,22.38 50,50"
         style="fill:#63a437;fill-opacity:1;fill-rule:nonzero;stroke:#000000;stroke-width:1;stroke-linecap:butt;stroke-linejoin:miter;stroke-miterlimit:10;stroke-dasharray:none;stroke-opacity:1"
         id="path240" /><text
         transform="matrix(1,0,0,-1,-197.61,-219.21)"
         style="font-variant:normal;font-weight:normal;font-size:17px;font-family:Arial;-inkscape-font-specification:ArialMT;writing-mode:lr-tb;fill:#000000;fill-opacity:1;fill-rule:nonzero;stroke:none"
         id="text244"><tspan
           x="0 12.274 21.726 31.177999 40.630001 46.291 55.743 65.195 68.969002 78.420998 87.873001"
           y="0"
           id="tspan242">Naherholung</tspan></text><text
         transform="matrix(1,0,0,-1,-396.07,-182.32)"
         style="font-variant:normal;font-weight:normal;font-size:17px;font-family:Arial;-inkscape-font-specification:ArialMT;writing-mode:lr-tb;fill:#000000;fill-opacity:1;fill-rule:nonzero;stroke:none"
         id="text248"><tspan
           x="0 13.209 22.660999 28.322001 33.030998 42.483002 51.935001 57.596001 67.047997 76.5 85.952003 89.725998 99.178001 109.548 119"
           y="0"
           id="tspan246">Gärten-genießen</tspan></text><text
         transform="matrix(1,0,0,-1,-113.93,-85.87)"
         style="font-variant:normal;font-weight:normal;font-size:17px;font-family:Arial;-inkscape-font-specification:ArialMT;writing-mode:lr-tb;fill:#000000;fill-opacity:1;fill-rule:nonzero;stroke:none"
         id="text252"><tspan
           x="0 4.7090001 14.161 18.870001 28.322001 36.821999 41.530998 47.192001 58.514 64.175003 73.626999 77.401001 86.852997 95.352997 100.062 109.514 114.223 119.884 130.254 139.70599 145.367 159.528 163.302 172.754"
           y="0"
           id="tspan250">Infos,-Projekte,-Termine</tspan></text><text
         transform="matrix(1,0,0,-1,-499.66,285.54)"
         style="font-variant:normal;font-weight:normal;font-size:17px;font-family:Arial;-inkscape-font-specification:ArialMT;writing-mode:lr-tb;fill:#000000;fill-opacity:1;fill-rule:nonzero;stroke:none"
         id="text256"><tspan
           x="0 12.274 21.726 26.434999 35.887001 41.548 47.209 56.660999 66.112999 70.821999 80.274002 89.725998 98.225998 106.726 116.178"
           y="0"
           id="tspan254">Natur-entdecken</tspan></text><text
         transform="matrix(1,0,0,-1,-514.95,77.91)"
         style="font-variant:normal;font-weight:normal;font-size:17px;font-family:Arial;-inkscape-font-specification:ArialMT;writing-mode:lr-tb;fill:#000000;fill-opacity:1;fill-rule:nonzero;stroke:none"
         id="text260"><tspan
           x="0 12.274 21.726 25.5 34 38.709 48.160999"
           y="0"
           id="tspan258">Deister</tspan></text><text
         transform="matrix(1,0,0,-1,-350.86,180.66)"
         style="font-variant:normal;font-weight:normal;font-size:17px;font-family:Arial;-inkscape-font-specification:ArialMT;writing-mode:lr-tb;fill:#000000;fill-opacity:1;fill-rule:nonzero;stroke:none"
         id="text264"><tspan
           x="0 12.274 16.048 25.5 31.160999 42.483002 51.935001 61.387001 65.161003 68.934998 77.434998 86.887001 96.338997 102 111.452 120.904 124.678 134.13 143.582 153.034 162.48599"
           y="0"
           id="tspan262">Die-Südliche-Leineaue</tspan></text><text
         transform="matrix(1,0,0,-1,-711.32,184.94)"
         style="font-variant:normal;font-weight:normal;font-size:17px;font-family:Arial;-inkscape-font-specification:ArialMT;writing-mode:lr-tb;fill:#000000;fill-opacity:1;fill-rule:nonzero;stroke:none"
         id="text268"><tspan
           x="0 9.4519997 18.903999 28.356001 37.807999 46.307999 54.807999 64.260002 73.711998 78.420998 83.129997 91.629997 97.291 106.743 116.195 130.356"
           y="0"
           id="tspan266">Landschaftsräume</tspan></text><text
         transform="matrix(1,0,0,-1,-659.91,376.46)"
         style="font-variant:normal;font-weight:normal;font-size:17px;font-family:Arial;-inkscape-font-specification:ArialMT;writing-mode:lr-tb;fill:#000000;fill-opacity:1;fill-rule:nonzero;stroke:none"
         id="text272"><tspan
           x="0 14.161 23.613001 33.064999 38.726002"
           y="0"
           id="tspan270">Moore</tspan></text><text
         transform="matrix(1,0,0,-1,-488.22,491.76)"
         style="font-variant:normal;font-weight:normal;font-size:17px;font-family:Arial;-inkscape-font-specification:ArialMT;writing-mode:lr-tb;fill:#000000;fill-opacity:1;fill-rule:nonzero;stroke:none"
         id="text276"><tspan
           x="0 11.322 20.774 30.226"
           y="0"
           id="tspan274">Seen</tspan></text><text
         transform="matrix(1,0,0,-1,-62.71,618.65)"
         style="font-variant:normal;font-weight:normal;font-size:17px;font-family:Arial;-inkscape-font-specification:ArialMT;writing-mode:lr-tb;fill:#000000;fill-opacity:1;fill-rule:nonzero;stroke:none"
         id="text280"><tspan
           x="0 16.031 25.483 29.257 38.709 48.160999"
           y="0"
           id="tspan278">Wälder</tspan></text><text
         transform="matrix(1,0,0,-1,145.45,675.73)"
         style="font-variant:normal;font-weight:normal;font-size:17px;font-family:Arial;-inkscape-font-specification:ArialMT;writing-mode:lr-tb;fill:#000000;fill-opacity:1;fill-rule:nonzero;stroke:none"
         id="text284"><tspan
           x="0 12.274 16.048 25.5 31.160999 42.483002 46.257 50.030998 59.483002 68.934998 74.596001 78.370003 87.821999 97.274002"
           y="0"
           id="tspan282">Die-Eilenriede</tspan></text><text
         transform="matrix(1,0,0,-1,-182.95,446.39)"
         style="font-variant:normal;font-weight:normal;font-size:17px;font-family:Arial;-inkscape-font-specification:ArialMT;writing-mode:lr-tb;fill:#000000;fill-opacity:1;fill-rule:nonzero;stroke:none"
         id="text288"><tspan
           x="0 14.161 23.613001 32.112999 40.612999 44.387001 53.839001 63.291 72.742996 82.195 85.969002 95.420998 104.873 110.534 116.195 126.565 136.017 141.67799 150.17799"
           y="0"
           id="tspan286">Mecklenheider-Forst</tspan></text><text
         transform="matrix(1,0,0,-1,-261.75,730.98)"
         style="font-variant:normal;font-weight:normal;font-size:17px;font-family:Arial;-inkscape-font-specification:ArialMT;writing-mode:lr-tb;fill:#000000;fill-opacity:1;fill-rule:nonzero;stroke:none"
         id="text292"><tspan
           x="0 11.322 20.774 30.226 34 43.452 52.903999 58.564999 67.065002 71.774002 81.225998 86.887001 92.547997 108.579 118.031 121.805"
           y="0"
           id="tspan290">Seelhorster-Wald</tspan></text><text
         transform="matrix(1,0,0,-1,389,494.64)"
         style="font-variant:normal;font-weight:normal;font-size:17px;font-family:Arial;-inkscape-font-specification:ArialMT;writing-mode:lr-tb;fill:#000000;fill-opacity:1;fill-rule:nonzero;stroke:none"
         id="text296"><tspan
           x="0 16.031 25.483 29.257 38.709 47.209 51.917999 61.369999 66.079002 69.852997 79.305 88.757004 94.417999 105.74 109.514 113.288 122.74 132.192 137.853 141.627 151.07899 160.53101"
           y="0"
           id="tspan294">Waldstation-Eilenriede</tspan></text><text
         transform="matrix(1,0,0,-1,-247.58,-707.6)"
         style="font-variant:normal;font-weight:normal;font-size:17px;font-family:Arial;-inkscape-font-specification:ArialMT;writing-mode:lr-tb;fill:#000000;fill-opacity:1;fill-rule:nonzero;stroke:none"
         id="text300"><tspan
           x="0 12.274 21.726 26.434999 35.887001 41.548 47.209 56.660999 62.321999 66.096001 75.547997 85 94.452003"
           y="0"
           id="tspan298">Natur-erleben</tspan></text><text
         transform="matrix(1,0,0,-1,-575.43,-694.92)"
         style="font-variant:normal;font-weight:normal;font-size:17px;font-family:Arial;-inkscape-font-specification:ArialMT;writing-mode:lr-tb;fill:#000000;fill-opacity:1;fill-rule:nonzero;stroke:none"
         id="text304"><tspan
           x="0 11.322 20.774 33.048 42.5 51.952 61.403999"
           y="0"
           id="tspan302">Bewegen</tspan></text><text
         transform="matrix(1,0,0,-1,-804.94,-567.94)"
         style="font-variant:normal;font-weight:normal;font-size:17px;font-family:Arial;-inkscape-font-specification:ArialMT;writing-mode:lr-tb;fill:#000000;fill-opacity:1;fill-rule:nonzero;stroke:none"
         id="text308"><tspan
           x="0 10.37 14.144 18.853001 28.305 37.757 46.257 54.757 64.209 73.661003 79.321999 87.821999 97.274002 106.726 112.387"
           y="0"
           id="tspan306">Fitnessparcours</tspan></text><text
         transform="matrix(1,0,0,-1,-808.47,-409.1)"
         style="font-variant:normal;font-weight:normal;font-size:17px;font-family:Arial;-inkscape-font-specification:ArialMT;writing-mode:lr-tb;fill:#000000;fill-opacity:1;fill-rule:nonzero;stroke:none"
         id="text312"><tspan
           x="0 10.37 14.144 18.853001 28.305 37.757 46.257 54.757 67.030998 70.805 80.257004 88.757004 98.209 103.87 113.322 127.483 133.144 144.466 152.966 162.418 176.57899 186.03101 194.53101 203.983 208.692 218.144 227.59599 237.048 242.709 252.161 257.82199 261.59601 271.048 276.70901 286.16101 295.61301 301.27399 306.935 318.25699 322.03101 325.80499 335.25699 344.70901 350.37 354.14401 363.59601 373.048"
           y="0"
           id="tspan310">Fitnesswiese-am-Schmachteberg-in-der-Eilenriede</tspan></text><text
         transform="matrix(1,0,0,-1,-644,-517.1)"
         style="font-variant:normal;font-weight:normal;font-size:17px;font-family:Arial;-inkscape-font-specification:ArialMT;writing-mode:lr-tb;fill:#000000;fill-opacity:1;fill-rule:nonzero;stroke:none"
         id="text316"><tspan
           x="0 10.37 16.031 19.805 33.966 48.126999 53.787998 66.061996 69.835999 78.335999 87.788002 93.448997 104.771 109.48 118.932 128.384 134.045 137.819 147.271 152.93201 162.384 171.836 177.49699 183.158 194.48 198.254 202.028 211.48 220.93201 226.593 230.367 239.819 249.271"
           y="0"
           id="tspan314">Trimm-Dich-Pfad-in-der-Eilenriede</tspan></text><text
         transform="matrix(1,0,0,-1,-292.18,-917.68)"
         style="font-variant:normal;font-weight:normal;font-size:17px;font-family:Arial;-inkscape-font-specification:ArialMT;writing-mode:lr-tb;fill:#000000;fill-opacity:1;fill-rule:nonzero;stroke:none"
         id="text320"><tspan
           x="0 12.274 21.726 27.386999 33.048 45.321999 54.773998 58.548 67.047997 71.757004 81.209 86.870003 92.530998 108.562 118.014 127.466 136.918 146.37 152.03101 161.483 170.935 179.435"
           y="0"
           id="tspan318">Der-Deister-Wanderpass</tspan></text><text
         transform="matrix(1,0,0,-1,-136.03,-591.59)"
         style="font-variant:normal;font-weight:normal;font-size:17px;font-family:Arial;-inkscape-font-specification:ArialMT;writing-mode:lr-tb;fill:#000000;fill-opacity:1;fill-rule:nonzero;stroke:none"
         id="text324"><tspan
           x="0 10.37 19.822001 23.596001 28.305 36.805 46.257 51.917999 56.626999 66.079002 71.739998 77.758003 93.789001 103.241 112.693 122.145 131.597 137.258 146.71001 152.371 156.145 170.306 175.967 188.241 197.69299 201.467 209.967 214.67599 224.12801 229.789"
           y="0"
           id="tspan322">Faltkarte-&quot;Wandern-im-Deister&quot;</tspan></text><text
         transform="matrix(1,0,0,-1,-426.48,-543.52)"
         style="font-variant:normal;font-weight:normal;font-size:17px;font-family:Arial;-inkscape-font-specification:ArialMT;writing-mode:lr-tb;fill:#000000;fill-opacity:1;fill-rule:nonzero;stroke:none"
         id="text328"><tspan
           x="0 14.161 17.934999 22.643999 28.305 39.626999 49.078999 57.578999 63.240002 72.692001 82.143997 91.596001 97.257004 108.579 118.031 127.483 136.935 142.59599 152.048 161.5 166.209 171.87 181.32201 190.774 200.226 205.88699 218.161 227.61301 231.38699 239.88699 244.59599 254.048 259.70901 268.20901 277.66101 291.82199"
           y="0"
           id="tspan326">Mit-Bus-und-Bahn-auf-den-Deisterkamm</tspan></text><text
         transform="matrix(1,0,0,-1,0.63337,-838.76)"
         style="font-variant:normal;font-weight:normal;font-size:17px;font-family:Arial;-inkscape-font-specification:ArialMT;writing-mode:lr-tb;fill:#000000;fill-opacity:1;fill-rule:nonzero;stroke:none"
         id="text332"><tspan
           x="0 12.274 21.726 31.177999 35.887001 45.339001 54.791 60.452 69.903999"
           y="0"
           id="tspan330">Radfahren</tspan></text><text
         transform="matrix(1,0,0,-1,201.21,-754.05)"
         style="font-variant:normal;font-weight:normal;font-size:17px;font-family:Arial;-inkscape-font-specification:ArialMT;writing-mode:lr-tb;fill:#000000;fill-opacity:1;fill-rule:nonzero;stroke:none"
         id="text336"><tspan
           x="0 10.37 19.822001 29.274 34.935001 40.596001 50.048 59.5 65.161003 74.612999 84.065002 87.838997 97.291"
           y="0"
           id="tspan334">Fahrradregion</tspan></text><text
         transform="matrix(1,0,0,-1,203.75,-212.69)"
         style="font-variant:normal;font-weight:normal;font-size:17px;font-family:Arial;-inkscape-font-specification:ArialMT;writing-mode:lr-tb;fill:#000000;fill-opacity:1;fill-rule:nonzero;stroke:none"
         id="text340"><tspan
           x="0 12.274 21.726 26.434999 35.887001 41.548 47.209 55.709 65.161003 70.821999 79.321999 84.030998 93.483002 102.935 112.387"
           y="0"
           id="tspan338">Natur-verstehen</tspan></text><text
         transform="matrix(1,0,0,-1,290.41,-369.34)"
         style="font-variant:normal;font-weight:normal;font-size:17px;font-family:Arial;-inkscape-font-specification:ArialMT;writing-mode:lr-tb;fill:#000000;fill-opacity:1;fill-rule:nonzero;stroke:none"
         id="text344"><tspan
           x="0 11.322 16.983 20.757 30.209 39.660999 49.112999 52.887001 61.387001 70.838997 75.547997 85 94.452003"
           y="0"
           id="tspan342">Erlebnispfade</tspan></text><text
         transform="matrix(1,0,0,-1,514.05,-21.12)"
         style="font-variant:normal;font-weight:normal;font-size:17px;font-family:Arial;-inkscape-font-specification:ArialMT;writing-mode:lr-tb;fill:#000000;fill-opacity:1;fill-rule:nonzero;stroke:none"
         id="text348"><tspan
           x="0 12.274 21.726 26.434999 35.887001 41.548 45.321999 54.773998 60.435001 69.887001 79.338997 85 89.709"
           y="0"
           id="tspan346">Naturlernorte</tspan></text><text
         transform="matrix(1,0,0,-1,535.81,-217.27)"
         style="font-variant:normal;font-weight:normal;font-size:17px;font-family:Arial;-inkscape-font-specification:ArialMT;writing-mode:lr-tb;fill:#000000;fill-opacity:1;fill-rule:nonzero;stroke:none"
         id="text352"><tspan
           x="0 11.322 15.096 24.548 34 43.452 49.112999 61.387001 70.838997 74.612999"
           y="0"
           id="tspan350">Kinderwald</tspan></text><text
         transform="matrix(1,0,0,-1,653.76,-104.93)"
         style="font-variant:normal;font-weight:normal;font-size:17px;font-family:Arial;-inkscape-font-specification:ArialMT;writing-mode:lr-tb;fill:#000000;fill-opacity:1;fill-rule:nonzero;stroke:none"
         id="text356"><tspan
           x="0 11.322 19.822001 29.274 38.726002 42.5 51.952 55.726002 65.178001 68.952003 78.403999 87.856003 91.629997 101.082 109.582 119.034 128.48599 133.19501 138.856 148.308"
           y="0"
           id="tspan354">Schulbiologiezentrum</tspan></text><text
         transform="matrix(1,0,0,-1,612.34,454.15)"
         style="font-variant:normal;font-weight:normal;font-size:17px;font-family:Arial;-inkscape-font-specification:ArialMT;writing-mode:lr-tb;fill:#000000;fill-opacity:1;fill-rule:nonzero;stroke:none"
         id="text360"><tspan
           x="0 11.322 19.822001 24.531 33.983002 43.435001 47.209 50.983002 60.435001 68.934998 74.596001 85.917999 95.370003 101.031 110.483 119.935 128.435 133.144 142.59599 146.37 151.07899 160.53101 169.983 179.435 188.88699"
           y="0"
           id="tspan358">Aktuelles-Veranstaltungen</tspan></text><text
         transform="matrix(1,0,0,-1,145.48,441.22)"
         style="font-variant:normal;font-weight:normal;font-size:17px;font-family:Arial;-inkscape-font-specification:ArialMT;writing-mode:lr-tb;fill:#000000;fill-opacity:1;fill-rule:nonzero;stroke:none"
         id="text364"><tspan
           x="0 11.322 20.774 25.483 34.935001 44.387001 50.048 54.757 60.417999 69.870003 79.321999 88.774002 94.434998 107.644 112.353 117.062 126.514 135.966 145.418 154.87 163.37 171.87 181.32201 185.09599 189.80499 199.257"
           y="0"
           id="tspan362">Anfahrt-und-Öffnungszeiten</tspan></text><text
         transform="matrix(1,0,0,-1,260.89,284.65)"
         style="font-variant:normal;font-weight:normal;font-size:17px;font-family:Arial;-inkscape-font-specification:ArialMT;writing-mode:lr-tb;fill:#000000;fill-opacity:1;fill-rule:nonzero;stroke:none"
         id="text368"><tspan
           x="0 11.322 20.774 30.226 34 43.452 52.903999 62.355999 66.129997 75.582001"
           y="0"
           id="tspan366">Audioguide</tspan></text><text
         transform="matrix(1,0,0,-1,350.66,717.87)"
         style="font-variant:normal;font-weight:normal;font-size:17px;font-family:Arial;-inkscape-font-specification:ArialMT;writing-mode:lr-tb;fill:#000000;fill-opacity:1;fill-rule:nonzero;stroke:none"
         id="text372"><tspan
           x="0 12.274 21.726 30.226 35.887001 51.917999 61.369999 65.143997 74.596001 80.257004 92.530998 101.983 110.483 119.935 129.38699 138.839 148.291"
           y="0"
           id="tspan370">Das-Wald-Hochhaus</tspan></text><text
         transform="matrix(1,0,0,-1,523.88,645.78)"
         style="font-variant:normal;font-weight:normal;font-size:17px;font-family:Arial;-inkscape-font-specification:ArialMT;writing-mode:lr-tb;fill:#000000;fill-opacity:1;fill-rule:nonzero;stroke:none"
         id="text376"><tspan
           x="0 10.37 16.031 25.483 29.257 41.530998 45.305 49.078999 52.853001 56.626999 66.079002 75.530998 84.030998 89.692001 102.901 111.401 120.853 124.627 134.07899 143.53101 147.30499 155.80499 164.30499 173.757 183.209 191.709 197.37 205.87 215.32201 224.774"
           y="0"
           id="tspan374">Freiwilliges-Ökologisches-Jahr</tspan></text><text
         transform="matrix(1,0,0,-1,593.45,300.03)"
         style="font-variant:normal;font-weight:normal;font-size:17px;font-family:Arial;-inkscape-font-specification:ArialMT;writing-mode:lr-tb;fill:#000000;fill-opacity:1;fill-rule:nonzero;stroke:none"
         id="text380"><tspan
           x="0 10.37 19.822001 29.274 34.935001 44.387001 53.839001 63.291 72.742996"
           y="0"
           id="tspan378">Führungen</tspan></text><text
         transform="matrix(1,0,0,-1,430.99,253.72)"
         style="font-variant:normal;font-weight:normal;font-size:17px;font-family:Arial;-inkscape-font-specification:ArialMT;writing-mode:lr-tb;fill:#000000;fill-opacity:1;fill-rule:nonzero;stroke:none"
         id="text384"><tspan
           x="0 12.274 21.726 31.177999 36.839001 42.5 51.952 61.403999"
           y="0"
           id="tspan382">Über-uns</tspan></text></g></g></svg>
